<?xml version="1.0" encoding="UTF-8" standalone="no"?>
<svg
   xmlns:dc="http://purl.org/dc/elements/1.1/"
   xmlns:cc="http://creativecommons.org/ns#"
   xmlns:rdf="http://www.w3.org/1999/02/22-rdf-syntax-ns#"
   xmlns:svg="http://www.w3.org/2000/svg"
   xmlns="http://www.w3.org/2000/svg"
   xmlns:sodipodi="http://sodipodi.sourceforge.net/DTD/sodipodi-0.dtd"
   xmlns:inkscape="http://www.inkscape.org/namespaces/inkscape"
   version="1.0"
   width="420mm"
   height="594mm"
   viewBox="0 0 1190.5512 1683.7796"
   preserveAspectRatio="xMidYMid meet"
   id="svg30"
   sodipodi:docname="getfem_tutorial-face.svg"
   inkscape:version="0.92.4 (5da689c313, 2019-01-14)"
   inkscape:export-filename="E:\tkoyama010_OpenCAE_journal_and_symposium\symposium\TeX\fig\getfem_tutorial-face.png"
   inkscape:export-xdpi="400"
   inkscape:export-ydpi="400">
  <metadata
     id="metadata36">
    <rdf:RDF>
      <cc:Work
         rdf:about="">
        <dc:format>image/svg+xml</dc:format>
        <dc:type
           rdf:resource="http://purl.org/dc/dcmitype/StillImage" />
        <dc:title />
      </cc:Work>
    </rdf:RDF>
  </metadata>
  <defs
     id="defs34">
    <linearGradient
       gradientTransform="rotate(-90,23.999999,24.000001)"
       x1="1"
       gradientUnits="userSpaceOnUse"
       x2="47"
       id="linearGradient3764">
      <stop
         id="stop157"
         offset="0"
         style="stop-color:#acacac" />
      <stop
         id="stop159"
         offset="1"
         style="stop-color:#b6b6b6" />
    </linearGradient>
    <linearGradient
       gradientTransform="rotate(-90,23.999998,24)"
       gradientUnits="userSpaceOnUse"
       x2="47"
       x1="1"
       id="linearGradient3764-5">
      <stop
         id="stop277"
         style="stop-color:#3d3d3d;stop-opacity:1" />
      <stop
         id="stop279"
         style="stop-color:#474747;stop-opacity:1"
         offset="1" />
    </linearGradient>
    <linearGradient
       gradientTransform="rotate(-90,24,24)"
       gradientUnits="userSpaceOnUse"
       x2="47"
       x1="1"
       id="linearGradient4325">
      <stop
         id="stop422"
         style="stop-color:#3b4c50;stop-opacity:1" />
      <stop
         id="stop424"
         style="stop-color:#44575c;stop-opacity:1"
         offset="1" />
    </linearGradient>
    <linearGradient
       gradientTransform="rotate(-90,23.999998,24)"
       gradientUnits="userSpaceOnUse"
       x2="47"
       x1="1"
       id="linearGradient3764-9">
      <stop
         id="stop540"
         style="stop-color:#e4e4e4;stop-opacity:1" />
      <stop
         id="stop542"
         style="stop-color:#eee;stop-opacity:1"
         offset="1" />
    </linearGradient>
    <linearGradient
       gradientTransform="rotate(-90,23.999998,24)"
       gradientUnits="userSpaceOnUse"
       x2="47"
       x1="1"
       id="linearGradient3764-51">
      <stop
         id="stop2"
         style="stop-color:#7ca339;stop-opacity:1" />
      <stop
         id="stop4"
         style="stop-color:#87b23e;stop-opacity:1"
         offset="1" />
    </linearGradient>
    <linearGradient
       gradientTransform="matrix(0,-0.2,0.2,0,36.901694,24.738983)"
       gradientUnits="userSpaceOnUse"
       x2="47"
       x1="1"
       id="linearGradient3764-7">
      <stop
         id="stop2-1"
         style="stop-color:#7ca339;stop-opacity:1" />
      <stop
         id="stop4-6"
         style="stop-color:#87b23e;stop-opacity:1"
         offset="1" />
    </linearGradient>
    <linearGradient
       gradientTransform="matrix(0,-0.2,0.2,0,18.99661,28.833898)"
       gradientUnits="userSpaceOnUse"
       x2="47"
       x1="1"
       id="linearGradient3764-7-7">
      <stop
         id="stop2-1-0"
         style="stop-color:#7ca339;stop-opacity:1" />
      <stop
         id="stop4-6-3"
         style="stop-color:#87b23e;stop-opacity:1"
         offset="1" />
    </linearGradient>
    <style
       id="style153"
       type="text/css"><![CDATA[
    .str0 {stroke:#555555;stroke-width:29.9961}
    .fil1 {fill:none}
    .fil0 {fill:#FF0033;fill-rule:nonzero}
   ]]></style>
    <linearGradient
       gradientTransform="rotate(-90,23.999998,24)"
       gradientUnits="userSpaceOnUse"
       x2="47"
       x1="1"
       id="linearGradient3764-9-5">
      <stop
         id="stop540-0"
         style="stop-color:#e4e4e4;stop-opacity:1" />
      <stop
         id="stop542-3"
         style="stop-color:#eee;stop-opacity:1"
         offset="1" />
    </linearGradient>
    <linearGradient
       gradientTransform="rotate(-90,24,24)"
       gradientUnits="userSpaceOnUse"
       x2="47"
       x1="1"
       id="linearGradient4325-0">
      <stop
         id="stop422-2"
         style="stop-color:#3b4c50;stop-opacity:1" />
      <stop
         id="stop424-7"
         style="stop-color:#44575c;stop-opacity:1"
         offset="1" />
    </linearGradient>
    <linearGradient
       gradientTransform="rotate(-90,23.999998,24)"
       gradientUnits="userSpaceOnUse"
       x2="47"
       x1="1"
       id="linearGradient3764-5-2">
      <stop
         id="stop277-8"
         style="stop-color:#3d3d3d;stop-opacity:1" />
      <stop
         id="stop279-2"
         style="stop-color:#474747;stop-opacity:1"
         offset="1" />
    </linearGradient>
    <linearGradient
       gradientTransform="rotate(-90,23.999999,24.000001)"
       x1="1"
       gradientUnits="userSpaceOnUse"
       x2="47"
       id="linearGradient3764-4">
      <stop
         id="stop157-2"
         offset="0"
         style="stop-color:#acacac" />
      <stop
         id="stop159-2"
         offset="1"
         style="stop-color:#b6b6b6" />
    </linearGradient>
  </defs>
  <sodipodi:namedview
     pagecolor="#ffffff"
     bordercolor="#666666"
     borderopacity="1"
     objecttolerance="10"
     gridtolerance="10"
     guidetolerance="10"
     inkscape:pageopacity="0"
     inkscape:pageshadow="2"
     inkscape:window-width="1920"
     inkscape:window-height="1052"
     id="namedview32"
     showgrid="false"
     units="mm"
     inkscape:zoom="0.31189427"
     inkscape:cx="426.7555"
     inkscape:cy="995.16205"
     inkscape:window-x="0"
     inkscape:window-y="-1"
     inkscape:window-maximized="1"
     inkscape:current-layer="svg30" />
  <flowRoot
     xml:space="preserve"
     id="flowRoot33"
     style="fill:black;fill-opacity:1;stroke:none;font-family:'Migu 1P';font-style:normal;font-weight:normal;font-size:133.33333333px;line-height:1.25;letter-spacing:0px;word-spacing:0px;-inkscape-font-specification:'Migu 1P';font-stretch:normal;font-variant:normal"><flowRegion
       id="flowRegion35"><rect
         id="rect37"
         width="711.88074"
         height="156.43239"
         x="392.21457"
         y="91.26001" /></flowRegion><flowPara
       id="flowPara39" /></flowRoot>  <rect
     style="fill:#ffffff;stroke:#376400;stroke-width:0.75;stroke-opacity:1"
     id="rect129"
     width="1197.5488"
     height="1688.0997"
     x="-4.8093309"
     y="4.730782" />
  <g
     aria-label="はじめてのGetFEM++"
     style="font-style:normal;font-variant:normal;font-weight:normal;font-stretch:normal;font-size:72px;line-height:1.25;font-family:'Migu 1P';-inkscape-font-specification:'Migu 1P';text-align:center;letter-spacing:0px;word-spacing:0px;text-anchor:middle;fill:#008000;fill-opacity:1;stroke:none;stroke-width:0.75"
     id="text32"
     transform="translate(-105.80509,-31.260595)" />
  <text
     xml:space="preserve"
     style="font-style:normal;font-variant:normal;font-weight:normal;font-stretch:normal;font-size:72px;line-height:1.25;font-family:'Migu 1P';-inkscape-font-specification:'Migu 1P';text-align:end;letter-spacing:0px;word-spacing:0px;text-anchor:end;fill:#008000;fill-opacity:1;stroke:none;stroke-width:0.75"
     x="1122.9448"
     y="1297.1765"
     id="text45"><tspan
       sodipodi:role="line"
       x="1122.9448"
       y="1297.1765"
       style="font-style:normal;font-variant:normal;font-weight:bold;font-stretch:normal;font-size:32px;line-height:0px;font-family:'Migu 1P';-inkscape-font-specification:'Migu 1P Bold';text-align:end;text-anchor:end;fill:#000000;stroke-width:0.75"
       id="tspan47">Yves Renard, Julien Pommier, Konstantinos Poulios 著</tspan></text>
  <rect
     style="fill:#ff2a2a;stroke:#376400;stroke-width:0.69479233;stroke-opacity:1"
     id="rect205"
     width="1197.5764"
     height="343.92175"
     x="-4.8369188"
     y="1351.9089" />
  <g
     aria-label="Pythonで手軽に使える!!! AI時代の物理シュミレーション ライブラリ"
     style="font-style:normal;font-weight:normal;font-size:72px;line-height:125%;font-family:sans-serif;letter-spacing:0px;word-spacing:0px;fill:#000000;fill-opacity:1;stroke:none;stroke-width:0.75px;stroke-linecap:butt;stroke-linejoin:miter;stroke-opacity:1"
     id="text209"
     transform="translate(0,25.5)">
    <path
       d="m 77.005486,1382.0996 h 14.34375 q 5.765625,0 9.632814,1.8633 6.53906,3.3398 6.53906,11.2148 0,13.5352 -16.171874,13.5352 h -5.273438 v 17.0859 q 0,3.3399 1.722656,4.0782 1.089844,0.5625 3.691407,0.6679 v 1.6524 H 77.005486 v -1.6524 q 3.480468,-0.2109 4.253906,-1.6523 0.492187,-0.8086 0.492187,-3.0938 v -37.4414 q 0,-2.9531 -1.300781,-3.7969 -1.054687,-0.5976 -3.445312,-0.8085 z m 9.070312,24.6094 h 5.203125 q 11.496097,0 11.496097,-11.5313 0,-11.0742 -11.671878,-11.0742 -3.691406,0 -4.535156,1.3711 -0.492188,0.7031 -0.492188,2.8828 z"
       style="font-style:normal;font-variant:normal;font-weight:bold;font-stretch:normal;font-family:TakaoMincho;-inkscape-font-specification:'TakaoMincho Bold';fill:#ffffff;fill-opacity:1;stroke:#ffffff;stroke-width:3.75000024;stroke-miterlimit:4;stroke-dasharray:none;stroke-opacity:1"
       id="path169"
       inkscape:connector-curvature="0" />
    <path
       d="m 112.40783,1398.377 h 13.39453 v 1.6523 q -4.32422,0.2109 -4.32422,2.25 0,0.5625 0.5625,2.0742 l 8.4375,19.793 6.60938,-18.4922 q 0.66797,-1.8281 0.66797,-2.9531 0,-2.3555 -4.11329,-2.6719 v -1.6523 h 11.8125 v 1.6523 q -3.1289,0.4219 -4.53515,2.8125 -1.05469,2.0039 -7.06641,18.4922 -5.90625,16.207 -7.41797,18.3164 -2.28515,3.375 -5.90625,3.375 -2.35547,0 -4.2539,-1.6524 -1.86328,-1.7578 -1.86328,-4.0429 0,-3.375 3.26953,-3.375 3.09375,0 3.09375,3.0937 0,1.793 -1.6875,2.8125 0.3164,1.1602 1.6875,1.1602 3.6914,0 7.69922,-11.7422 l -10.65235,-24.8555 q -1.75781,-4.0781 -5.41406,-4.3945 z"
       style="font-style:normal;font-variant:normal;font-weight:bold;font-stretch:normal;font-family:TakaoMincho;-inkscape-font-specification:'TakaoMincho Bold';fill:#ffffff;stroke:#ffffff;stroke-width:3.75000024;stroke-miterlimit:4;stroke-dasharray:none;stroke-opacity:1"
       id="path171"
       inkscape:connector-curvature="0" />
    <path
       d="m 152.80236,1400.3809 v -1.9336 q 7.94531,-1.7227 9.66797,-10.793 h 1.72266 v 10.7227 h 9.98437 v 2.0039 h -9.98437 v 23.9062 q 0,6.1875 3.65625,6.1875 4.07812,0 7.55859,-5.3437 l 1.16016,1.2304 q -4.11329,7.1367 -9.5625,7.1367 -6.85547,0 -6.85547,-9 v -24.1171 z"
       style="font-style:normal;font-variant:normal;font-weight:bold;font-stretch:normal;font-family:TakaoMincho;-inkscape-font-specification:'TakaoMincho Bold';fill:#ffffff;stroke:#ffffff;stroke-width:3.75000024;stroke-miterlimit:4;stroke-dasharray:none;stroke-opacity:1"
       id="path173"
       inkscape:connector-curvature="0" />
    <path
       d="m 185.28674,1432.1973 v -1.6524 q 2.98828,-0.3164 3.76171,-1.5117 0.5625,-0.9141 0.5625,-3.0937 v -38.004 q 0,-2.3906 -1.01953,-3.164 -0.63281,-0.457 -3.375,-0.5625 v -1.6875 q 4.07813,-0.3164 8.29688,-2.0742 v 21.9726 q 4.21875,-5.3437 9.35156,-5.3437 5.55469,0 8.05078,5.0976 1.16016,2.5313 1.16016,5.9766 v 17.7891 q 0,2.8125 1.08984,3.6562 0.8086,0.7383 3.23438,0.9492 v 1.6524 h -12.48047 v -1.6524 q 2.91797,-0.3164 3.6914,-1.5117 0.5625,-0.9141 0.5625,-3.0937 v -17.7188 q 0,-8.332 -6.11718,-8.332 -4.53516,0 -8.54297,5.5547 v 20.4961 q 0,2.8125 1.08984,3.6562 0.8086,0.7383 3.23438,0.9492 v 1.6524 z"
       style="font-style:normal;font-variant:normal;font-weight:bold;font-stretch:normal;font-family:TakaoMincho;-inkscape-font-specification:'TakaoMincho Bold';fill:#ffffff;stroke:#ffffff;stroke-width:3.75000024;stroke-miterlimit:4;stroke-dasharray:none;stroke-opacity:1"
       id="path175"
       inkscape:connector-curvature="0" />
    <path
       d="m 236.47424,1397.0762 q 6.46875,0 10.37109,5.9765 3.16406,4.9219 3.16406,12.3047 0,6.3633 -2.46094,10.9336 -3.76171,7.207 -11.0039,7.207 -6.11719,0 -9.94922,-5.3437 -3.51563,-4.8867 -3.51563,-12.7969 0,-7.3476 3.09375,-12.164 3.76172,-6.1172 10.30079,-6.1172 z m 0.14062,2.0742 q -3.86719,0 -6.25781,4.043 -2.60156,4.4296 -2.60156,12.164 0,6.4688 1.79296,10.5821 2.39063,5.5546 6.9961,5.5546 3.48047,0 5.76562,-3.375 3.02344,-4.4296 3.02344,-12.7617 0,-7.875 -2.67187,-12.2344 -2.35547,-3.9726 -6.04688,-3.9726 z"
       style="font-style:normal;font-variant:normal;font-weight:bold;font-stretch:normal;font-family:TakaoMincho;-inkscape-font-specification:'TakaoMincho Bold';fill:#ffffff;stroke:#ffffff;stroke-width:3.75000024;stroke-miterlimit:4;stroke-dasharray:none;stroke-opacity:1"
       id="path177"
       inkscape:connector-curvature="0" />
    <path
       d="m 257.28674,1432.1973 v -1.6524 q 2.98828,-0.3164 3.76171,-1.5117 0.5625,-0.9141 0.5625,-3.0937 v -21.6563 q 0,-2.4961 -1.01953,-3.1641 -0.63281,-0.457 -3.375,-0.5976 v -1.6524 q 4.7461,-0.5273 7.98047,-2.1445 v 6.0469 q 4.39453,-5.6953 9.66797,-5.6953 5.55469,0 8.05078,5.0976 1.16016,2.5313 1.16016,5.9766 v 17.7891 q 0,2.8125 1.08984,3.6562 0.8086,0.7383 3.23438,0.9492 v 1.6524 h -12.48047 v -1.6524 q 2.91797,-0.3164 3.6914,-1.5117 0.5625,-0.9141 0.5625,-3.0937 v -17.7188 q 0,-8.332 -6.11718,-8.332 -4.57032,0 -8.54297,5.625 v 20.4258 q 0,2.8125 1.08984,3.6562 0.8086,0.7383 3.23438,0.9492 v 1.6524 z"
       style="font-style:normal;font-variant:normal;font-weight:bold;font-stretch:normal;font-family:TakaoMincho;-inkscape-font-specification:'TakaoMincho Bold';fill:#ffffff;stroke:#ffffff;stroke-width:3.75000024;stroke-miterlimit:4;stroke-dasharray:none;stroke-opacity:1"
       id="path179"
       inkscape:connector-curvature="0" />
    <path
       d="m 297.8922,1388.498 q 1.3711,2.6719 4.46485,2.6719 1.54687,0 25.20703,-4.3242 17.36719,-3.1641 19.51172,-3.1641 2.32031,0 4.53515,1.3711 1.3711,0.8438 1.3711,2.0391 0,1.793 -3.02344,1.793 -0.91406,0 -2.67187,-0.2813 -3.23438,-0.3867 -4.95704,-0.3867 -7.10156,0 -12.375,4.957 -8.78906,8.1563 -8.78906,21.0938 0,8.0859 4.67578,12.3398 3.72657,3.3047 10.08985,3.3047 2.03906,0 4.5,-0.457 1.30078,-0.211 2.39062,-0.211 1.86328,0 3.44531,1.1602 1.3711,0.9492 1.3711,1.9336 0,2.3203 -8.19141,2.3203 -22.39453,0 -22.39453,-20.0039 0,-16.4531 15.75,-26.0859 l -0.0703,-0.211 q -16.98047,3.375 -27.42188,7.3477 -2.28515,0.8789 -3.30468,0.8789 -4.1836,0 -5.69532,-7.1367 z m 43.98047,11.25 q 8.92969,2.918 8.92969,7.5586 0,2.5313 -2.14453,2.5313 -1.75781,0 -2.60156,-2.25 -1.40625,-3.832 -5.02735,-6.6094 z m 6.85547,-4.5351 q 8.85938,2.707 8.85938,7.1016 0,2.6015 -2.25,2.6015 -1.61719,0 -2.56641,-2.3906 -1.44141,-3.6211 -4.92187,-6.082 z"
       style="font-style:normal;font-variant:normal;font-weight:bold;font-stretch:normal;font-family:TakaoMincho;-inkscape-font-specification:'TakaoMincho Bold';fill:#ffffff;stroke:#ffffff;stroke-width:3.75000024;stroke-miterlimit:4;stroke-dasharray:none;stroke-opacity:1"
       id="path181"
       inkscape:connector-curvature="0" />
    <path
       d="m 401.00549,1401.6816 v 12.5157 h 20.67187 l 4.00781,-5.4844 q 3.16407,2.8476 5.41407,5.8359 l -0.94922,1.4414 h -29.14453 v 18.8086 q 0,5.3438 -8.1211,5.2383 -0.14062,-2.5664 -2.91797,-3.5156 -2.25,-0.7735 -8.1914,-1.7227 v -2.039 q 7.10156,0.8789 12.16406,0.8789 2.67187,0 2.67187,-2.3203 v -15.3282 h -29.46093 l -0.77344,-1.7929 h 30.23437 v -12.5157 H 371.2633 l -0.8086,-1.7929 h 26.15625 v -12.8321 q -9.98437,1.4766 -24.11718,2.5313 l -0.73828,-1.793 q 27.38671,-3.0234 43.73437,-9.0703 5.30859,3.0234 5.30859,4.4649 0,0.7031 -1.58203,0.7031 -0.84375,0 -2.88281,-0.3516 -7.38281,1.7578 -15.32812,2.8828 v 13.4649 h 16.6289 l 3.83203,-5.0977 q 2.35547,2.1797 5.09766,5.3789 l -0.80859,1.5117 z"
       style="font-style:normal;font-variant:normal;font-weight:bold;font-stretch:normal;font-family:TakaoMincho;-inkscape-font-specification:'TakaoMincho Bold';fill:#ffffff;stroke:#ffffff;stroke-width:3.75000024;stroke-miterlimit:4;stroke-dasharray:none;stroke-opacity:1"
       id="path183"
       inkscape:connector-curvature="0" />
    <path
       d="m 473.28674,1383.9629 h -5.97657 l -0.66797,-1.793 h 25.5586 l 2.60156,-3.2344 q 4.67578,4.0079 4.67578,4.9571 0,0.457 -0.63281,0.7734 l -2.25,1.0195 q -3.76172,7.875 -8.61328,13.3946 6.92578,5.3086 16.10156,8.5781 -1.89844,1.793 -2.95312,4.2539 -9.77344,-4.5703 -15.46875,-9.9492 -6.75,6.8555 -17.85938,11.8125 l -1.08984,-1.582 q 8.92968,-4.9219 16.13672,-13.043 -5.80079,-6.4688 -9.5625,-15.1875 z m 2.28515,0 q 3.9375,7.418 9.52735,12.6562 4.60546,-5.9062 7.41796,-12.6562 z m -30.16406,11.8125 h 5.69531 v -6.8555 h -12.6914 l -0.63282,-1.7929 h 13.32422 v -10.3711 q 6.9961,0.1054 6.9961,1.582 0,0.8789 -2.88282,1.9336 v 6.8555 h 6.32813 l 3.16406,-4.1836 q 2.07422,1.7578 4.57031,4.7461 l -0.80859,1.2304 h -13.25391 v 6.8555 h 5.97657 l 2.53125,-3.2344 q 4.00781,3.586 4.00781,4.4649 0,0.4218 -0.49219,0.7031 l -1.72266,1.1601 v 20.8829 h -3.83203 v -2.3907 h -6.46875 v 8.5078 h 7.13672 l 3.16406,-4.1484 q 2.77735,2.4961 4.60547,4.7109 l -0.77343,1.2305 h -14.13282 v 13.6055 h -4.11328 v -13.6055 h -12.76172 l -0.77343,-1.793 h 13.53515 v -8.5078 h -6.04687 v 3.4102 h -3.90235 v -27.2461 q 1.30078,0.5625 4.25391,2.25 z m -0.35156,1.793 v 7.6992 h 6.11718 v -7.6992 z m 16.6289,18 v -8.5079 h -6.53906 v 8.5079 z m 0,-10.3008 v -7.6992 h -6.53906 v 7.6992 z m -10.51172,1.7929 h -6.11718 v 8.5079 h 6.11718 z m 31.25391,30.0586 v -14.625 h -13.04297 l -0.5625,-1.7929 h 13.60547 v -12.0235 q 7.06641,0.4219 7.06641,1.793 0,0.9141 -3.02344,1.8633 v 8.3672 h 6.46875 l 3.23437,-4.6055 q 2.67188,2.5313 4.64063,5.0977 l -0.87891,1.3007 h -13.46484 v 14.625 h 9.5625 l 3.62109,-4.6757 q 2.42578,2.25 4.60547,4.8867 l -0.80859,1.582 h -37.9336 l -0.8789,-1.793 z"
       style="font-style:normal;font-variant:normal;font-weight:bold;font-stretch:normal;font-family:TakaoMincho;-inkscape-font-specification:'TakaoMincho Bold';fill:#ffffff;stroke:#ffffff;stroke-width:3.75000024;stroke-miterlimit:4;stroke-dasharray:none;stroke-opacity:1"
       id="path185"
       inkscape:connector-curvature="0" />
    <path
       d="m 528.5172,1412.5449 1.26563,1.1602 q -4.88672,10.3359 -4.88672,17.2265 l 0.0703,2.4961 q 0,2.3907 -1.37109,2.3907 -1.72266,0 -3.86719,-5.2735 -2.60156,-6.3633 -2.60156,-14.8008 0,-8.2617 3.41016,-21.2695 1.37109,-4.9219 1.37109,-6.75 0,-2.3906 -2.03906,-5.0625 l 1.37109,-1.1953 q 5.76563,3.7969 5.76563,6.8906 0,1.4063 -1.08985,3.9024 -5.625,12.9375 -5.625,23.9062 0,4.1836 1.23047,7.8399 z m 16.62891,-14.2383 6.04688,-5.9765 q -0.94922,0.07 -2.03907,0.07 -6.36328,0 -10.79297,-3.6563 l 0.94922,-1.4414 q 3.33985,2.1446 7.91016,2.1446 4.57031,0 11.35547,-2.1797 1.51172,-0.4922 2.60156,-0.4922 2.17969,0 3.51563,1.1601 1.08984,0.9493 1.08984,1.793 0,1.6172 -3.375,1.7227 -6.50391,0.3164 -15.89063,8.0156 z m -6.92578,19.8633 q 3.55078,8.8594 16.55859,8.8594 3.90235,0 8.19141,-0.8789 1.16016,-0.2813 2.46094,-0.2813 1.54687,0 3.02343,0.8086 1.51172,0.9493 1.51172,2.0039 0,2.6016 -13.11328,2.6016 -9.38672,0 -14.73047,-3.5859 -3.9375,-2.7422 -5.55468,-8.7891 z"
       style="font-style:normal;font-variant:normal;font-weight:bold;font-stretch:normal;font-family:TakaoMincho;-inkscape-font-specification:'TakaoMincho Bold';fill:#ffffff;stroke:#ffffff;stroke-width:3.75000024;stroke-miterlimit:4;stroke-dasharray:none;stroke-opacity:1"
       id="path187"
       inkscape:connector-curvature="0" />
    <path
       d="m 620.97814,1398.0957 v -8.5078 h -21.26953 l -0.63281,-1.793 h 21.90234 v -11.0742 q 7.27735,0.3164 7.27735,1.8633 0,0.9844 -3.09375,1.9336 v 7.2773 h 13.5 l 3.65625,-4.6054 q 2.70703,2.4609 4.78125,4.957 l -0.8086,1.4414 h -21.1289 v 8.5078 h 11.17968 l 2.88282,-3.5508 q 4.42968,3.5508 4.42968,4.5703 0,0.4219 -0.66797,0.8438 l -1.86328,1.1601 v 16.8399 h -4.04297 v -3.9024 h -11.91796 q -0.10547,6.5743 -2.60157,11.8829 9.91407,7.0312 25.59375,9.7382 -2.39062,2.0391 -3.30468,4.3946 -14.69532,-4.043 -23.80079,-11.461 -5.90625,9.3516 -22.11328,12.8321 l -0.94922,-1.7227 q 14.97657,-4.4297 20.03907,-13.7812 -3.41016,-3.4102 -6.39844,-7.1719 l 1.26562,-1.3008 q 3.65625,3.7266 6.32813,5.9062 1.61719,-4.2187 1.75781,-9.3164 h -12.51562 v 3.9024 h -4.07813 v -22.3945 q 2.67188,1.1953 4.71094,2.5312 z m 0,1.793 h -12.51562 v 12.375 h 12.51562 z m 4.1836,0 v 12.375 h 11.91796 v -12.375 z m -31.60547,-2.1797 q 3.90234,0.7383 3.90234,1.8633 0,0.914 -2.95312,1.8984 v 39.7969 h -4.11329 v -36.8789 q -3.51562,6.9258 -8.22656,13.0429 l -1.58203,-1.2304 q 10.26563,-15.961 15.11719,-39.4453 6.78515,1.4062 6.78515,2.9531 0,0.9492 -3.16406,1.5117 -2.8125,9.7031 -5.76562,16.4883 z"
       style="font-style:normal;font-variant:normal;font-weight:bold;font-stretch:normal;font-family:TakaoMincho;-inkscape-font-specification:'TakaoMincho Bold';fill:#ffffff;stroke:#ffffff;stroke-width:3.75000024;stroke-miterlimit:4;stroke-dasharray:none;stroke-opacity:1"
       id="path189"
       inkscape:connector-curvature="0" />
    <path
       d="m 678.63439,1389.9395 5.83594,-4.1133 q -6.15234,-1.9336 -9.07031,-6.6094 l 1.19531,-1.2305 q 3.55078,3.6563 7.80469,4.6055 2.67187,0.668 7.76953,0.668 6.11719,0.1054 6.11719,3.5859 0,1.582 -1.79297,1.582 -0.5625,0 -1.72266,-0.2109 -2.42578,-0.4922 -4.53516,-0.4922 -4.85156,0 -10.30078,3.5156 z m -8.78906,7.6992 q 0.52734,2.3203 2.8125,2.3203 0.80859,0 9.84375,-1.6524 11.35547,-2.1796 13.18359,-3.9023 0.52735,-0.4219 1.01953,-0.4219 1.30079,0 3.51563,2.461 1.51172,1.6171 1.51172,2.4961 0,0.5976 -1.01953,1.1601 -3.44532,1.793 -17.85938,14.5547 l -4.21875,3.7266 0.14063,0.2109 q 6.53906,-3.7969 9.84375,-3.7969 6.15234,0 7.34765,10.3008 0.31641,3.0234 1.3711,4.6758 1.72265,2.8125 6.71484,2.8125 3.30469,0 5.69531,-0.7383 0.73828,-0.2109 1.3711,-0.2109 1.6875,0 2.88281,1.7929 0.70312,1.0547 0.70312,1.8985 0,1.7226 -7.98046,1.7226 -0.87891,0 -3.6211,-0.1406 -9.77344,-0.5273 -10.86328,-11.0391 -0.52734,-5.3789 -1.37109,-7.0664 -1.05469,-2.0039 -3.23438,-2.0039 -4.42969,0 -11.25,5.836 -6.78515,5.8711 -11.95312,13.1484 -0.77344,1.0195 -1.44141,1.0195 -1.86328,0 -1.86328,-3.4453 0,-2.25 1.72266,-3.7617 13.28906,-11.6367 29.88281,-28.3359 l 3.6914,-3.6914 -0.17578,-0.211 q -16.875,4.9219 -21.9375,6.9258 -2.14453,0.7734 -2.88281,0.7734 -3.375,0 -3.375,-7.0312 z"
       style="font-style:normal;font-variant:normal;font-weight:bold;font-stretch:normal;font-family:TakaoMincho;-inkscape-font-specification:'TakaoMincho Bold';fill:#ffffff;stroke:#ffffff;stroke-width:3.75000024;stroke-miterlimit:4;stroke-dasharray:none;stroke-opacity:1"
       id="path191"
       inkscape:connector-curvature="0" />
    <path
       d="m 742.33752,1426.748 q -0.0703,-0.3515 -0.0703,-0.9492 0,-2.5312 1.58204,-4.289 2.25,-2.461 6.04687,-2.461 6.75,0 11.74219,5.9766 2.84765,3.4453 3.41015,7.418 3.86719,-1.2305 6.78516,-3.9024 4.81641,-4.3945 4.81641,-10.3008 0,-6.1172 -5.34375,-9.4922 -4.04297,-2.5312 -9.42188,-2.5312 -4.14844,0 -8.50781,1.582 -10.40625,3.7969 -16.20703,12.1992 -1.3711,2.004 -2.8125,2.004 -1.72266,0 -1.72266,-3.5157 0,-2.0039 1.79297,-3.6914 l 10.30078,-9.8086 q 4.92188,-4.6758 17.36719,-17.332 l 3.79687,-3.9023 -0.14062,-0.2813 q -12.65625,4.2891 -16.98047,6.1875 -1.51172,0.5625 -2.32031,0.5625 -3.97266,0 -5.83594,-6.2578 l 1.51172,-0.9141 q 1.40625,2.2149 4.04297,2.2149 3.51562,0 13.53515,-2.8125 4.42969,-1.1953 5.90625,-2.2852 0.38672,-0.2812 0.87891,-0.2812 1.61719,0 3.51563,2.8828 1.23046,1.8984 1.23046,2.8125 0,0.7734 -1.37109,1.3008 -2.88281,1.0546 -20.25,17.5429 l -1.79297,1.7227 -3.16406,3.0234 0.21094,0.211 q 9.73828,-5.625 18.21093,-5.625 7.94532,0 12.97266,3.7617 5.625,4.1836 5.625,10.582 0,7.2422 -6.11719,12.7266 -6.75,5.9765 -16.20703,5.9765 -9.07031,0 -14.13281,-4.6054 -2.56641,-2.4258 -2.88281,-5.4493 z m 17.71875,6.5391 q -0.98438,-4.8867 -3.23438,-7.6992 -3.26953,-4.0078 -7.0664,-4.0078 -4.42969,0 -4.53516,4.2539 0.10547,2.4961 2.60156,4.4297 4.04297,3.0937 10.58203,3.0937 1.08985,0 1.65235,-0.07 z"
       style="font-style:normal;font-variant:normal;font-weight:bold;font-stretch:normal;font-family:TakaoMincho;-inkscape-font-specification:'TakaoMincho Bold';fill:#ffffff;stroke:#ffffff;stroke-width:3.75000024;stroke-miterlimit:4;stroke-dasharray:none;stroke-opacity:1"
       id="path193"
       inkscape:connector-curvature="0" />
    <path
       d="m 811.59533,1422.002 -0.5625,-7.2774 q -2.07422,-27.8437 -2.07422,-32.3437 0,-4.1133 3.58594,-4.1133 3.58594,0 3.58594,4.1836 0,4.0429 -1.9336,30.832 l -0.70312,8.7188 z m 0.87891,7.8398 q 1.30078,0 2.46093,0.7031 2.07422,1.336 2.07422,3.7617 0,1.6875 -1.23047,3.0235 -1.33593,1.4414 -3.23437,1.4414 -1.05469,0 -2.07422,-0.5625 -2.39063,-1.1953 -2.39063,-3.9024 0,-2.0039 1.58204,-3.375 1.19531,-1.0898 2.8125,-1.0898 z"
       style="font-style:normal;font-variant:normal;font-weight:bold;font-stretch:normal;font-family:TakaoMincho;-inkscape-font-specification:'TakaoMincho Bold';fill:#ffffff;stroke:#ffffff;stroke-width:3.75000024;stroke-miterlimit:4;stroke-dasharray:none;stroke-opacity:1"
       id="path195"
       inkscape:connector-curvature="0" />
    <path
       d="m 847.59533,1422.002 -0.5625,-7.2774 q -2.07422,-27.8437 -2.07422,-32.3437 0,-4.1133 3.58594,-4.1133 3.58594,0 3.58594,4.1836 0,4.0429 -1.9336,30.832 l -0.70312,8.7188 z m 0.87891,7.8398 q 1.30078,0 2.46093,0.7031 2.07422,1.336 2.07422,3.7617 0,1.6875 -1.23047,3.0235 -1.33593,1.4414 -3.23437,1.4414 -1.05469,0 -2.07422,-0.5625 -2.39063,-1.1953 -2.39063,-3.9024 0,-2.0039 1.58204,-3.375 1.19531,-1.0898 2.8125,-1.0898 z"
       style="font-style:normal;font-variant:normal;font-weight:bold;font-stretch:normal;font-family:TakaoMincho;-inkscape-font-specification:'TakaoMincho Bold';fill:#ffffff;stroke:#ffffff;stroke-width:3.75000024;stroke-miterlimit:4;stroke-dasharray:none;stroke-opacity:1"
       id="path197"
       inkscape:connector-curvature="0" />
    <path
       d="m 883.59533,1422.002 -0.5625,-7.2774 q -2.07422,-27.8437 -2.07422,-32.3437 0,-4.1133 3.58594,-4.1133 3.58594,0 3.58594,4.1836 0,4.0429 -1.9336,30.832 l -0.70312,8.7188 z m 0.87891,7.8398 q 1.30078,0 2.46093,0.7031 2.07422,1.336 2.07422,3.7617 0,1.6875 -1.23047,3.0235 -1.33593,1.4414 -3.23437,1.4414 -1.05469,0 -2.07422,-0.5625 -2.39063,-1.1953 -2.39063,-3.9024 0,-2.0039 1.58204,-3.375 1.19531,-1.0898 2.8125,-1.0898 z"
       style="font-style:normal;font-variant:normal;font-weight:bold;font-stretch:normal;font-family:TakaoMincho;-inkscape-font-specification:'TakaoMincho Bold';fill:#ffffff;stroke:#ffffff;stroke-width:3.75000024;stroke-miterlimit:4;stroke-dasharray:none;stroke-opacity:1"
       id="path199"
       inkscape:connector-curvature="0" />
    <path
       d="m 91.630486,1470.7988 h 1.792968 l 11.355466,44.7188 q 1.19532,4.6054 4.53516,5.0273 v 1.6524 H 96.306267 v -1.6524 q 4.324223,-0.3164 4.324223,-2.7422 0,-0.7031 -0.38672,-2.3554 l -2.882816,-12.0235 H 85.583611 l -3.09375,11.9532 q -0.386719,1.5468 -0.386719,2.2851 0,2.5664 4.394531,2.8828 v 1.6524 H 75.704704 v -1.6524 q 3.128907,-0.5625 4.324219,-5.2383 z m 0,9 -5.554688,21.6211 h 10.652344 z"
       style="font-style:normal;font-variant:normal;font-weight:bold;font-stretch:normal;font-family:TakaoMincho;-inkscape-font-specification:'TakaoMincho Bold';fill:#ffffff;stroke:#ffffff;stroke-width:3.75000024;stroke-miterlimit:4;stroke-dasharray:none;stroke-opacity:1"
       id="path201"
       inkscape:connector-curvature="0" />
    <path
       d="m 120.91564,1472.0996 h 15.25781 v 1.6524 q -3.6914,0.2109 -4.67578,1.5117 -0.70312,0.8437 -0.70312,3.2343 v 37.3008 q 0,3.2344 1.65234,4.0078 1.3711,0.6329 3.72656,0.7383 v 1.6524 h -15.25781 v -1.6524 q 3.72656,-0.2109 4.67578,-1.5117 0.73828,-0.8437 0.73828,-3.2344 v -37.3008 q 0,-3.2343 -1.6875,-4.0078 -1.33593,-0.6328 -3.72656,-0.7382 z"
       style="font-style:normal;font-variant:normal;font-weight:bold;font-stretch:normal;font-family:TakaoMincho;-inkscape-font-specification:'TakaoMincho Bold';fill:#ffffff;stroke:#ffffff;stroke-width:3.75000024;stroke-miterlimit:4;stroke-dasharray:none;stroke-opacity:1"
       id="path203"
       inkscape:connector-curvature="0" />
    <path
       d="m 158.21642,1473.9629 h 9.35157 l 2.74218,-3.375 q 4.07813,3.3398 4.07813,4.2891 0,0.5976 -0.70313,1.0898 l -1.4414,1.0195 v 44.5782 h -4.04297 v -5.168 h -11.07422 v 7.6992 h -4.04297 v -52.4531 q 1.89844,0.7031 5.13281,2.3203 z m -1.08984,1.793 v 17.789 h 11.07422 v -17.789 z m 11.07422,38.8476 v -19.2656 h -11.07422 v 19.2656 z m 26.4375,-35.2265 v 11.2148 h 13.11328 l 3.51562,-4.8867 q 2.98829,3.1992 4.46485,5.2383 l -0.70313,1.4414 h -41.13281 l -0.80859,-1.793 h 17.50781 V 1479.377 H 177.2008 l -0.94922,-1.793 h 14.34375 v -10.8633 q 6.99609,0.2109 6.99609,1.6523 0,0.9493 -2.95312,1.9336 v 7.2774 h 9.49219 l 3.48046,-4.6758 q 2.28516,2.3203 4.39454,5.0273 l -0.8086,1.4415 z m 9.70312,25.0312 v 20.6719 q 0,5.5547 -7.41797,5.5547 0,-1.9688 -1.72265,-2.7422 -1.86328,-0.7735 -8.05078,-1.7227 v -1.9336 q 6.46875,0.5625 10.47656,0.5625 2.67187,0 2.67187,-2.2148 v -18.1758 h -25.45312 l -0.80859,-1.793 h 26.26171 v -10.0898 q 6.57422,1.4062 6.57422,2.5312 0,0.7383 -2.53125,1.5118 v 6.0468 h 3.65625 l 3.0586,-4.7461 q 2.35547,2.6719 3.86718,5.0274 l -0.77343,1.5117 z m -23.55468,1.9688 q 10.61718,5.0625 10.61718,10.1953 0,2.7422 -2.46093,2.7422 -1.61719,0 -2.14454,-1.6524 -1.65234,-5.3789 -6.99609,-10.0547 z"
       style="font-style:normal;font-variant:normal;font-weight:bold;font-stretch:normal;font-family:TakaoMincho;-inkscape-font-specification:'TakaoMincho Bold';fill:#ffffff;stroke:#ffffff;stroke-width:3.75000024;stroke-miterlimit:4;stroke-dasharray:none;stroke-opacity:1"
       id="path205"
       inkscape:connector-curvature="0" />
    <path
       d="m 261.40002,1493.334 q 2.53125,12.0937 7.48828,19.3711 3.76172,5.5898 8.05078,8.6836 0.91406,0.7383 1.44141,0.7383 2.03906,0 3.51562,-14.5196 l 1.96875,0.9141 q -0.49219,6.539 -0.49219,10.1601 0,6.4336 2.84766,7.0664 -0.73828,3.586 -3.72656,3.586 -4.39453,0 -10.72266,-6.1172 -11.17969,-10.7227 -14.625,-29.3906 l -16.13672,1.8984 -1.01953,-1.793 16.80469,-2.039 q -1.3711,-8.4024 -1.3711,-19.3008 v -4.3945 q 7.06641,0.1054 7.06641,1.8984 0,0.8789 -2.74219,1.8633 v 0.9492 q 0,10.3711 1.26563,18.4922 l 16.59375,-1.9336 3.02344,-5.2031 q 0.35156,0.2812 0.70312,0.6679 2.32031,1.8282 4.53516,4.1485 l -0.5625,1.4414 z m -25.06641,-6.0469 q 3.69141,0.7383 3.69141,1.7227 0,0.8789 -2.88282,1.7226 v 40.5352 h -4.2539 v -37.5821 q -4.21875,7.5586 -10.01953,14.168 l -1.58203,-1.0547 q 12.23437,-17.4375 18.07031,-40.2539 6.85547,1.9336 6.85547,3.6563 0,0.9843 -3.23438,1.3008 -3.02344,8.3671 -6.64453,15.7851 z m 29.49609,-15.3281 q 5.58985,1.9336 8.71875,4.7461 2.67188,2.3554 2.67188,4.4648 0,2.8828 -2.67188,2.8828 -1.79296,0 -2.67187,-2.6015 -1.30078,-4.2188 -6.89063,-7.9805 z"
       style="font-style:normal;font-variant:normal;font-weight:bold;font-stretch:normal;font-family:TakaoMincho;-inkscape-font-specification:'TakaoMincho Bold';fill:#ffffff;stroke:#ffffff;stroke-width:3.75000024;stroke-miterlimit:4;stroke-dasharray:none;stroke-opacity:1"
       id="path207"
       inkscape:connector-curvature="0" />
    <path
       d="m 326.89611,1476.916 q 0.49219,2.707 0.49219,7.0664 0,12.0586 -8.57813,25.9102 -3.9375,6.2929 -9.14062,9.8789 -2.14453,1.3008 -3.72656,1.3008 -2.67188,0 -4.88672,-2.6719 -3.97266,-4.3945 -3.97266,-12.375 0,-12.3399 9.14063,-21.832 9.42187,-9.6329 22.32421,-9.6329 9.98438,0 16.83985,4.8165 10.01953,6.8906 10.01953,19.5117 0,13.3242 -9.63281,20.1445 -7.27735,5.168 -20.10938,5.9063 l -0.42187,-1.793 q 25.0664,-3.3399 25.0664,-24.1172 0,-10.5117 -6.92578,-16.6992 -6.11719,-5.4492 -14.97656,-5.4492 -0.94922,0 -1.51172,0.035 z m -17.4375,39.3047 q 0.21094,-0.1406 0.73828,-0.6328 5.20313,-4.8164 9.14063,-14.9063 3.51562,-9.0703 3.51562,-19.3007 0,-2.1094 -0.21094,-3.7266 -5.13281,1.3008 -9.5625,4.8867 -11.53125,8.9297 -11.53125,23.4844 0,6.75 2.67188,9.9492 1.26562,1.582 2.56641,1.582 1.16015,0 2.67187,-1.3359 z"
       style="font-style:normal;font-variant:normal;font-weight:bold;font-stretch:normal;font-family:TakaoMincho;-inkscape-font-specification:'TakaoMincho Bold';fill:#ffffff;stroke:#ffffff;stroke-width:3.75000024;stroke-miterlimit:4;stroke-dasharray:none;stroke-opacity:1"
       id="path209"
       inkscape:connector-curvature="0" />
    <path
       d="m 418.2672,1483.3145 q -1.82812,12.9023 -6.04687,22.1132 -6.57422,14.2032 -21.90234,23.7657 l -1.30079,-1.3711 q 20.91797,-15.0821 25.13672,-44.5078 h -5.48437 q -4.53516,20.3203 -20.63672,31.9218 l -1.23047,-1.3008 q 13.46484,-11.7773 17.71875,-30.621 h -5.83594 q -3.30468,7.9804 -9.38672,15.2578 l -1.51171,-0.9844 q 8.71875,-13.1484 11.17968,-31.043 6.60938,1.1953 6.60938,2.7422 0,0.8438 -2.74219,1.5117 -1.61719,6.3633 -3.44531,10.7227 h 23.55469 l 2.60156,-3.375 q 4.39453,3.4101 4.39453,4.6055 0,0.5625 -0.80859,0.9843 l -1.65235,0.9492 q -0.10547,31.6055 -3.51562,40.7813 -2.07422,5.4844 -8.85938,5.3789 0.10547,-2.1094 -2.39062,-3.0937 -2.00391,-0.8086 -7.5586,-1.8633 v -1.9336 q 5.94141,0.914 10.30078,0.914 3.97266,0 4.95704,-3.164 2.91796,-9.3867 3.02343,-38.3906 z m -36.21093,2.1093 v 17.1211 q 6.46875,-1.6875 11.0039,-3.164 l 0.31641,1.7929 q -7.06641,2.8477 -11.10938,4.3242 l -0.42187,0.211 v 25.5586 h -4.11328 v -24.1172 q -4.00781,1.3008 -7.76953,2.3906 -0.31641,2.5664 -1.23047,2.5664 -1.44141,0 -3.16406,-6.1875 6.39843,-0.9844 12.375,-2.3554 v -18.1407 h -5.76563 q -1.61719,8.7188 -4.74609,15.4688 l -1.65235,-0.6328 q 3.48047,-12.2696 3.58594,-29.3907 6.50391,0.3516 6.50391,1.8282 0,0.7734 -2.39063,1.6523 -0.35156,5.6953 -1.01953,9.2813 h 5.48438 v -16.9102 q 6.92578,0.1055 6.92578,1.6523 0,0.879 -2.8125,2.0743 v 13.1836 h 3.72656 l 3.12891,-4.6055 q 2.03906,2.25 3.86718,5.168 l -0.77343,1.2304 z"
       style="font-style:normal;font-variant:normal;font-weight:bold;font-stretch:normal;font-family:TakaoMincho;-inkscape-font-specification:'TakaoMincho Bold';fill:#ffffff;stroke:#ffffff;stroke-width:3.75000024;stroke-miterlimit:4;stroke-dasharray:none;stroke-opacity:1"
       id="path211"
       inkscape:connector-curvature="0" />
    <path
       d="m 469.03283,1471.4668 h 23.44922 l 2.8125,-3.375 q 4.35937,3.6562 4.35937,4.6758 0,0.4219 -0.59765,0.7734 l -1.79297,1.1602 v 28.7929 h -4.07813 v -2.8125 h -10.51172 v 12.0235 h 10.61719 l 3.44531,-4.3946 q 2.53125,2.2852 4.67579,4.9571 l -0.70313,1.2304 h -18.03516 v 12.4102 h 12.90235 l 3.6914,-4.7812 q 2.60157,2.4257 4.88672,5.1328 l -0.77343,1.4414 h -46.01954 l -0.73828,-1.793 h 21.83203 v -12.4102 h -15.99609 l -0.70312,-1.7929 h 16.69921 v -12.0235 h -9.98437 v 4.6055 h -4.04297 v -35.9648 q 0.17578,0.07 0.45703,0.2109 0.21094,0.1055 0.31641,0.1406 2.32031,1.0196 3.83203,1.793 z m 24.15234,15.2578 h -10.51172 v 12.1641 h 10.51172 z m 0,-1.793 v -11.6718 h -10.51172 v 11.6718 z m -14.73047,-11.6718 h -9.98437 v 11.6718 h 9.98437 z m -9.98437,25.6289 h 9.98437 v -12.1641 h -9.98437 z m -17.36719,-4.1836 v 16.9804 q 5.8711,-1.8632 10.61719,-3.7968 l 0.77344,1.7929 q -11.67188,5.9063 -20.39063,9 -0.3164,2.8829 -1.23047,2.8829 -1.51172,0 -3.58593,-6.1875 5.44921,-1.1602 9.80859,-2.461 v -18.2109 h -7.94531 l -0.5625,-1.793 h 8.50781 v -17.1562 h -8.50781 l -0.73828,-1.793 h 16.3125 l 3.44531,-4.4649 q 2.25,2.0391 4.53515,4.9571 l -0.73828,1.3008 h -10.30078 v 17.1562 h 2.74219 l 3.09375,-4.5351 q 1.89844,1.8984 4.11328,5.0273 l -0.70312,1.3008 z"
       style="font-style:normal;font-variant:normal;font-weight:bold;font-stretch:normal;font-family:TakaoMincho;-inkscape-font-specification:'TakaoMincho Bold';fill:#ffffff;stroke:#ffffff;stroke-width:3.75000024;stroke-miterlimit:4;stroke-dasharray:none;stroke-opacity:1"
       id="path213"
       inkscape:connector-curvature="0" />
    <path
       d="m 525.91564,1471.4668 q 8.85938,1.5117 13.53516,4.8867 3.23437,2.25 3.23437,5.168 0,3.0937 -2.8125,3.0937 -1.23047,0 -1.86328,-1.0898 -4.00781,-6.9961 -12.97265,-10.5469 z m -9.77344,13.6055 q 17.19141,3.0234 17.19141,10.4414 0,2.8828 -2.8125,2.8828 -1.26562,0 -2.67187,-2.0039 -4.11329,-6.0821 -12.51563,-9.8789 z m 6.46875,31.5351 q 2.00391,2.4258 3.86719,2.4258 4.85156,0 16.34766,-7.6992 16.91015,-11.3555 27.59765,-30.6563 l 1.58204,1.3008 q -12.69141,26.5781 -39.30469,40.711 -0.73828,0.457 -1.01953,0.5976 -0.87891,0.4922 -2.95313,1.3008 -0.94922,0.3516 -1.65234,0.3516 -2.98828,0 -5.76563,-7.2071 z"
       style="font-style:normal;font-variant:normal;font-weight:bold;font-stretch:normal;font-family:TakaoMincho;-inkscape-font-specification:'TakaoMincho Bold';fill:#ffffff;stroke:#ffffff;stroke-width:3.75000024;stroke-miterlimit:4;stroke-dasharray:none;stroke-opacity:1"
       id="path215"
       inkscape:connector-curvature="0" />
    <path
       d="m 621.96252,1515.3066 2.10937,-23.9765 q -11.67187,1.0898 -20.17969,2.5312 -1.30078,0.1407 -1.65234,0.1407 -3.86719,0 -6.46875,-5.2032 l 1.16016,-1.0547 q 2.63672,2.2149 7.91015,2.2149 16.38282,0 19.23047,-2.25 0.77344,-0.6328 1.51172,-0.6328 0.94922,0 2.53125,1.7929 1.65234,1.8985 1.65234,3.0235 0,0.6679 -0.80859,1.4414 -0.80859,0.7383 -1.125,3.0234 -0.87891,5.625 -2.25,18.0703 -0.0703,0.3868 -0.0703,0.7383 0.70312,-0.07 1.93359,-0.07 3.72656,-0.2109 6.39844,-1.2305 0.98437,-0.4218 1.89844,-0.4218 1.86328,0 3.9375,1.8632 1.08984,0.9844 1.08984,1.793 0,1.4414 -2.32031,1.4414 l -2.35547,-0.1406 q -3.86719,-0.2813 -10.65234,-0.2813 -12.58594,0 -26.78907,1.8633 l -2.32031,0.2813 q -0.35156,0.07 -0.70312,0.07 -4.32422,0 -7.20704,-5.6602 l 1.01954,-1.1601 q 3.1289,2.5664 10.19531,2.5664 6.11719,0 19.16015,-0.5625 z"
       style="font-style:normal;font-variant:normal;font-weight:bold;font-stretch:normal;font-family:TakaoMincho;-inkscape-font-specification:'TakaoMincho Bold';fill:#ffffff;stroke:#ffffff;stroke-width:3.75000024;stroke-miterlimit:4;stroke-dasharray:none;stroke-opacity:1"
       id="path217"
       inkscape:connector-curvature="0" />
    <path
       d="m 671.28674,1474.1738 q 4.14843,-0.1406 5.09765,-0.1406 13.85156,0 19.72266,3.3047 3.23437,1.8633 3.23437,4.1836 0,2.5312 -2.32031,2.5312 -0.52734,0 -1.93359,-0.8789 -9.35157,-6.0468 -24.39844,-7.2422 z m -1.44141,15.0821 q 13.88672,0.1054 22.32422,3.375 6.04687,2.25 6.04687,5.5898 0,2.7422 -2.39062,2.7422 -0.8086,0 -3.16406,-1.793 -7.69922,-6.1172 -23.34375,-8.2617 z m -3.41016,17.6836 q 20.21485,1.4062 32.0625,8.789 5.09766,3.1641 5.09766,6.4688 0,2.8828 -2.46094,2.8828 -1.05469,0 -2.95312,-1.8633 -11.63672,-11.2148 -32.23828,-14.5547 z"
       style="font-style:normal;font-variant:normal;font-weight:bold;font-stretch:normal;font-family:TakaoMincho;-inkscape-font-specification:'TakaoMincho Bold';fill:#ffffff;stroke:#ffffff;stroke-width:3.75000024;stroke-miterlimit:4;stroke-dasharray:none;stroke-opacity:1"
       id="path219"
       inkscape:connector-curvature="0" />
    <path
       d="m 786.03674,1488.3066 q -13.25391,17.9649 -37.30079,33.6797 -1.47656,0.8789 -2.49609,2.1446 -0.91406,1.0195 -1.44141,1.0195 -1.26562,0 -2.67187,-2.6016 -1.30078,-2.3554 -1.30078,-3.8672 0,-0.5273 0.35156,-1.3711 1.01953,-2.3554 1.01953,-18.1406 0,-19.2304 -0.66797,-21.7969 -0.63281,-2.7421 -3.72656,-3.6914 l 0.87891,-1.5117 q 8.7539,0.4219 8.7539,5.4141 0,0.7383 -0.28125,2.2851 -0.73828,4.4297 -1.30078,29.9532 l -0.14062,7.5586 q 21.44531,-9.5274 39.23437,-30.6563 z"
       style="font-style:normal;font-variant:normal;font-weight:bold;font-stretch:normal;font-family:TakaoMincho;-inkscape-font-specification:'TakaoMincho Bold';fill:#ffffff;stroke:#ffffff;stroke-width:3.75000024;stroke-miterlimit:4;stroke-dasharray:none;stroke-opacity:1"
       id="path221"
       inkscape:connector-curvature="0" />
    <path
       d="m 801.8922,1492.5605 q 2.91797,3.2344 10.01954,3.2344 33.15234,0 40.32421,-2.4609 1.16016,-0.4219 2.07422,-0.4219 2.03907,0 4.04297,1.582 2.00391,1.4766 2.00391,2.5313 0,1.793 -3.44531,1.793 -0.31641,0 -3.09375,-0.1407 -3.0586,-0.2109 -7.27735,-0.2109 -23.23828,0 -33.43359,1.5117 -3.02344,0.4219 -4.39453,0.4219 -5.51953,0 -8.1211,-6.9258 z"
       style="font-style:normal;font-variant:normal;font-weight:bold;font-stretch:normal;font-family:TakaoMincho;-inkscape-font-specification:'TakaoMincho Bold';fill:#ffffff;stroke:#ffffff;stroke-width:3.75000024;stroke-miterlimit:4;stroke-dasharray:none;stroke-opacity:1"
       id="path223"
       inkscape:connector-curvature="0" />
    <path
       d="m 885.91564,1471.4668 q 8.85938,1.5117 13.53516,4.8867 3.23437,2.25 3.23437,5.168 0,3.0937 -2.8125,3.0937 -1.23047,0 -1.86328,-1.0898 -4.00781,-6.9961 -12.97265,-10.5469 z m -9.77344,13.6055 q 17.19141,3.0234 17.19141,10.4414 0,2.8828 -2.8125,2.8828 -1.26562,0 -2.67187,-2.0039 -4.11329,-6.0821 -12.51563,-9.8789 z m 6.46875,31.5351 q 2.00391,2.4258 3.86719,2.4258 4.85156,0 16.34766,-7.6992 16.91015,-11.3555 27.59765,-30.6563 l 1.58204,1.3008 q -12.69141,26.5781 -39.30469,40.711 -0.73828,0.457 -1.01953,0.5976 -0.87891,0.4922 -2.95313,1.3008 -0.94922,0.3516 -1.65234,0.3516 -2.98828,0 -5.76563,-7.2071 z"
       style="font-style:normal;font-variant:normal;font-weight:bold;font-stretch:normal;font-family:TakaoMincho;-inkscape-font-specification:'TakaoMincho Bold';fill:#ffffff;stroke:#ffffff;stroke-width:3.75000024;stroke-miterlimit:4;stroke-dasharray:none;stroke-opacity:1"
       id="path225"
       inkscape:connector-curvature="0" />
    <path
       d="m 985.8297,1517.6973 0.8086,-15.1524 q -10.01953,1.2656 -16.41797,2.25 -2.42578,0.3164 -2.67188,0.4219 -1.01953,0.1406 -1.30078,0.1406 -3.72656,0 -6.1875,-4.3945 l 0.94922,-1.1953 q 1.82813,1.6875 5.44922,1.6875 3.72656,0 19.72266,-1.1953 l 0.24609,-0.07 h 0.35156 l 0.63282,-11.8125 q -17.33204,1.8632 -22.53516,2.8125 -1.05469,0.2109 -1.79297,0.2109 -4.00781,0 -6.25781,-4.957 l 1.08984,-1.1602 q 2.25,2.1445 6.67969,2.1445 19.72266,0 23.09766,-2.5312 0.98437,-0.6328 1.51171,-0.6328 1.01954,0 2.60157,2.2148 1.30078,1.8633 1.30078,2.9883 0,0.7734 -0.87891,1.4414 -0.80859,0.7031 -1.125,2.7773 -0.17578,1.2305 -1.4414,17.7891 l -0.14063,1.3008 -0.21094,2.8828 q 3.375,1.1953 3.375,2.8125 0,1.5469 -6.46875,1.8633 -9.84375,0.3515 -22.04297,2.1797 -1.40625,0.2109 -2.25,0.2109 -3.76171,0 -6.46875,-5.3437 l 0.94922,-1.3008 q 2.91797,2.6015 8.26172,2.6015 6.67969,0 21.16406,-0.9843 z"
       style="font-style:normal;font-variant:normal;font-weight:bold;font-stretch:normal;font-family:TakaoMincho;-inkscape-font-specification:'TakaoMincho Bold';fill:#ffffff;stroke:#ffffff;stroke-width:3.75000024;stroke-miterlimit:4;stroke-dasharray:none;stroke-opacity:1"
       id="path227"
       inkscape:connector-curvature="0" />
    <path
       d="m 1023.5172,1473.752 q 9.7383,2.9179 13.957,6.9257 3.3047,3.0938 3.3047,6.0469 0,3.7266 -2.8828,3.7266 -1.1953,0 -2.9531,-2.9532 -4.5,-8.0859 -12.375,-12.375 z m 2.2852,41.8359 q 1.8632,2.7422 3.7617,2.7422 5.4492,0 18.4219,-9.0703 14.9414,-10.4414 25.7695,-27.668 l 1.5117,1.4414 q -11.1094,20.6016 -29.0742,32.8359 -12.4805,8.3672 -16.0664,8.3672 -3.3047,0 -5.6953,-7.4883 z"
       style="font-style:normal;font-variant:normal;font-weight:bold;font-stretch:normal;font-family:TakaoMincho;-inkscape-font-specification:'TakaoMincho Bold';fill:#ffffff;stroke:#ffffff;stroke-width:3.75000024;stroke-miterlimit:4;stroke-dasharray:none;stroke-opacity:1"
       id="path229"
       inkscape:connector-curvature="0" />
    <path
       d="m 90.493864,1561.1926 q 2.95313,2.2852 7.98047,2.2852 12.374996,0 17.578126,-2.4258 0.91406,-0.4922 1.96875,-0.4922 1.51171,0 3.44531,1.5117 1.65234,1.3008 1.65234,2.2149 0,1.5117 -2.21484,1.5117 -0.45703,0 -0.73828,-0.07 -0.94922,-0.07 -4.11328,-0.07 -9.59766,0 -17.261716,1.5117 -1.26563,0.2812 -2.39063,0.2812 -4.2539,0 -7.0664,-5.1679 z m -6.25781,15.9258 q 2.67187,2.3555 8.92969,2.3555 16.804676,0 27.070306,-1.582 2.60156,-0.4219 4.21875,-1.5118 0.94922,-0.5625 1.44141,-0.5625 1.19531,0 2.60156,2.1446 1.4414,2.3554 1.4414,3.832 0,0.9141 -1.16015,1.4414 -1.33594,0.7383 -3.16406,4.4648 -6.1875,12.5508 -14.09766,18.7735 -8.54297,6.7148 -20.109376,10.582 l -0.98437,-1.582 q 13.324216,-5.625 21.726556,-14.836 7.03125,-7.664 11.03906,-20.3554 l -9.14062,0.914 q -17.437496,1.8282 -21.128906,2.5313 -1.40625,0.2812 -2.63672,0.2812 -4.57031,0 -7.0664,-5.7656 z"
       style="font-style:normal;font-variant:normal;font-weight:bold;font-stretch:normal;font-family:TakaoMincho;-inkscape-font-specification:'TakaoMincho Bold';fill:#ffffff;stroke:#ffffff;stroke-width:3.75000024;stroke-miterlimit:4;stroke-dasharray:none;stroke-opacity:1"
       id="path231"
       inkscape:connector-curvature="0" />
    <path
       d="m 186.27111,1578.7285 v 8.1563 q 0,16.1718 0.63281,24.75 0.0703,0.7734 0.0703,1.8632 0,3.0235 -1.44141,4.6758 -1.01953,1.1602 -2.14453,1.1602 -2.07422,0 -2.07422,-3.0938 0,-0.9492 0.0703,-1.582 0.91406,-12.2344 0.91406,-33.2578 -12.1289,7.6992 -28.58203,12.6562 l -0.91406,-1.5117 q 20.56641,-7.4531 34.24219,-19.6523 8.4375,-7.4531 8.4375,-9.8438 0,-1.2656 -1.9336,-2.6718 l 1.08985,-1.2305 q 7.6289,2.039 7.6289,5.0273 0,0.9141 -1.93359,2.9532 -5.73047,5.9414 -14.0625,11.6015 z"
       style="font-style:normal;font-variant:normal;font-weight:bold;font-stretch:normal;font-family:TakaoMincho;-inkscape-font-specification:'TakaoMincho Bold';fill:#ffffff;stroke:#ffffff;stroke-width:3.75000024;stroke-miterlimit:4;stroke-dasharray:none;stroke-opacity:1"
       id="path233"
       inkscape:connector-curvature="0" />
    <path
       d="m 274.86486,1557.6348 q 8.92969,2.9179 8.92969,7.4882 0,2.6016 -2.25,2.6016 -1.65235,0 -2.4961,-2.1797 -1.51171,-3.9023 -5.0625,-6.6094 z m 6.32813,-4.1836 q 8.85937,2.707 8.85937,7.207 0,2.4609 -2.25,2.4609 -1.51172,0 -2.49609,-2.3203 -1.54688,-3.6562 -4.95703,-6.1172 z m -49.81641,13.1836 q 2.67187,2.6718 7.69922,2.6718 15.82031,0 29.88281,-1.7929 0.14063,-0.07 0.5625,-0.07 1.79297,-0.211 3.48047,-1.4766 0.80859,-0.5625 1.37109,-0.5625 1.51172,0 3.86719,3.9023 1.08984,1.8282 1.08984,2.8829 0,0.8437 -1.23046,1.5117 -0.98438,0.5273 -1.9336,3.0937 -5.55469,14.3789 -14.41406,23.9063 -8.71875,9.2461 -23.90625,15.4687 l -1.16016,-1.582 q 15.82032,-7.8399 24.4336,-19.5117 7.83984,-10.7578 11.49609,-25.1367 -25.45312,2.496 -32.97656,3.9023 -0.94922,0.2109 -1.86328,0.2109 -5.20313,0 -7.69922,-6.4687 z"
       style="font-style:normal;font-variant:normal;font-weight:bold;font-stretch:normal;font-family:TakaoMincho;-inkscape-font-specification:'TakaoMincho Bold';fill:#ffffff;stroke:#ffffff;stroke-width:3.75000024;stroke-miterlimit:4;stroke-dasharray:none;stroke-opacity:1"
       id="path235"
       inkscape:connector-curvature="0" />
    <path
       d="m 309.63439,1562.2402 q 2.95313,2.2852 7.98047,2.2852 12.375,0 17.57813,-2.4258 0.91406,-0.4922 1.96875,-0.4922 1.51171,0 3.44531,1.5117 1.65234,1.3008 1.65234,2.2149 0,1.5117 -2.21484,1.5117 -0.45703,0 -0.73828,-0.07 -0.94922,-0.07 -4.11328,-0.07 -9.59766,0 -17.26172,1.5117 -1.26563,0.2812 -2.39063,0.2812 -4.2539,0 -7.0664,-5.1679 z m -6.25781,15.9258 q 2.67187,2.3555 8.92969,2.3555 16.80468,0 27.07031,-1.582 2.60156,-0.4219 4.21875,-1.5118 0.94922,-0.5625 1.44141,-0.5625 1.19531,0 2.60156,2.1446 1.4414,2.3554 1.4414,3.832 0,0.9141 -1.16015,1.4414 -1.33594,0.7383 -3.16406,4.4648 -6.1875,12.5508 -14.09766,18.7735 -8.54297,6.7148 -20.10938,10.582 l -0.98437,-1.582 q 13.32422,-5.625 21.72656,-14.836 7.03125,-7.664 11.03906,-20.3554 l -9.14062,0.914 q -17.4375,1.8282 -21.12891,2.5313 -1.40625,0.2812 -2.63672,0.2812 -4.57031,0 -7.0664,-5.7656 z"
       style="font-style:normal;font-variant:normal;font-weight:bold;font-stretch:normal;font-family:TakaoMincho;-inkscape-font-specification:'TakaoMincho Bold';fill:#ffffff;stroke:#ffffff;stroke-width:3.75000024;stroke-miterlimit:4;stroke-dasharray:none;stroke-opacity:1"
       id="path237"
       inkscape:connector-curvature="0" />
    <path
       d="m 380.33361,1563.3301 q 8.19141,0.5273 8.19141,5.0273 0,0.1406 -0.0352,0.4922 -0.0703,0.4922 -0.10547,0.7383 -0.66797,5.168 -0.66797,9.8789 0,3.9375 0.38672,11.3203 0.0703,0.7734 0.0703,1.6524 0,4.957 -3.09375,4.957 -2.46093,0 -2.46093,-3.6914 0,-0.1758 0.14062,-1.5821 0.91406,-6.7148 0.91406,-19.1601 0,-4.4649 -0.77343,-5.8359 -1.01953,-1.5821 -3.375,-2.2852 z m 6.04688,53.7187 q 15.01171,-7.0312 19.86328,-18.1406 2.8125,-6.3984 2.8125,-16.4883 v -13.2539 q 0,-4.3945 -1.01953,-6.1875 -0.91407,-1.5117 -3.9375,-2.3203 l 0.63281,-1.6523 q 5.73047,0.1054 7.48828,1.6523 1.58203,1.3711 1.58203,7.6992 v 14.2031 q 0,12.5157 -4.95703,20.4961 -6.25781,9.9493 -21.375,15.5743 z"
       style="font-style:normal;font-variant:normal;font-weight:bold;font-stretch:normal;font-family:TakaoMincho;-inkscape-font-specification:'TakaoMincho Bold';fill:#ffffff;stroke:#ffffff;stroke-width:3.75000024;stroke-miterlimit:4;stroke-dasharray:none;stroke-opacity:1"
       id="path239"
       inkscape:connector-curvature="0" />
  </g>
  <g
     id="g264"
     transform="matrix(0.90746534,0,0,0.90746534,44.583946,101.3642)">
    <g
       transform="matrix(7.5000002,0,0,7.5000002,360.35203,457.48566)"
       id="g206">
      <path
         inkscape:connector-curvature="0"
         style="opacity:0.05"
         d="m 36.31,5 c 5.859,4.062 9.688,10.831 9.688,18.5 0,12.426 -10.07,22.5 -22.5,22.5 -7.669,0 -14.438,-3.828 -18.5,-9.688 1.037,1.822 2.306,3.499 3.781,4.969 4.085,3.712 9.514,5.969 15.469,5.969 12.703,0 23,-10.298 23,-23 0,-5.954 -2.256,-11.384 -5.969,-15.469 C 39.81,7.306 38.132,6.037 36.31,5 Z m 4.969,3.781 c 3.854,4.113 6.219,9.637 6.219,15.719 0,12.703 -10.297,23 -23,23 -6.081,0 -11.606,-2.364 -15.719,-6.219 4.16,4.144 9.883,6.719 16.219,6.719 12.703,0 23,-10.298 23,-23 0,-6.335 -2.575,-12.06 -6.719,-16.219 z"
         id="path164" />
      <path
         inkscape:connector-curvature="0"
         style="opacity:0.1"
         d="m 41.28,8.781 c 3.712,4.085 5.969,9.514 5.969,15.469 0,12.703 -10.297,23 -23,23 -5.954,0 -11.384,-2.256 -15.469,-5.969 4.113,3.854 9.637,6.219 15.719,6.219 12.703,0 23,-10.298 23,-23 0,-6.081 -2.364,-11.606 -6.219,-15.719 z"
         id="path166" />
      <path
         inkscape:connector-curvature="0"
         style="opacity:0.2"
         d="M 31.25,2.375 C 39.865,5.529 46,13.792 46,23.505 c 0,12.426 -10.07,22.5 -22.5,22.5 -9.708,0 -17.971,-6.135 -21.12,-14.75 a 23,23 0 0 0 44.875,-7 23,23 0 0 0 -16,-21.875 z"
         id="path168" />
      <path
         inkscape:connector-curvature="0"
         style="fill:url(#linearGradient3764-4)"
         d="M 24,1 C 36.703,1 47,11.297 47,24 47,36.703 36.703,47 24,47 11.297,47 1,36.703 1,24 1,11.297 11.297,1 24,1 Z"
         id="path170" />
      <g
         transform="translate(1,1)"
         id="g172" />
      <path
         inkscape:connector-curvature="0"
         style="opacity:0.1"
         d="m 40.03,7.531 c 3.712,4.084 5.969,9.514 5.969,15.469 0,12.703 -10.297,23 -23,23 C 17.045,46 11.615,43.744 7.53,40.031 11.708,44.322 17.54,47 23.999,47 c 12.703,0 23,-10.298 23,-23 0,-6.462 -2.677,-12.291 -6.969,-16.469 z"
         id="path174" />
      <path
         inkscape:connector-curvature="0"
         style="opacity:0.1"
         d="m 25,12 c -4,0 -6,1 -6,2.75 V 18 h 6 v 1 H 15.75 C 13.811,19 12,21 12,25 c 0,4 1.811,6 3.75,6 H 18 v -3.5 c 0,-1.662 1.338,-3 3,-3 h 7 c 1.662,0 3,-1.338 3,-3 V 14.75 C 31,13 29,12 25,12 Z m 6.9961,7 v 3.5 c 0,1.662 -1.338,3 -3,3 h -7 c -1.662,0 -3,1.338 -3,3 v 6.75 c 0,1.75 2,2.75 6,2.75 4,0 6,-1 6,-2.75 V 32 h -6 v -1 h 9.25 c 1.939,0 3.754,-2 3.754,-6 0,-4 -1.815,-6 -3.754,-6 z"
         id="path176" />
      <path
         inkscape:connector-curvature="0"
         style="fill:#4085b0"
         d="m 24,11 c -4,0 -6,1 -6,2.75 V 17 h 6 v 1 H 14.75 C 12.811,18 11,20 11,24 c 0,4 1.811,6 3.75,6 H 17 v -3.5 c 0,-1.662 1.338,-3 3,-3 h 7 c 1.662,0 3,-1.338 3,-3 V 13.75 C 30,12 28,11 24,11 Z"
         id="path178" />
      <path
         inkscape:connector-curvature="0"
         style="fill:#f9f747"
         d="m 23.997,37 c 4,0 6,-1 6,-2.75 V 31 h -6 v -1 h 9.2495 c 1.939,0 3.753,-2 3.753,-6 0,-4 -1.814,-6 -3.753,-6 h -2.249 v 3.5 c 0,1.662 -1.338,3 -3,3 h -7 c -1.662,0 -3,1.338 -3,3 v 6.75 c 0,1.75 2,2.75 6,2.75 z"
         id="path180" />
      <circle
         cy="14"
         cx="21"
         r="1"
         style="fill:#f9f9f9"
         id="circle182" />
      <circle
         cy="34"
         cx="27"
         r="1"
         style="fill:#f9f9f9"
         id="circle184" />
    </g>
    <g
       transform="matrix(7.5000002,0,0,7.5000002,79.113729,890.90026)"
       id="g377">
      <g
         id="g290">
        <path
           inkscape:connector-curvature="0"
           d="m 36.31,5 c 5.859,4.062 9.688,10.831 9.688,18.5 0,12.426 -10.07,22.5 -22.5,22.5 -7.669,0 -14.438,-3.828 -18.5,-9.688 1.037,1.822 2.306,3.499 3.781,4.969 4.085,3.712 9.514,5.969 15.469,5.969 12.703,0 23,-10.298 23,-23 0,-5.954 -2.256,-11.384 -5.969,-15.469 C 39.81,7.306 38.132,6.037 36.31,5 Z m 4.969,3.781 c 3.854,4.113 6.219,9.637 6.219,15.719 0,12.703 -10.297,23 -23,23 -6.081,0 -11.606,-2.364 -15.719,-6.219 4.16,4.144 9.883,6.719 16.219,6.719 12.703,0 23,-10.298 23,-23 0,-6.335 -2.575,-12.06 -6.719,-16.219 z"
           style="opacity:0.05"
           id="path284" />
        <path
           inkscape:connector-curvature="0"
           d="m 41.28,8.781 c 3.712,4.085 5.969,9.514 5.969,15.469 0,12.703 -10.297,23 -23,23 -5.954,0 -11.384,-2.256 -15.469,-5.969 4.113,3.854 9.637,6.219 15.719,6.219 12.703,0 23,-10.298 23,-23 0,-6.081 -2.364,-11.606 -6.219,-15.719 z"
           style="opacity:0.1"
           id="path286" />
        <path
           inkscape:connector-curvature="0"
           d="M 31.25,2.375 C 39.865,5.529 46,13.792 46,23.505 c 0,12.426 -10.07,22.5 -22.5,22.5 -9.708,0 -17.971,-6.135 -21.12,-14.75 a 23,23 0 0 0 44.875,-7 23,23 0 0 0 -16,-21.875 z"
           style="opacity:0.2"
           id="path288" />
      </g>
      <g
         id="g294">
        <path
           inkscape:connector-curvature="0"
           d="M 24,1 C 36.703,1 47,11.297 47,24 47,36.703 36.703,47 24,47 11.297,47 1,36.703 1,24 1,11.297 11.297,1 24,1 Z"
           style="fill:url(#linearGradient3764-5-2);fill-opacity:1"
           id="path292" />
      </g>
      <g
         id="g298">
        <path
           inkscape:connector-curvature="0"
           d="m 40.03,7.531 c 3.712,4.084 5.969,9.514 5.969,15.469 0,12.703 -10.297,23 -23,23 C 17.045,46 11.615,43.744 7.53,40.031 11.708,44.322 17.54,47 23.999,47 c 12.703,0 23,-10.298 23,-23 0,-6.462 -2.677,-12.291 -6.969,-16.469 z"
           style="opacity:0.1"
           id="path296" />
      </g>
      <g
         transform="translate(-5.7944709e-7,0.99999965)"
         style="opacity:0.1;fill:#000000"
         id="g318">
        <path
           inkscape:connector-curvature="0"
           d="m -35.797,18 c 0,2.64 -2.413,4.78 -5.39,4.78 -2.977,0 -5.39,-2.14 -5.39,-4.78 0,-2.64 2.413,-4.78 5.39,-4.78 2.977,0 5.39,2.14 5.39,4.78 z"
           transform="matrix(0.46383647,0,0,0.52304963,46.603773,4.0851067)"
           style="fill-opacity:1;fill-rule:nonzero;stroke:none"
           id="path300" />
        <path
           inkscape:connector-curvature="0"
           transform="matrix(0.46383647,0,0,0.52304963,39.603773,10.085107)"
           d="m -35.797,18 c 0,2.64 -2.413,4.78 -5.39,4.78 -2.977,0 -5.39,-2.14 -5.39,-4.78 0,-2.64 2.413,-4.78 5.39,-4.78 2.977,0 5.39,2.14 5.39,4.78 z"
           style="fill-opacity:1;fill-rule:nonzero;stroke:none"
           id="path302" />
        <path
           inkscape:connector-curvature="0"
           d="m -35.797,18 c 0,2.64 -2.413,4.78 -5.39,4.78 -2.977,0 -5.39,-2.14 -5.39,-4.78 0,-2.64 2.413,-4.78 5.39,-4.78 2.977,0 5.39,2.14 5.39,4.78 z"
           transform="matrix(0.46383647,0,0,0.52304963,33.603773,16.085107)"
           style="fill-opacity:1;fill-rule:nonzero;stroke:none"
           id="path304" />
        <path
           inkscape:connector-curvature="0"
           transform="matrix(0.46383647,0,0,0.52304963,42.603773,16.085107)"
           d="m -35.797,18 c 0,2.64 -2.413,4.78 -5.39,4.78 -2.977,0 -5.39,-2.14 -5.39,-4.78 0,-2.64 2.413,-4.78 5.39,-4.78 2.977,0 5.39,2.14 5.39,4.78 z"
           style="fill-opacity:1;fill-rule:nonzero;stroke:none"
           id="path306" />
        <path
           inkscape:connector-curvature="0"
           d="m -35.797,18 c 0,2.64 -2.413,4.78 -5.39,4.78 -2.977,0 -5.39,-2.14 -5.39,-4.78 0,-2.64 2.413,-4.78 5.39,-4.78 2.977,0 5.39,2.14 5.39,4.78 z"
           transform="matrix(0.46383647,0,0,0.52304963,49.603773,10.085107)"
           style="fill-opacity:1;fill-rule:nonzero;stroke:none"
           id="path308" />
        <path
           inkscape:connector-curvature="0"
           transform="matrix(0.46383647,0,0,0.52304963,51.603773,16.085107)"
           d="m -35.797,18 c 0,2.64 -2.413,4.78 -5.39,4.78 -2.977,0 -5.39,-2.14 -5.39,-4.78 0,-2.64 2.413,-4.78 5.39,-4.78 2.977,0 5.39,2.14 5.39,4.78 z"
           style="fill-opacity:1;fill-rule:nonzero;stroke:none"
           id="path310" />
        <path
           inkscape:connector-curvature="0"
           d="m -35.797,18 c 0,2.64 -2.413,4.78 -5.39,4.78 -2.977,0 -5.39,-2.14 -5.39,-4.78 0,-2.64 2.413,-4.78 5.39,-4.78 2.977,0 5.39,2.14 5.39,4.78 z"
           transform="matrix(0.46383647,0,0,0.52304963,53.603773,22.085107)"
           style="fill-opacity:1;fill-rule:nonzero;stroke:none"
           id="path312" />
        <path
           inkscape:connector-curvature="0"
           d="m -35.797,18 c 0,2.64 -2.413,4.78 -5.39,4.78 -2.977,0 -5.39,-2.14 -5.39,-4.78 0,-2.64 2.413,-4.78 5.39,-4.78 2.977,0 5.39,2.14 5.39,4.78 z"
           transform="matrix(0.46383647,0,0,0.52304963,44.603773,22.085107)"
           style="fill-opacity:1;fill-rule:nonzero;stroke:none"
           id="path314" />
        <path
           inkscape:connector-curvature="0"
           transform="matrix(0.46383647,0,0,0.52304963,36.603773,22.085107)"
           d="m -35.797,18 c 0,2.64 -2.413,4.78 -5.39,4.78 -2.977,0 -5.39,-2.14 -5.39,-4.78 0,-2.64 2.413,-4.78 5.39,-4.78 2.977,0 5.39,2.14 5.39,4.78 z"
           style="fill-opacity:1;fill-rule:nonzero;stroke:none"
           id="path316" />
      </g>
      <g
         transform="translate(-1.0000003)"
         id="g338">
        <path
           inkscape:connector-curvature="0"
           transform="matrix(0.46383647,0,0,0.52304963,46.603773,4.0851067)"
           d="m -35.797,18 c 0,2.64 -2.413,4.78 -5.39,4.78 -2.977,0 -5.39,-2.14 -5.39,-4.78 0,-2.64 2.413,-4.78 5.39,-4.78 2.977,0 5.39,2.14 5.39,4.78 z"
           style="fill:#ff2a2a;fill-opacity:1;fill-rule:nonzero;stroke:none"
           id="path320" />
        <path
           inkscape:connector-curvature="0"
           d="m -35.797,18 c 0,2.64 -2.413,4.78 -5.39,4.78 -2.977,0 -5.39,-2.14 -5.39,-4.78 0,-2.64 2.413,-4.78 5.39,-4.78 2.977,0 5.39,2.14 5.39,4.78 z"
           transform="matrix(0.46383647,0,0,0.52304963,39.603773,10.085107)"
           style="fill:#ff2a2a;fill-opacity:1;fill-rule:nonzero;stroke:none"
           id="path322" />
        <path
           inkscape:connector-curvature="0"
           transform="matrix(0.46383647,0,0,0.52304963,33.603773,16.085107)"
           d="m -35.797,18 c 0,2.64 -2.413,4.78 -5.39,4.78 -2.977,0 -5.39,-2.14 -5.39,-4.78 0,-2.64 2.413,-4.78 5.39,-4.78 2.977,0 5.39,2.14 5.39,4.78 z"
           style="fill:#d40000;fill-opacity:1;fill-rule:nonzero;stroke:none"
           id="path324" />
        <path
           inkscape:connector-curvature="0"
           d="m -35.797,18 c 0,2.64 -2.413,4.78 -5.39,4.78 -2.977,0 -5.39,-2.14 -5.39,-4.78 0,-2.64 2.413,-4.78 5.39,-4.78 2.977,0 5.39,2.14 5.39,4.78 z"
           transform="matrix(0.46383647,0,0,0.52304963,42.603773,16.085107)"
           style="fill:#ff5555;fill-opacity:1;fill-rule:nonzero;stroke:none"
           id="path326" />
        <path
           inkscape:connector-curvature="0"
           transform="matrix(0.46383647,0,0,0.52304963,49.603773,10.085107)"
           d="m -35.797,18 c 0,2.64 -2.413,4.78 -5.39,4.78 -2.977,0 -5.39,-2.14 -5.39,-4.78 0,-2.64 2.413,-4.78 5.39,-4.78 2.977,0 5.39,2.14 5.39,4.78 z"
           style="fill:#ff5555;fill-opacity:1;fill-rule:nonzero;stroke:none"
           id="path328" />
        <path
           inkscape:connector-curvature="0"
           d="m -35.797,18 c 0,2.64 -2.413,4.78 -5.39,4.78 -2.977,0 -5.39,-2.14 -5.39,-4.78 0,-2.64 2.413,-4.78 5.39,-4.78 2.977,0 5.39,2.14 5.39,4.78 z"
           transform="matrix(0.46383647,0,0,0.52304963,51.603773,16.085107)"
           style="fill:#ffaaaa;fill-opacity:1;fill-rule:nonzero;stroke:none"
           id="path330" />
        <path
           inkscape:connector-curvature="0"
           transform="matrix(0.46383647,0,0,0.52304963,53.603773,22.085107)"
           d="m -35.797,18 c 0,2.64 -2.413,4.78 -5.39,4.78 -2.977,0 -5.39,-2.14 -5.39,-4.78 0,-2.64 2.413,-4.78 5.39,-4.78 2.977,0 5.39,2.14 5.39,4.78 z"
           style="fill:#f9f9f9;fill-opacity:1;fill-rule:nonzero;stroke:none"
           id="path332" />
        <path
           inkscape:connector-curvature="0"
           transform="matrix(0.46383647,0,0,0.52304963,44.603773,22.085107)"
           d="m -35.797,18 c 0,2.64 -2.413,4.78 -5.39,4.78 -2.977,0 -5.39,-2.14 -5.39,-4.78 0,-2.64 2.413,-4.78 5.39,-4.78 2.977,0 5.39,2.14 5.39,4.78 z"
           style="fill:#ffaaaa;fill-opacity:1;fill-rule:nonzero;stroke:none"
           id="path334" />
        <path
           inkscape:connector-curvature="0"
           d="m -35.797,18 c 0,2.64 -2.413,4.78 -5.39,4.78 -2.977,0 -5.39,-2.14 -5.39,-4.78 0,-2.64 2.413,-4.78 5.39,-4.78 2.977,0 5.39,2.14 5.39,4.78 z"
           transform="matrix(0.46383647,0,0,0.52304963,36.603773,22.085107)"
           style="fill:#d40000;fill-opacity:1;fill-rule:nonzero;stroke:none"
           id="path336" />
      </g>
    </g>
    <g
       transform="matrix(7.8048453,0,0,7.4052935,808.18283,856.96436)"
       id="g483">
      <g
         id="g435">
        <path
           inkscape:connector-curvature="0"
           d="m 36.31,5 c 5.859,4.062 9.688,10.831 9.688,18.5 0,12.426 -10.07,22.5 -22.5,22.5 -7.669,0 -14.438,-3.828 -18.5,-9.688 1.037,1.822 2.306,3.499 3.781,4.969 4.085,3.712 9.514,5.969 15.469,5.969 12.703,0 23,-10.298 23,-23 0,-5.954 -2.256,-11.384 -5.969,-15.469 C 39.81,7.306 38.132,6.037 36.31,5 Z m 4.969,3.781 c 3.854,4.113 6.219,9.637 6.219,15.719 0,12.703 -10.297,23 -23,23 -6.081,0 -11.606,-2.364 -15.719,-6.219 4.16,4.144 9.883,6.719 16.219,6.719 12.703,0 23,-10.298 23,-23 0,-6.335 -2.575,-12.06 -6.719,-16.219 z"
           style="opacity:0.05"
           id="path429" />
        <path
           inkscape:connector-curvature="0"
           d="m 41.28,8.781 c 3.712,4.085 5.969,9.514 5.969,15.469 0,12.703 -10.297,23 -23,23 -5.954,0 -11.384,-2.256 -15.469,-5.969 4.113,3.854 9.637,6.219 15.719,6.219 12.703,0 23,-10.298 23,-23 0,-6.081 -2.364,-11.606 -6.219,-15.719 z"
           style="opacity:0.1"
           id="path431" />
        <path
           inkscape:connector-curvature="0"
           d="M 31.25,2.375 C 39.865,5.529 46,13.792 46,23.505 c 0,12.426 -10.07,22.5 -22.5,22.5 -9.708,0 -17.971,-6.135 -21.12,-14.75 a 23,23 0 0 0 44.875,-7 23,23 0 0 0 -16,-21.875 z"
           style="opacity:0.2"
           id="path433" />
      </g>
      <path
         inkscape:connector-curvature="0"
         d="M 47,24 C 47,36.703 36.703,47 24,47 11.297,47 1,36.703 1,24 1,11.297 11.297,1 24,1 36.703,1 47,11.297 47,24 Z"
         style="fill:url(#linearGradient4325-0);fill-opacity:1"
         id="path437" />
      <g
         id="g449">
        <g
           id="g447">
          <g
             transform="translate(1,1)"
             id="g445">
            <g
               style="opacity:0.1"
               id="g443">
              <!-- color: #d8466e -->
              <g
                 id="g441">
                <path
                   inkscape:connector-curvature="0"
                   d="m 29.23,12.06 c -0.426,0.34 -1.68,2.719 -2.934,5.555 -0.508,1.156 -1.227,2.668 -1.59,3.363 -1.078,2.059 -3.711,5.805 -4.93,7 l -1.137,1.125 0.848,0.926 c 0.52,0.57 1.207,1.754 1.777,3.078 1.082,2.523 1.27,2.887 1.477,2.887 0.098,0 0.652,-0.313 1.27,-0.707 1.379,-0.895 2.668,-2.098 4.422,-4.145 2.738,-3.191 4.793,-3.867 7.324,-2.402 0.684,0.398 1.246,0.648 1.246,0.555 0,-0.098 -0.348,-1.059 -0.766,-2.141 -0.418,-1.082 -1.559,-4.137 -2.527,-6.789 -0.691,-1.164 -2.949,-9.117 -4.48,-8.297 m -5.457,6.527 c -0.012,0 -0.027,0 -0.043,0.008 -2.316,1.039 -3.152,1.512 -3.836,2.172 -0.449,0.441 -0.816,0.91 -0.816,1.047 0,0.426 1.824,1.563 2.125,1.324 0.145,-0.117 0.715,-0.953 1.266,-1.863 0.973,-1.621 1.477,-2.664 1.305,-2.688 m -6.484,4.59 c -0.395,0 -5.992,2.168 -6.258,2.426 -0.078,0.074 0.004,0.211 0.184,0.313 0.18,0.105 1.203,0.805 2.289,1.559 1.082,0.754 2.023,1.367 2.09,1.371 0.066,0 0.563,-0.266 1.094,-0.594 1.117,-0.688 3.273,-2.816 3.262,-3.223 -0.008,-0.363 -2.156,-1.855 -2.664,-1.855 m 0.004,0.004"
                   style="fill:#000000;fill-opacity:1;fill-rule:nonzero;stroke:none"
                   id="path439" />
              </g>
            </g>
          </g>
        </g>
      </g>
      <path
         inkscape:connector-curvature="0"
         d="m 29.525,12.01 c -0.101,-0.013 -0.199,0.003 -0.295,0.055 v -0.008 c -0.426,0.34 -1.68,2.719 -2.934,5.555 -0.508,1.156 -1.229,2.668 -1.592,3.363 -1.078,2.059 -3.711,5.805 -4.93,7 l -1.137,1.125 0.848,0.926 c 0.52,0.57 1.207,1.754 1.777,3.078 1.082,2.523 1.27,2.887 1.477,2.887 0.098,0 0.653,-0.313 1.271,-0.707 1.379,-0.895 2.668,-2.098 4.422,-4.145 2.738,-3.191 4.793,-3.867 7.324,-2.402 0.684,0.398 1.246,0.648 1.246,0.555 0,-0.098 -0.35,-1.059 -0.768,-2.141 -0.418,-1.082 -1.557,-4.137 -2.525,-6.789 -0.648,-1.091 -2.673,-8.149 -4.186,-8.352 z"
         style="fill:#f67e17;fill-opacity:1;fill-rule:nonzero;stroke:none"
         id="path451" />
      <path
         inkscape:connector-curvature="0"
         d="m 23.773,18.596 c -0.012,0 -0.027,0 -0.043,0.008 -2.316,1.039 -3.152,1.512 -3.836,2.172 -0.449,0.441 -0.816,0.91 -0.816,1.047 0,0.426 1.824,1.563 2.125,1.324 0.145,-0.117 0.715,-0.953 1.266,-1.863 0.973,-1.621 1.477,-2.663 1.305,-2.688 z m -6.486,4.586 0.002,0.004 c -0.395,0 -5.992,2.168 -6.258,2.426 -0.078,0.074 0.006,0.21 0.186,0.313 0.18,0.105 1.203,0.805 2.289,1.559 1.082,0.754 2.023,1.367 2.09,1.371 0.066,0 0.563,-0.266 1.094,-0.594 1.117,-0.688 3.273,-2.816 3.262,-3.223 -0.008,-0.363 -2.156,-1.855 -2.664,-1.855 z"
         style="fill:#62cbcb;fill-opacity:1;fill-rule:nonzero;stroke:none"
         id="path453" />
      <g
         id="g457">
        <path
           inkscape:connector-curvature="0"
           d="m 40.03,7.531 c 3.712,4.084 5.969,9.514 5.969,15.469 0,12.703 -10.297,23 -23,23 C 17.045,46 11.615,43.744 7.53,40.031 11.708,44.322 17.54,47 23.999,47 c 12.703,0 23,-10.298 23,-23 0,-6.462 -2.677,-12.291 -6.969,-16.469 z"
           style="opacity:0.1"
           id="path455" />
      </g>
    </g>
    <g
       transform="matrix(7.5000002,0,0,7.5000002,828.35083,306.39346)"
       id="g619">
      <g
         id="g553">
        <path
           inkscape:connector-curvature="0"
           d="m 36.31,5 c 5.859,4.062 9.688,10.831 9.688,18.5 0,12.426 -10.07,22.5 -22.5,22.5 -7.669,0 -14.438,-3.828 -18.5,-9.688 1.037,1.822 2.306,3.499 3.781,4.969 4.085,3.712 9.514,5.969 15.469,5.969 12.703,0 23,-10.298 23,-23 0,-5.954 -2.256,-11.384 -5.969,-15.469 C 39.81,7.306 38.132,6.037 36.31,5 Z m 4.969,3.781 c 3.854,4.113 6.219,9.637 6.219,15.719 0,12.703 -10.297,23 -23,23 -6.081,0 -11.606,-2.364 -15.719,-6.219 4.16,4.144 9.883,6.719 16.219,6.719 12.703,0 23,-10.298 23,-23 0,-6.335 -2.575,-12.06 -6.719,-16.219 z"
           style="opacity:0.05"
           id="path547" />
        <path
           inkscape:connector-curvature="0"
           d="m 41.28,8.781 c 3.712,4.085 5.969,9.514 5.969,15.469 0,12.703 -10.297,23 -23,23 -5.954,0 -11.384,-2.256 -15.469,-5.969 4.113,3.854 9.637,6.219 15.719,6.219 12.703,0 23,-10.298 23,-23 0,-6.081 -2.364,-11.606 -6.219,-15.719 z"
           style="opacity:0.1"
           id="path549" />
        <path
           inkscape:connector-curvature="0"
           d="M 31.25,2.375 C 39.865,5.529 46,13.792 46,23.505 c 0,12.426 -10.07,22.5 -22.5,22.5 -9.708,0 -17.971,-6.135 -21.12,-14.75 a 23,23 0 0 0 44.875,-7 23,23 0 0 0 -16,-21.875 z"
           style="opacity:0.2"
           id="path551" />
      </g>
      <g
         id="g557">
        <path
           inkscape:connector-curvature="0"
           d="M 24,1 C 36.703,1 47,11.297 47,24 47,36.703 36.703,47 24,47 11.297,47 1,36.703 1,24 1,11.297 11.297,1 24,1 Z"
           style="fill:url(#linearGradient3764-9-5);fill-opacity:1"
           id="path555" />
      </g>
      <g
         id="g587">
        <path
           inkscape:connector-curvature="0"
           d="m 40.03,7.531 c 3.712,4.084 5.969,9.514 5.969,15.469 0,12.703 -10.297,23 -23,23 C 17.045,46 11.615,43.744 7.53,40.031 11.708,44.322 17.54,47 23.999,47 c 12.703,0 23,-10.298 23,-23 0,-6.462 -2.677,-12.291 -6.969,-16.469 z"
           style="opacity:0.1"
           id="path585" />
      </g>
      <g
         transform="matrix(0.1,0,0,0.1,-219.76174,-52.438896)"
         id="g179"
         style="clip-rule:evenodd;fill-rule:evenodd;image-rendering:optimizeQuality;shape-rendering:geometricPrecision;text-rendering:geometricPrecision">
        <g
           id="Layer_x0020_1">
          <metadata
             id="CorelCorpID_0Corel-Layer" />
          <g
             transform="matrix(0.5,0,0,0.5,2167.7458,523.63843)"
             id="g193">
            <path
               id="path158"
               d="M 732,813 C 673,848 602,865 521,865 411,865 322,830 254,761 186,693 153,603 153,493 153,371 189,273 262,198 334,124 432,87 554,87 c 67,0 127,12 179,36 v 156 c -52,-38 -107,-58 -166,-58 -71,0 -129,24 -174,72 -46,49 -69,112 -69,189 0,77 22,138 65,183 43,44 100,66 172,66 60,0 117,-21 171,-64 z"
               class="fil0"
               inkscape:connector-curvature="0"
               style="fill:#ff0033;fill-rule:nonzero" />
            <path
               id="path160"
               d="m 489,573 v -75 h -74 v -31 h 74 v -74 h 32 v 74 h 74 v 31 h -74 v 75 z"
               class="fil0"
               inkscape:connector-curvature="0"
               style="fill:#ff0033;fill-rule:nonzero" />
            <path
               d="m 711,573 v -75 h -74 v -31 h 74 v -74 h 31 v 74 h 75 v 31 h -75 v 75 z"
               class="fil0"
               id="1"
               inkscape:connector-curvature="0"
               style="fill:#ff0033;fill-rule:nonzero" />
          </g>
        </g>
      </g>
    </g>
    <g
       style="fill:#009688;stroke:none"
       transform="matrix(0.04589163,0,0,-0.04577026,429.58993,1192.7287)"
       id="g169">
      <path
         inkscape:connector-curvature="0"
         d="m 8500,12793 c -203,-19 -252,-24 -264,-29 -21,-8 -67,-401 -84,-718 l -7,-129 -110,-27 c -60,-15 -144,-41 -185,-58 -105,-43 -337,-154 -397,-191 -28,-17 -53,-31 -55,-31 -3,0 -151,120 -329,266 -178,146 -330,268 -336,271 -24,10 -229,-164 -382,-323 -147,-152 -315,-362 -303,-377 43,-57 207,-259 347,-427 94,-113 175,-211 179,-218 4,-8 -9,-38 -34,-78 -67,-106 -145,-271 -180,-379 -18,-55 -43,-132 -56,-172 -13,-39 -24,-78 -24,-86 0,-11 -19,-16 -72,-21 -390,-36 -765,-79 -775,-90 -31,-30 -51,-432 -34,-649 12,-151 35,-315 46,-325 4,-5 299,-34 757,-77 l 77,-7 6,-41 c 4,-23 15,-62 25,-87 10,-25 34,-97 54,-161 39,-121 120,-293 187,-393 22,-33 38,-65 35,-73 -3,-7 -83,-106 -179,-220 -264,-316 -348,-423 -340,-436 34,-60 195,-249 308,-363 149,-150 382,-344 393,-328 4,6 99,86 212,179 113,93 250,207 305,254 55,48 107,92 117,99 14,11 33,4 130,-51 134,-76 299,-144 459,-187 63,-17 121,-35 127,-39 8,-5 23,-109 42,-302 30,-293 57,-524 64,-545 8,-21 310,-37 569,-31 206,5 407,24 423,39 2,3 20,180 39,394 20,214 38,404 41,422 6,38 4,37 177,88 145,43 338,128 455,201 47,30 90,52 96,49 6,-2 67,-52 136,-111 232,-200 522,-426 537,-421 27,11 138,96 200,153 129,120 483,521 483,547 0,3 -114,141 -252,307 -139,165 -263,313 -275,328 l -22,27 59,114 c 79,151 156,344 189,471 l 26,104 185,17 c 102,9 294,27 427,39 l 242,23 6,26 c 13,63 26,219 31,380 9,237 -17,582 -44,599 -7,4 -197,24 -424,45 -227,21 -416,40 -420,42 -4,2 -12,30 -18,62 -27,137 -115,364 -206,533 l -65,121 38,46 c 21,26 139,171 264,323 124,152 229,281 233,288 8,12 -71,113 -203,260 -146,162 -481,451 -504,434 -83,-63 -382,-305 -487,-394 -75,-62 -142,-119 -151,-126 -12,-10 -54,7 -229,96 -153,76 -247,116 -325,139 -60,18 -120,32 -132,32 -25,0 -25,-3 -49,255 -17,191 -64,608 -68,612 -8,8 -126,23 -252,32 -130,10 -372,12 -454,4 z m 455,-2094 c 217,-36 427,-151 610,-333 179,-178 289,-374 335,-601 104,-501 -99,-998 -520,-1276 -192,-127 -378,-186 -616,-196 -222,-10 -388,24 -579,117 -239,117 -419,293 -546,534 -96,183 -134,343 -133,571 1,281 77,507 244,723 212,275 500,446 795,471 111,9 329,4 410,-10 z"
         id="path161" />
      <path
         inkscape:connector-curvature="0"
         d="m 8500,10521 c -365,-80 -663,-359 -777,-727 -25,-83 -27,-101 -27,-279 -1,-207 4,-238 65,-396 65,-169 235,-378 398,-488 90,-61 214,-117 317,-143 128,-32 372,-32 490,0 140,38 241,86 354,170 320,238 473,583 430,970 -27,250 -124,448 -301,617 -134,128 -274,210 -448,262 -119,35 -371,43 -501,14 z m 382,-256 c 228,-48 440,-209 537,-407 17,-35 41,-101 52,-147 18,-73 21,-105 17,-235 -4,-132 -8,-161 -34,-236 -76,-227 -298,-429 -546,-496 -76,-21 -290,-24 -358,-5 -147,40 -267,110 -374,217 -45,44 -96,106 -115,137 -222,373 -105,862 259,1078 74,43 186,87 260,99 75,13 231,10 302,-5 z"
         id="path163" />
      <path
         inkscape:connector-curvature="0"
         d="m 4716,8448 c -75,-191 -162,-428 -251,-680 l -98,-278 h -122 c -231,0 -583,-47 -788,-106 -70,-20 -129,-35 -131,-33 -1,2 -36,51 -77,109 -140,200 -570,790 -575,790 -10,0 -181,-68 -219,-88 -22,-11 -74,-36 -115,-56 -41,-19 -120,-61 -175,-94 -55,-32 -148,-87 -207,-122 -105,-62 -250,-166 -342,-245 l -46,-41 120,-259 c 67,-143 171,-367 232,-498 l 111,-238 -76,-77 c -196,-200 -433,-511 -513,-675 -16,-32 -32,-57 -37,-57 -4,0 -146,24 -315,54 -329,58 -773,129 -777,124 -8,-8 -103,-248 -140,-353 C 124,5479 40,5067 5,4785 l -6,-50 508,-195 508,-195 2,-95 c 4,-171 23,-381 44,-489 11,-58 27,-141 35,-183 8,-43 26,-116 39,-163 14,-47 25,-92 25,-100 0,-7 -93,-80 -207,-161 C 838,3073 640,2930 512,2836 304,2684 280,2663 285,2643 c 22,-88 216,-464 346,-672 74,-116 223,-330 264,-378 l 30,-34 175,81 c 172,81 736,339 796,365 l 30,14 135,-125 c 169,-158 253,-221 482,-361 138,-84 182,-116 180,-130 -1,-10 -22,-142 -47,-293 -44,-266 -116,-748 -116,-773 0,-7 15,-18 33,-26 225,-90 426,-152 715,-220 193,-46 473,-94 483,-83 18,20 261,659 355,929 l 38,113 h 152 c 262,0 447,26 712,102 122,34 146,38 157,27 7,-8 153,-212 325,-454 172,-242 314,-442 316,-443 3,-4 91,37 361,170 112,55 243,130 345,197 145,96 331,233 381,281 18,16 15,25 -81,241 -55,123 -159,350 -230,504 l -130,279 117,126 c 160,170 305,368 405,552 25,48 50,89 54,91 4,2 95,-11 202,-29 559,-94 883,-145 894,-141 22,9 178,453 221,627 8,36 20,75 25,87 9,21 73,382 84,475 l 6,47 -48,21 c -62,28 -480,186 -764,290 l -228,83 v 156 c 0,179 -10,281 -41,448 -18,99 -67,314 -85,375 -4,12 44,51 188,154 217,155 695,511 703,525 7,11 -61,171 -143,334 -116,233 -266,468 -424,667 l -77,97 -133,-58 c -184,-81 -480,-217 -687,-317 l -173,-84 -134,127 c -142,134 -314,268 -429,336 -60,35 -183,116 -208,137 -4,4 11,123 33,266 112,714 131,836 128,839 -2,1 -73,29 -158,62 -180,70 -399,143 -431,143 -12,0 -47,9 -78,19 -80,28 -488,110 -546,111 -16,0 -26,-16 -49,-72 z M 4535,5825 c 276,-49 564,-184 772,-363 246,-212 460,-599 518,-936 22,-127 20,-347 -4,-488 -44,-255 -154,-525 -285,-698 -231,-307 -631,-548 -1020,-615 -114,-19 -334,-19 -454,0 -228,37 -486,130 -646,233 -356,230 -620,625 -702,1052 -24,127 -24,358 0,495 90,509 329,862 761,1126 114,70 293,142 430,175 193,46 439,53 630,19 z"
         id="path165" />
      <path
         inkscape:connector-curvature="0"
         d="m 4175,5623 c -215,-25 -337,-62 -515,-154 -350,-181 -559,-444 -665,-838 -50,-184 -58,-241 -59,-391 0,-142 16,-252 55,-371 24,-74 109,-259 119,-259 3,0 34,-42 67,-92 148,-223 355,-389 609,-488 506,-198 1037,-94 1437,280 180,168 328,436 378,682 69,343 12,664 -173,974 -199,335 -459,524 -858,623 -134,33 -292,47 -395,34 z m 345,-374 c 312,-78 532,-261 681,-565 68,-141 83,-214 83,-409 0,-199 -15,-270 -90,-424 -55,-115 -112,-196 -195,-279 -290,-285 -627,-368 -1024,-252 -258,75 -462,253 -595,519 -127,254 -139,573 -33,816 105,236 289,424 525,535 217,102 408,119 648,59 z"
         id="path167" />
    </g>
    <g
       transform="translate(-1322.5634,186.58916)"
       id="g270">
      <path
         style="fill:#009688;stroke:none;stroke-width:0.04583091"
         inkscape:connector-curvature="0"
         d="m 1545.5756,405.35868 c -9.316,0.86964 -11.5647,1.09849 -12.1154,1.32734 -0.9638,0.36616 -3.0748,18.35388 -3.8549,32.86305 l -0.3213,5.90436 -5.0481,1.2358 c -2.7535,0.68655 -6.6083,1.87658 -8.4899,2.65467 -4.8186,1.96812 -15.4655,7.04862 -18.219,8.74212 -1.2849,0.7781 -2.4322,1.41888 -2.524,1.41888 -0.1377,0 -6.9297,-5.49243 -15.0984,-12.17489 -8.1687,-6.68246 -15.1442,-12.26643 -15.4196,-12.40374 -1.1014,-0.4577 -10.5091,7.50632 -17.5306,14.7838 -6.746,6.95708 -14.4558,16.56883 -13.9051,17.25538 1.9733,2.60891 9.4995,11.8545 15.9244,19.5439 4.3138,5.17204 8.031,9.65753 8.2146,9.97792 0.1835,0.36616 -0.413,1.73927 -1.5603,3.57008 -3.0748,4.85165 -6.6543,12.40374 -8.2605,17.34693 -0.8261,2.51736 -1.9734,6.04167 -2.57,7.87249 -0.5966,1.78504 -1.1014,3.57008 -1.1014,3.93624 0,0.50347 -0.8719,0.73232 -3.3042,0.96117 -17.8977,1.64773 -35.1071,3.61585 -35.566,4.11933 -1.4226,1.3731 -2.3404,19.77275 -1.5603,29.70489 0.5507,6.91131 1.6062,14.41764 2.111,14.87534 0.1836,0.22885 13.7216,1.55619 34.74,3.52431 l 3.5336,0.32039 0.2754,1.87658 c 0.1836,1.05272 0.6884,2.83776 1.1473,3.98201 0.4589,1.14426 1.5603,4.43972 2.4781,7.36902 1.7898,5.5382 5.507,13.41068 8.5818,17.98771 1.0096,1.51042 1.7439,2.97507 1.6062,3.34123 -0.1377,0.32039 -3.809,4.85165 -8.2146,10.06945 -12.1154,14.46341 -15.9703,19.36082 -15.6032,19.95584 1.5603,2.74621 8.9489,11.39679 14.1346,16.6146 6.8379,6.86554 17.5306,15.74497 18.0355,15.01265 0.1835,-0.27462 4.5432,-3.93624 9.729,-8.19288 5.1857,-4.25663 11.4729,-9.47444 13.9969,-11.62564 2.5241,-2.19698 4.9104,-4.21087 5.3693,-4.53126 0.6425,-0.50347 1.5145,-0.18308 5.966,2.33428 6.1494,3.47854 13.7216,6.59092 21.0642,8.55904 2.8912,0.7781 5.5529,1.60196 5.8283,1.78504 0.3671,0.22885 1.0555,4.98896 1.9274,13.82262 1.3767,13.41069 2.6158,23.98362 2.9371,24.94479 0.3671,0.96118 14.2264,1.6935 26.1123,1.41888 9.4537,-0.22885 18.6779,-1.09849 19.4122,-1.78504 0.092,-0.13731 0.9178,-8.23865 1.7897,-18.03348 0.9179,-9.79484 1.7439,-18.49119 1.8816,-19.31505 0.2753,-1.73927 0.1836,-1.6935 8.1228,-4.02779 6.6543,-1.96812 15.5114,-5.85859 20.8807,-9.19982 2.1569,-1.37311 4.1302,-2.38005 4.4056,-2.24274 0.2753,0.0915 3.0747,2.38005 6.2413,5.0805 10.6468,9.15405 23.9554,19.49813 24.6438,19.26928 1.239,-0.50347 6.333,-4.39395 9.1783,-7.00285 5.92,-5.49243 22.1656,-23.84631 22.1656,-25.03633 0,-0.13731 -5.2316,-6.45361 -11.5646,-14.05147 -6.379,-7.5521 -12.0695,-14.3261 -12.6202,-15.01265 l -1.0097,-1.2358 2.7077,-5.21781 c 3.6254,-6.91131 7.159,-15.74497 8.6735,-21.55779 l 1.1932,-4.76011 8.4899,-0.77809 c 4.6809,-0.41193 13.4921,-1.2358 19.5957,-1.78504 l 11.1058,-1.05272 0.2754,-1.19002 c 0.5965,-2.88353 1.1931,-10.02369 1.4226,-17.3927 0.413,-10.84755 -0.7802,-26.63829 -2.0192,-27.41639 -0.3213,-0.18308 -9.0407,-1.09848 -19.4581,-2.05966 -10.4174,-0.96117 -19.0909,-1.83081 -19.2745,-1.92235 -0.1835,-0.0915 -0.5507,-1.37311 -0.826,-2.83776 -1.2391,-6.27052 -5.2776,-16.66037 -9.4537,-24.39554 l -2.983,-5.53821 1.7439,-2.10543 c 0.9638,-1.19002 6.379,-7.82671 12.1154,-14.78379 5.6906,-6.95708 10.5092,-12.86144 10.6928,-13.18184 0.3671,-0.54924 -3.2583,-5.17204 -9.316,-11.90026 -6.7002,-7.41479 -22.0739,-20.64239 -23.1294,-19.8643 -3.809,2.88353 -17.5306,13.95993 -22.3492,18.03349 -3.4419,2.83775 -6.5167,5.44666 -6.9297,5.76705 -0.5507,0.4577 -2.4781,-0.32039 -10.5092,-4.39395 -7.0214,-3.47854 -11.3352,-5.30935 -14.9147,-6.36206 -2.7535,-0.82387 -5.507,-1.46465 -6.0577,-1.46465 -1.1473,0 -1.1473,0.13731 -2.2487,-11.67142 -0.7802,-8.74212 -2.9371,-27.82832 -3.1207,-28.0114 -0.3671,-0.36616 -5.7823,-1.05271 -11.5646,-1.46465 -5.966,-0.4577 -17.0717,-0.54924 -20.8348,-0.18308 z m 20.8806,95.84293 c 9.9585,1.64773 19.5958,6.91131 27.9939,15.24149 8.2146,8.14711 13.2627,17.11808 15.3737,27.50793 4.7728,22.9309 -4.5432,45.67872 -23.8636,58.40285 -8.8112,5.81283 -17.347,8.51327 -28.2693,8.97097 -10.1879,0.45771 -17.8059,-1.09848 -26.5712,-5.35512 -10.9681,-5.35512 -19.2286,-13.41068 -25.0568,-24.44132 -4.4056,-8.37595 -6.1495,-15.69919 -6.1036,-26.13481 0.046,-12.86145 3.5336,-23.20553 11.1975,-33.0919 9.7291,-12.58682 22.9458,-20.41354 36.4839,-21.55779 5.0939,-0.41194 15.0983,-0.18309 18.8155,0.4577 z"
         id="path161-0" />
      <path
         style="fill:#009688;stroke:none;stroke-width:0.04583091"
         inkscape:connector-curvature="0"
         d="m 1545.5756,509.34871 c -16.7505,3.66163 -30.4262,16.43153 -35.6578,33.27498 -1.1473,3.79894 -1.2391,4.6228 -1.2391,12.76991 -0.046,9.47444 0.1836,10.89332 2.9829,18.12502 2.983,7.73517 10.7846,17.30116 18.2649,22.33589 4.1303,2.79198 9.8208,5.35512 14.5477,6.54514 5.8741,1.46465 17.0716,1.46465 22.4869,0 6.4248,-1.73927 11.0598,-3.93624 16.2456,-7.78094 14.6853,-10.89332 21.7067,-26.68406 19.7334,-44.39715 -1.2391,-11.44257 -5.6906,-20.50508 -13.8134,-28.24025 -6.1495,-5.8586 -12.5743,-9.61176 -20.5594,-11.99181 -5.4611,-1.60196 -17.0258,-1.96812 -22.9917,-0.64079 z m 17.5306,11.71719 c 10.4632,2.19697 20.1923,9.56599 24.6438,18.6285 0.7801,1.60196 1.8815,4.62279 2.3863,6.72823 0.8261,3.34122 0.9638,4.80587 0.7802,10.75601 -0.1836,6.04167 -0.3671,7.36901 -1.5603,10.80178 -3.4878,10.38985 -13.6757,19.63544 -25.0569,22.70205 -3.4877,0.96117 -13.3085,1.09848 -16.4292,0.22885 -6.746,-1.83081 -12.253,-5.03473 -17.1634,-9.93215 -2.0652,-2.01389 -4.4056,-4.85165 -5.2776,-6.27052 -10.1879,-17.07231 -4.8186,-39.45397 11.886,-49.34034 3.3959,-1.96813 8.5358,-3.98202 11.9318,-4.53126 3.4419,-0.59501 10.601,-0.4577 13.8593,0.22885 z"
         id="path163-0" />
    </g>
    <g
       transform="translate(-1357.2854,-287.62966)"
       id="g305">
      <path
         style="fill:#009688;stroke:none;stroke-width:0.04583091"
         inkscape:connector-curvature="0"
         d="m 1531.1476,619.37356 c -9.316,0.86964 -11.5647,1.09849 -12.1154,1.32734 -0.9638,0.36616 -3.0748,18.35388 -3.8549,32.86305 l -0.3213,5.90436 -5.0481,1.2358 c -2.7535,0.68655 -6.6083,1.87658 -8.4899,2.65467 -4.8186,1.96812 -15.4655,7.04862 -18.219,8.74212 -1.2849,0.7781 -2.4322,1.41888 -2.524,1.41888 -0.1377,0 -6.9297,-5.49243 -15.0984,-12.17489 -8.1687,-6.68246 -15.1442,-12.26643 -15.4196,-12.40374 -1.1014,-0.4577 -10.5091,7.50632 -17.5306,14.7838 -6.746,6.95708 -14.4558,16.56883 -13.9051,17.25538 1.9733,2.60891 9.4995,11.8545 15.9244,19.5439 4.3138,5.17204 8.031,9.65753 8.2146,9.97792 0.1835,0.36616 -0.413,1.73927 -1.5603,3.57008 -3.0748,4.85165 -6.6543,12.40374 -8.2605,17.34693 -0.8261,2.51736 -1.9734,6.04167 -2.57,7.87249 -0.5966,1.78504 -1.1014,3.57008 -1.1014,3.93624 0,0.50347 -0.8719,0.73232 -3.3042,0.96117 -17.8977,1.64773 -35.1071,3.61585 -35.566,4.11933 -1.4226,1.3731 -2.3404,19.77275 -1.5603,29.70489 0.5507,6.91131 1.6062,14.41764 2.111,14.87534 0.1836,0.22885 13.7216,1.55619 34.74,3.52431 l 3.5336,0.32039 0.2754,1.87658 c 0.1836,1.05272 0.6884,2.83776 1.1473,3.98201 0.4589,1.14426 1.5603,4.43972 2.4781,7.36902 1.7898,5.5382 5.507,13.41068 8.5818,17.98771 1.0096,1.51042 1.7439,2.97507 1.6062,3.34123 -0.1377,0.32039 -3.809,4.85165 -8.2146,10.06945 -12.1154,14.46341 -15.9703,19.36082 -15.6032,19.95584 1.5603,2.74621 8.9489,11.39679 14.1346,16.6146 6.8379,6.86554 17.5306,15.74497 18.0355,15.01265 0.1835,-0.27462 4.5432,-3.93624 9.729,-8.19288 5.1857,-4.25663 11.4729,-9.47444 13.9969,-11.62564 2.5241,-2.19698 4.9104,-4.21087 5.3693,-4.53126 0.6425,-0.50347 1.5145,-0.18308 5.966,2.33428 6.1494,3.47854 13.7216,6.59092 21.0642,8.55904 2.8912,0.7781 5.5529,1.60196 5.8283,1.78504 0.3671,0.22885 1.0555,4.98896 1.9274,13.82262 1.3767,13.41069 2.6158,23.98362 2.9371,24.94479 0.3671,0.96118 14.2264,1.6935 26.1123,1.41888 9.4537,-0.22885 18.6779,-1.09849 19.4122,-1.78504 0.092,-0.13731 0.9178,-8.23865 1.7897,-18.03348 0.9179,-9.79484 1.7439,-18.49119 1.8816,-19.31505 0.2753,-1.73927 0.1836,-1.6935 8.1228,-4.02779 6.6543,-1.96812 15.5114,-5.85859 20.8807,-9.19982 2.1569,-1.37311 4.1302,-2.38005 4.4056,-2.24274 0.2753,0.0915 3.0747,2.38005 6.2413,5.0805 10.6468,9.15405 23.9554,19.49813 24.6438,19.26928 1.239,-0.50347 6.333,-4.39395 9.1783,-7.00285 5.92,-5.49243 22.1656,-23.84631 22.1656,-25.03633 0,-0.13731 -5.2316,-6.45361 -11.5646,-14.05147 -6.379,-7.5521 -12.0695,-14.3261 -12.6202,-15.01265 l -1.0097,-1.2358 2.7077,-5.21781 c 3.6254,-6.91131 7.159,-15.74497 8.6735,-21.55779 l 1.1932,-4.76011 8.4899,-0.77809 c 4.6809,-0.41193 13.4921,-1.2358 19.5957,-1.78504 l 11.1058,-1.05272 0.2754,-1.19002 c 0.5965,-2.88353 1.1931,-10.02369 1.4226,-17.3927 0.413,-10.84755 -0.7802,-26.63829 -2.0192,-27.41639 -0.3213,-0.18308 -9.0407,-1.09848 -19.4581,-2.05966 -10.4174,-0.96117 -19.0909,-1.83081 -19.2745,-1.92235 -0.1835,-0.0915 -0.5507,-1.37311 -0.826,-2.83776 -1.2391,-6.27052 -5.2776,-16.66037 -9.4537,-24.39554 l -2.983,-5.53821 1.7439,-2.10543 c 0.9638,-1.19002 6.379,-7.82671 12.1154,-14.78379 5.6906,-6.95708 10.5092,-12.86144 10.6928,-13.18184 0.3671,-0.54924 -3.2583,-5.17204 -9.316,-11.90026 -6.7002,-7.41479 -22.0739,-20.64239 -23.1294,-19.8643 -3.809,2.88353 -17.5306,13.95993 -22.3492,18.03349 -3.4419,2.83775 -6.5167,5.44666 -6.9297,5.76705 -0.5507,0.4577 -2.4781,-0.32039 -10.5092,-4.39395 -7.0214,-3.47854 -11.3352,-5.30935 -14.9147,-6.36206 -2.7535,-0.82387 -5.507,-1.46465 -6.0577,-1.46465 -1.1473,0 -1.1473,0.13731 -2.2487,-11.67142 -0.7802,-8.74212 -2.9371,-27.82832 -3.1207,-28.0114 -0.3671,-0.36616 -5.7823,-1.05271 -11.5646,-1.46465 -5.966,-0.4577 -17.0717,-0.54924 -20.8348,-0.18308 z m 20.8806,95.84293 c 9.9585,1.64773 19.5958,6.91131 27.9939,15.24149 8.2146,8.14711 13.2627,17.11808 15.3737,27.50793 4.7728,22.9309 -4.5432,45.67872 -23.8636,58.40285 -8.8112,5.81283 -17.347,8.51327 -28.2693,8.97097 -10.1879,0.45771 -17.8059,-1.09848 -26.5712,-5.35512 -10.9681,-5.35512 -19.2286,-13.41068 -25.0568,-24.44132 -4.4056,-8.37595 -6.1495,-15.69919 -6.1036,-26.13481 0.046,-12.86145 3.5336,-23.20553 11.1975,-33.0919 9.7291,-12.58682 22.9458,-20.41354 36.4839,-21.55779 5.0939,-0.41194 15.0983,-0.18309 18.8155,0.4577 z"
         id="path161-3" />
      <path
         style="fill:#009688;stroke:none;stroke-width:0.04583091"
         inkscape:connector-curvature="0"
         d="m 1531.1476,723.36359 c -16.7505,3.66163 -30.4262,16.43153 -35.6578,33.27498 -1.1473,3.79894 -1.2391,4.6228 -1.2391,12.76991 -0.046,9.47444 0.1836,10.89332 2.9829,18.12502 2.983,7.73517 10.7846,17.30116 18.2649,22.33589 4.1303,2.79198 9.8208,5.35512 14.5477,6.54514 5.8741,1.46465 17.0716,1.46465 22.4869,0 6.4248,-1.73927 11.0598,-3.93624 16.2456,-7.78094 14.6853,-10.89332 21.7067,-26.68406 19.7334,-44.39715 -1.2391,-11.44257 -5.6906,-20.50508 -13.8134,-28.24025 -6.1495,-5.8586 -12.5743,-9.61176 -20.5594,-11.99181 -5.4611,-1.60196 -17.0258,-1.96812 -22.9917,-0.64079 z m 17.5306,11.71719 c 10.4632,2.19697 20.1923,9.56599 24.6438,18.6285 0.7801,1.60196 1.8815,4.62279 2.3863,6.72823 0.8261,3.34122 0.9638,4.80587 0.7802,10.75601 -0.1836,6.04167 -0.3671,7.36901 -1.5603,10.80178 -3.4878,10.38985 -13.6757,19.63544 -25.0569,22.70205 -3.4877,0.96117 -13.3085,1.09848 -16.4292,0.22885 -6.746,-1.83081 -12.253,-5.03473 -17.1634,-9.93215 -2.0652,-2.01389 -4.4056,-4.85165 -5.2776,-6.27052 -10.1879,-17.07231 -4.8186,-39.45397 11.886,-49.34034 3.3959,-1.96813 8.5358,-3.98202 11.9318,-4.53126 3.4419,-0.59501 10.601,-0.4577 13.8593,0.22885 z"
         id="path163-6" />
    </g>
  </g>
  <text
     xml:space="preserve"
     style="font-style:normal;font-variant:normal;font-weight:normal;font-stretch:normal;font-size:72px;line-height:1.25;font-family:'Migu 1P';-inkscape-font-specification:'Migu 1P';text-align:end;letter-spacing:0px;word-spacing:0px;text-anchor:end;fill:#008000;fill-opacity:1;stroke:none;stroke-width:0.75"
     x="1122.2115"
     y="1334.3303"
     id="text45-0"><tspan
       sodipodi:role="line"
       x="1122.2115"
       y="1334.3303"
       style="font-style:normal;font-variant:normal;font-weight:bold;font-stretch:normal;font-size:32px;line-height:0px;font-family:'Migu 1P';-inkscape-font-specification:'Migu 1P Bold';text-align:end;text-anchor:end;fill:#000000;stroke-width:0.75"
       id="tspan47-2">Tetsuo Koyama 編・訳</tspan></text>
  <text
     xml:space="preserve"
     style="font-style:normal;font-variant:normal;font-weight:normal;font-stretch:normal;font-size:72px;line-height:1.25;font-family:'Migu 1P';-inkscape-font-specification:'Migu 1P';text-align:center;letter-spacing:0px;word-spacing:0px;text-anchor:middle;fill:#008000;fill-opacity:1;stroke:none;stroke-width:0.75"
     x="586.93036"
     y="276.55707"
     id="text32-8"><tspan
       sodipodi:role="line"
       x="586.93036"
       y="276.55707"
       style="font-style:normal;font-variant:normal;font-weight:normal;font-stretch:normal;font-size:50px;font-family:'Migu 1P';-inkscape-font-specification:'Migu 1P';text-align:center;text-anchor:middle;fill:#000000;stroke-width:0.75"
       id="tspan36-0">C++/Python/Scilab/Matlab</tspan></text>
  <text
     xml:space="preserve"
     style="font-style:normal;font-variant:normal;font-weight:normal;font-stretch:normal;font-size:72px;line-height:1.25;font-family:'Migu 1P';-inkscape-font-specification:'Migu 1P';text-align:center;letter-spacing:0px;word-spacing:0px;text-anchor:middle;fill:#008000;fill-opacity:1;stroke:none;stroke-width:0.75"
     x="584.5257"
     y="336.67361"
     id="text32-8-0"><tspan
       sodipodi:role="line"
       x="584.5257"
       y="336.67361"
       style="font-style:normal;font-variant:normal;font-weight:normal;font-stretch:normal;font-size:50px;font-family:'Migu 1P';-inkscape-font-specification:'Migu 1P';text-align:center;text-anchor:middle;fill:#000000;stroke-width:0.75"
       id="tspan36-0-2">で学ぶ物理シュミレーション</tspan></text>
  <text
     xml:space="preserve"
     style="font-style:normal;font-variant:normal;font-weight:normal;font-stretch:normal;font-size:72px;line-height:1.25;font-family:'Migu 1P';-inkscape-font-specification:'Migu 1P';text-align:center;letter-spacing:0px;word-spacing:0px;text-anchor:middle;fill:#008000;fill-opacity:1;stroke:none;stroke-width:0.75"
     x="271.85162"
     y="86.446892"
     id="text32-8-0-2"><tspan
       sodipodi:role="line"
       x="271.85162"
       y="86.446892"
       style="font-style:normal;font-variant:normal;font-weight:normal;font-stretch:normal;font-size:50px;font-family:'Migu 1P';-inkscape-font-specification:'Migu 1P';text-align:center;text-anchor:middle;fill:#000000;stroke-width:0.75"
       id="tspan36-0-2-3">はじめての</tspan></text>
  <text
     xml:space="preserve"
     style="font-style:normal;font-variant:normal;font-weight:normal;font-stretch:normal;font-size:100px;line-height:1.25;font-family:'Migu 1P';-inkscape-font-specification:'Migu 1P';letter-spacing:0px;word-spacing:0px;fill:#000000;fill-opacity:1;stroke:none;stroke-width:7.50000024;stroke-miterlimit:4;stroke-dasharray:none"
     x="223.63348"
     y="212.96173"
     id="text4921"><tspan
       sodipodi:role="line"
       id="tspan4919"
       x="223.63348"
       y="212.96173"
       style="font-size:144px;stroke-width:7.50000024;-inkscape-font-specification:TakaoPGothic;font-family:TakaoPGothic;font-weight:normal;font-style:normal;font-stretch:normal;font-variant:normal;stroke:#000000;stroke-opacity:1;stroke-miterlimit:4;stroke-dasharray:none">GetFEM++</tspan></text>
</svg>
