<?xml version="1.0" encoding="UTF-8" standalone="no"?>
<svg
   xmlns:dc="http://purl.org/dc/elements/1.1/"
   xmlns:cc="http://creativecommons.org/ns#"
   xmlns:rdf="http://www.w3.org/1999/02/22-rdf-syntax-ns#"
   xmlns:svg="http://www.w3.org/2000/svg"
   xmlns="http://www.w3.org/2000/svg"
   xmlns:sodipodi="http://sodipodi.sourceforge.net/DTD/sodipodi-0.dtd"
   xmlns:inkscape="http://www.inkscape.org/namespaces/inkscape"
   version="1.0"
   width="420mm"
   height="594mm"
   viewBox="0 0 1190.5512 1683.7796"
   preserveAspectRatio="xMidYMid meet"
   id="svg30"
   sodipodi:docname="getfem-tutorial-face.svg"
   inkscape:version="0.92.3 (2405546, 2018-03-11)">
  <metadata
     id="metadata36">
    <rdf:RDF>
      <cc:Work
         rdf:about="">
        <dc:format>image/svg+xml</dc:format>
        <dc:type
           rdf:resource="http://purl.org/dc/dcmitype/StillImage" />
        <dc:title />
      </cc:Work>
    </rdf:RDF>
  </metadata>
  <defs
     id="defs34">
    <linearGradient
       gradientTransform="rotate(-90,23.999999,24.000001)"
       x1="1"
       gradientUnits="userSpaceOnUse"
       x2="47"
       id="linearGradient3764">
      <stop
         id="stop157"
         offset="0"
         style="stop-color:#acacac" />
      <stop
         id="stop159"
         offset="1"
         style="stop-color:#b6b6b6" />
    </linearGradient>
    <linearGradient
       gradientTransform="rotate(-90,23.999998,24)"
       gradientUnits="userSpaceOnUse"
       x2="47"
       x1="1"
       id="linearGradient3764-5">
      <stop
         id="stop277"
         style="stop-color:#3d3d3d;stop-opacity:1" />
      <stop
         id="stop279"
         style="stop-color:#474747;stop-opacity:1"
         offset="1" />
    </linearGradient>
    <linearGradient
       gradientTransform="rotate(-90,24,24)"
       gradientUnits="userSpaceOnUse"
       x2="47"
       x1="1"
       id="linearGradient4325">
      <stop
         id="stop422"
         style="stop-color:#3b4c50;stop-opacity:1" />
      <stop
         id="stop424"
         style="stop-color:#44575c;stop-opacity:1"
         offset="1" />
    </linearGradient>
    <linearGradient
       gradientTransform="rotate(-90,23.999998,24)"
       gradientUnits="userSpaceOnUse"
       x2="47"
       x1="1"
       id="linearGradient3764-9">
      <stop
         id="stop540"
         style="stop-color:#e4e4e4;stop-opacity:1" />
      <stop
         id="stop542"
         style="stop-color:#eee;stop-opacity:1"
         offset="1" />
    </linearGradient>
    <linearGradient
       gradientTransform="rotate(-90,23.999998,24)"
       gradientUnits="userSpaceOnUse"
       x2="47"
       x1="1"
       id="linearGradient3764-51">
      <stop
         id="stop2"
         style="stop-color:#7ca339;stop-opacity:1" />
      <stop
         id="stop4"
         style="stop-color:#87b23e;stop-opacity:1"
         offset="1" />
    </linearGradient>
    <linearGradient
       gradientTransform="matrix(0,-0.2,0.2,0,36.901694,24.738983)"
       gradientUnits="userSpaceOnUse"
       x2="47"
       x1="1"
       id="linearGradient3764-7">
      <stop
         id="stop2-1"
         style="stop-color:#7ca339;stop-opacity:1" />
      <stop
         id="stop4-6"
         style="stop-color:#87b23e;stop-opacity:1"
         offset="1" />
    </linearGradient>
    <linearGradient
       gradientTransform="matrix(0,-0.2,0.2,0,18.99661,28.833898)"
       gradientUnits="userSpaceOnUse"
       x2="47"
       x1="1"
       id="linearGradient3764-7-7">
      <stop
         id="stop2-1-0"
         style="stop-color:#7ca339;stop-opacity:1" />
      <stop
         id="stop4-6-3"
         style="stop-color:#87b23e;stop-opacity:1"
         offset="1" />
    </linearGradient>
  </defs>
  <sodipodi:namedview
     pagecolor="#ffffff"
     bordercolor="#666666"
     borderopacity="1"
     objecttolerance="10"
     gridtolerance="10"
     guidetolerance="10"
     inkscape:pageopacity="0"
     inkscape:pageshadow="2"
     inkscape:window-width="1920"
     inkscape:window-height="1052"
     id="namedview32"
     showgrid="false"
     units="mm"
     inkscape:zoom="0.31189427"
     inkscape:cx="1494.425"
     inkscape:cy="1205.1402"
     inkscape:window-x="0"
     inkscape:window-y="-1"
     inkscape:window-maximized="1"
     inkscape:current-layer="svg30" />
  <text
     xml:space="preserve"
     style="font-style:normal;font-variant:normal;font-weight:normal;font-stretch:normal;font-size:72px;line-height:1.25;font-family:'Migu 1P';-inkscape-font-specification:'Migu 1P';text-align:center;letter-spacing:0px;word-spacing:0px;text-anchor:middle;fill:#008000;fill-opacity:1;stroke:none;stroke-width:0.75"
     x="559.57422"
     y="108.85954"
     id="text32"><tspan
       sodipodi:role="line"
       x="559.57422"
       y="108.85954"
       style="font-style:normal;font-variant:normal;font-weight:normal;font-stretch:normal;font-size:50px;line-height:0;font-family:'Migu 1P';-inkscape-font-specification:'Migu 1P';text-align:center;text-anchor:middle;fill:#000000;stroke-width:0.75"
       id="tspan44"><tspan
         id="tspan203"
         style="font-style:normal;font-variant:normal;font-weight:normal;font-stretch:normal;font-size:80px;line-height:1.25;font-family:'Migu 1P';-inkscape-font-specification:'Migu 1P';text-align:center;text-anchor:middle;fill:#000000;stroke-width:0.75">GetFEM++チュートリアル</tspan></tspan><tspan
       sodipodi:role="line"
       x="559.57422"
       y="200.97954"
       style="font-style:normal;font-variant:normal;font-weight:normal;font-stretch:normal;font-size:50px;font-family:'Migu 1P';-inkscape-font-specification:'Migu 1P';text-align:center;text-anchor:middle;fill:#000000;stroke-width:0.75"
       id="tspan625">C++/Python/Scilab/Matlab</tspan><tspan
       sodipodi:role="line"
       x="559.57422"
       y="290.97955"
       style="font-style:normal;font-variant:normal;font-weight:normal;font-stretch:normal;font-size:50px;font-family:'Migu 1P';-inkscape-font-specification:'Migu 1P';text-align:center;text-anchor:middle;fill:#000000;stroke-width:0.75"
       id="tspan36">で学ぶ物理シュミレーション</tspan></text>
  <text
     xml:space="preserve"
     style="font-style:normal;font-variant:normal;font-weight:normal;font-stretch:normal;font-size:72px;line-height:1.25;font-family:'Migu 1P';-inkscape-font-specification:'Migu 1P';text-align:end;letter-spacing:0px;word-spacing:0px;text-anchor:end;fill:#008000;fill-opacity:1;stroke:none;stroke-width:0.75"
     x="1125.3494"
     y="1231.153"
     id="text45"><tspan
       sodipodi:role="line"
       id="tspan43"
       x="1125.3494"
       y="1231.153"
       style="font-style:normal;font-variant:normal;font-weight:bold;font-stretch:normal;font-size:40px;line-height:0;font-family:'Migu 1P';-inkscape-font-specification:'Migu 1P Bold';text-align:end;text-anchor:end;fill:#000000;stroke-width:0.75">Yves Renard, Julien Pommier, Konstantinos Poulios 著</tspan><tspan
       sodipodi:role="line"
       x="1125.3494"
       y="1321.153"
       style="font-style:normal;font-variant:normal;font-weight:bold;font-stretch:normal;font-size:40px;line-height:0;font-family:'Migu 1P';-inkscape-font-specification:'Migu 1P Bold';text-align:end;text-anchor:end;fill:#000000;stroke-width:0.75"
       id="tspan47">Tetsuo Koyama 訳</tspan></text>
  <flowRoot
     xml:space="preserve"
     id="flowRoot33"
     style="fill:black;fill-opacity:1;stroke:none;font-family:'Migu 1P';font-style:normal;font-weight:normal;font-size:133.33333333px;line-height:1.25;letter-spacing:0px;word-spacing:0px;-inkscape-font-specification:'Migu 1P';font-stretch:normal;font-variant:normal"><flowRegion
       id="flowRegion35"><rect
         id="rect37"
         width="711.88074"
         height="156.43239"
         x="392.21457"
         y="91.26001" /></flowRegion><flowPara
       id="flowPara39" /></flowRoot>  <g
     id="g206"
     transform="matrix(7.5000002,0,0,7.5000002,749.17663,316.85367)">
    <path
       id="path164"
       d="m 36.31,5 c 5.859,4.062 9.688,10.831 9.688,18.5 0,12.426 -10.07,22.5 -22.5,22.5 -7.669,0 -14.438,-3.828 -18.5,-9.688 1.037,1.822 2.306,3.499 3.781,4.969 4.085,3.712 9.514,5.969 15.469,5.969 12.703,0 23,-10.298 23,-23 0,-5.954 -2.256,-11.384 -5.969,-15.469 C 39.81,7.306 38.132,6.037 36.31,5 Z m 4.969,3.781 c 3.854,4.113 6.219,9.637 6.219,15.719 0,12.703 -10.297,23 -23,23 -6.081,0 -11.606,-2.364 -15.719,-6.219 4.16,4.144 9.883,6.719 16.219,6.719 12.703,0 23,-10.298 23,-23 0,-6.335 -2.575,-12.06 -6.719,-16.219 z"
       style="opacity:0.05"
       inkscape:connector-curvature="0" />
    <path
       id="path166"
       d="m 41.28,8.781 c 3.712,4.085 5.969,9.514 5.969,15.469 0,12.703 -10.297,23 -23,23 -5.954,0 -11.384,-2.256 -15.469,-5.969 4.113,3.854 9.637,6.219 15.719,6.219 12.703,0 23,-10.298 23,-23 0,-6.081 -2.364,-11.606 -6.219,-15.719 z"
       style="opacity:0.1"
       inkscape:connector-curvature="0" />
    <path
       id="path168"
       d="M 31.25,2.375 C 39.865,5.529 46,13.792 46,23.505 c 0,12.426 -10.07,22.5 -22.5,22.5 -9.708,0 -17.971,-6.135 -21.12,-14.75 a 23,23 0 0 0 44.875,-7 23,23 0 0 0 -16,-21.875 z"
       style="opacity:0.2"
       inkscape:connector-curvature="0" />
    <path
       id="path170"
       d="M 24,1 C 36.703,1 47,11.297 47,24 47,36.703 36.703,47 24,47 11.297,47 1,36.703 1,24 1,11.297 11.297,1 24,1 Z"
       style="fill:url(#linearGradient3764)"
       inkscape:connector-curvature="0" />
    <g
       id="g172"
       transform="translate(1,1)" />
    <path
       id="path174"
       d="m 40.03,7.531 c 3.712,4.084 5.969,9.514 5.969,15.469 0,12.703 -10.297,23 -23,23 C 17.045,46 11.615,43.744 7.53,40.031 11.708,44.322 17.54,47 23.999,47 c 12.703,0 23,-10.298 23,-23 0,-6.462 -2.677,-12.291 -6.969,-16.469 z"
       style="opacity:0.1"
       inkscape:connector-curvature="0" />
    <path
       id="path176"
       d="m 25,12 c -4,0 -6,1 -6,2.75 V 18 h 6 v 1 H 15.75 C 13.811,19 12,21 12,25 c 0,4 1.811,6 3.75,6 H 18 v -3.5 c 0,-1.662 1.338,-3 3,-3 h 7 c 1.662,0 3,-1.338 3,-3 V 14.75 C 31,13 29,12 25,12 Z m 6.9961,7 v 3.5 c 0,1.662 -1.338,3 -3,3 h -7 c -1.662,0 -3,1.338 -3,3 v 6.75 c 0,1.75 2,2.75 6,2.75 4,0 6,-1 6,-2.75 V 32 h -6 v -1 h 9.25 c 1.939,0 3.754,-2 3.754,-6 0,-4 -1.815,-6 -3.754,-6 z"
       style="opacity:0.1"
       inkscape:connector-curvature="0" />
    <path
       id="path178"
       d="m 24,11 c -4,0 -6,1 -6,2.75 V 17 h 6 v 1 H 14.75 C 12.811,18 11,20 11,24 c 0,4 1.811,6 3.75,6 H 17 v -3.5 c 0,-1.662 1.338,-3 3,-3 h 7 c 1.662,0 3,-1.338 3,-3 V 13.75 C 30,12 28,11 24,11 Z"
       style="fill:#4085b0"
       inkscape:connector-curvature="0" />
    <path
       id="path180"
       d="m 23.997,37 c 4,0 6,-1 6,-2.75 V 31 h -6 v -1 h 9.2495 c 1.939,0 3.753,-2 3.753,-6 0,-4 -1.814,-6 -3.753,-6 h -2.249 v 3.5 c 0,1.662 -1.338,3 -3,3 h -7 c -1.662,0 -3,1.338 -3,3 v 6.75 c 0,1.75 2,2.75 6,2.75 z"
       style="fill:#f9f747"
       inkscape:connector-curvature="0" />
    <circle
       id="circle182"
       style="fill:#f9f9f9"
       r="1"
       cx="21"
       cy="14" />
    <circle
       id="circle184"
       style="fill:#f9f9f9"
       r="1"
       cx="27"
       cy="34" />
  </g>
  <g
     id="g377"
     transform="matrix(7.5000002,0,0,7.5000002,83.085501,809.8092)">
    <g
       id="g290">
      <path
         id="path284"
         style="opacity:0.05"
         d="m 36.31,5 c 5.859,4.062 9.688,10.831 9.688,18.5 0,12.426 -10.07,22.5 -22.5,22.5 -7.669,0 -14.438,-3.828 -18.5,-9.688 1.037,1.822 2.306,3.499 3.781,4.969 4.085,3.712 9.514,5.969 15.469,5.969 12.703,0 23,-10.298 23,-23 0,-5.954 -2.256,-11.384 -5.969,-15.469 C 39.81,7.306 38.132,6.037 36.31,5 Z m 4.969,3.781 c 3.854,4.113 6.219,9.637 6.219,15.719 0,12.703 -10.297,23 -23,23 -6.081,0 -11.606,-2.364 -15.719,-6.219 4.16,4.144 9.883,6.719 16.219,6.719 12.703,0 23,-10.298 23,-23 0,-6.335 -2.575,-12.06 -6.719,-16.219 z"
         inkscape:connector-curvature="0" />
      <path
         id="path286"
         style="opacity:0.1"
         d="m 41.28,8.781 c 3.712,4.085 5.969,9.514 5.969,15.469 0,12.703 -10.297,23 -23,23 -5.954,0 -11.384,-2.256 -15.469,-5.969 4.113,3.854 9.637,6.219 15.719,6.219 12.703,0 23,-10.298 23,-23 0,-6.081 -2.364,-11.606 -6.219,-15.719 z"
         inkscape:connector-curvature="0" />
      <path
         id="path288"
         style="opacity:0.2"
         d="M 31.25,2.375 C 39.865,5.529 46,13.792 46,23.505 c 0,12.426 -10.07,22.5 -22.5,22.5 -9.708,0 -17.971,-6.135 -21.12,-14.75 a 23,23 0 0 0 44.875,-7 23,23 0 0 0 -16,-21.875 z"
         inkscape:connector-curvature="0" />
    </g>
    <g
       id="g294">
      <path
         id="path292"
         style="fill:url(#linearGradient3764-5);fill-opacity:1"
         d="M 24,1 C 36.703,1 47,11.297 47,24 47,36.703 36.703,47 24,47 11.297,47 1,36.703 1,24 1,11.297 11.297,1 24,1 Z"
         inkscape:connector-curvature="0" />
    </g>
    <g
       id="g298">
      <path
         id="path296"
         style="opacity:0.1"
         d="m 40.03,7.531 c 3.712,4.084 5.969,9.514 5.969,15.469 0,12.703 -10.297,23 -23,23 C 17.045,46 11.615,43.744 7.53,40.031 11.708,44.322 17.54,47 23.999,47 c 12.703,0 23,-10.298 23,-23 0,-6.462 -2.677,-12.291 -6.969,-16.469 z"
         inkscape:connector-curvature="0" />
    </g>
    <g
       id="g318"
       style="opacity:0.1;fill:#000000"
       transform="translate(-5.7944709e-7,0.99999965)">
      <path
         id="path300"
         style="fill-opacity:1;fill-rule:nonzero;stroke:none"
         transform="matrix(0.46383647,0,0,0.52304963,46.603773,4.0851067)"
         d="m -35.797,18 c 0,2.64 -2.413,4.78 -5.39,4.78 -2.977,0 -5.39,-2.14 -5.39,-4.78 0,-2.64 2.413,-4.78 5.39,-4.78 2.977,0 5.39,2.14 5.39,4.78 z"
         inkscape:connector-curvature="0" />
      <path
         id="path302"
         style="fill-opacity:1;fill-rule:nonzero;stroke:none"
         d="m -35.797,18 c 0,2.64 -2.413,4.78 -5.39,4.78 -2.977,0 -5.39,-2.14 -5.39,-4.78 0,-2.64 2.413,-4.78 5.39,-4.78 2.977,0 5.39,2.14 5.39,4.78 z"
         transform="matrix(0.46383647,0,0,0.52304963,39.603773,10.085107)"
         inkscape:connector-curvature="0" />
      <path
         id="path304"
         style="fill-opacity:1;fill-rule:nonzero;stroke:none"
         transform="matrix(0.46383647,0,0,0.52304963,33.603773,16.085107)"
         d="m -35.797,18 c 0,2.64 -2.413,4.78 -5.39,4.78 -2.977,0 -5.39,-2.14 -5.39,-4.78 0,-2.64 2.413,-4.78 5.39,-4.78 2.977,0 5.39,2.14 5.39,4.78 z"
         inkscape:connector-curvature="0" />
      <path
         id="path306"
         style="fill-opacity:1;fill-rule:nonzero;stroke:none"
         d="m -35.797,18 c 0,2.64 -2.413,4.78 -5.39,4.78 -2.977,0 -5.39,-2.14 -5.39,-4.78 0,-2.64 2.413,-4.78 5.39,-4.78 2.977,0 5.39,2.14 5.39,4.78 z"
         transform="matrix(0.46383647,0,0,0.52304963,42.603773,16.085107)"
         inkscape:connector-curvature="0" />
      <path
         id="path308"
         style="fill-opacity:1;fill-rule:nonzero;stroke:none"
         transform="matrix(0.46383647,0,0,0.52304963,49.603773,10.085107)"
         d="m -35.797,18 c 0,2.64 -2.413,4.78 -5.39,4.78 -2.977,0 -5.39,-2.14 -5.39,-4.78 0,-2.64 2.413,-4.78 5.39,-4.78 2.977,0 5.39,2.14 5.39,4.78 z"
         inkscape:connector-curvature="0" />
      <path
         id="path310"
         style="fill-opacity:1;fill-rule:nonzero;stroke:none"
         d="m -35.797,18 c 0,2.64 -2.413,4.78 -5.39,4.78 -2.977,0 -5.39,-2.14 -5.39,-4.78 0,-2.64 2.413,-4.78 5.39,-4.78 2.977,0 5.39,2.14 5.39,4.78 z"
         transform="matrix(0.46383647,0,0,0.52304963,51.603773,16.085107)"
         inkscape:connector-curvature="0" />
      <path
         id="path312"
         style="fill-opacity:1;fill-rule:nonzero;stroke:none"
         transform="matrix(0.46383647,0,0,0.52304963,53.603773,22.085107)"
         d="m -35.797,18 c 0,2.64 -2.413,4.78 -5.39,4.78 -2.977,0 -5.39,-2.14 -5.39,-4.78 0,-2.64 2.413,-4.78 5.39,-4.78 2.977,0 5.39,2.14 5.39,4.78 z"
         inkscape:connector-curvature="0" />
      <path
         id="path314"
         style="fill-opacity:1;fill-rule:nonzero;stroke:none"
         transform="matrix(0.46383647,0,0,0.52304963,44.603773,22.085107)"
         d="m -35.797,18 c 0,2.64 -2.413,4.78 -5.39,4.78 -2.977,0 -5.39,-2.14 -5.39,-4.78 0,-2.64 2.413,-4.78 5.39,-4.78 2.977,0 5.39,2.14 5.39,4.78 z"
         inkscape:connector-curvature="0" />
      <path
         id="path316"
         style="fill-opacity:1;fill-rule:nonzero;stroke:none"
         d="m -35.797,18 c 0,2.64 -2.413,4.78 -5.39,4.78 -2.977,0 -5.39,-2.14 -5.39,-4.78 0,-2.64 2.413,-4.78 5.39,-4.78 2.977,0 5.39,2.14 5.39,4.78 z"
         transform="matrix(0.46383647,0,0,0.52304963,36.603773,22.085107)"
         inkscape:connector-curvature="0" />
    </g>
    <g
       id="g338"
       transform="translate(-1.0000003)">
      <path
         id="path320"
         style="fill:#ff2a2a;fill-opacity:1;fill-rule:nonzero;stroke:none"
         d="m -35.797,18 c 0,2.64 -2.413,4.78 -5.39,4.78 -2.977,0 -5.39,-2.14 -5.39,-4.78 0,-2.64 2.413,-4.78 5.39,-4.78 2.977,0 5.39,2.14 5.39,4.78 z"
         transform="matrix(0.46383647,0,0,0.52304963,46.603773,4.0851067)"
         inkscape:connector-curvature="0" />
      <path
         id="path322"
         style="fill:#ff2a2a;fill-opacity:1;fill-rule:nonzero;stroke:none"
         transform="matrix(0.46383647,0,0,0.52304963,39.603773,10.085107)"
         d="m -35.797,18 c 0,2.64 -2.413,4.78 -5.39,4.78 -2.977,0 -5.39,-2.14 -5.39,-4.78 0,-2.64 2.413,-4.78 5.39,-4.78 2.977,0 5.39,2.14 5.39,4.78 z"
         inkscape:connector-curvature="0" />
      <path
         id="path324"
         style="fill:#d40000;fill-opacity:1;fill-rule:nonzero;stroke:none"
         d="m -35.797,18 c 0,2.64 -2.413,4.78 -5.39,4.78 -2.977,0 -5.39,-2.14 -5.39,-4.78 0,-2.64 2.413,-4.78 5.39,-4.78 2.977,0 5.39,2.14 5.39,4.78 z"
         transform="matrix(0.46383647,0,0,0.52304963,33.603773,16.085107)"
         inkscape:connector-curvature="0" />
      <path
         id="path326"
         style="fill:#ff5555;fill-opacity:1;fill-rule:nonzero;stroke:none"
         transform="matrix(0.46383647,0,0,0.52304963,42.603773,16.085107)"
         d="m -35.797,18 c 0,2.64 -2.413,4.78 -5.39,4.78 -2.977,0 -5.39,-2.14 -5.39,-4.78 0,-2.64 2.413,-4.78 5.39,-4.78 2.977,0 5.39,2.14 5.39,4.78 z"
         inkscape:connector-curvature="0" />
      <path
         id="path328"
         style="fill:#ff5555;fill-opacity:1;fill-rule:nonzero;stroke:none"
         d="m -35.797,18 c 0,2.64 -2.413,4.78 -5.39,4.78 -2.977,0 -5.39,-2.14 -5.39,-4.78 0,-2.64 2.413,-4.78 5.39,-4.78 2.977,0 5.39,2.14 5.39,4.78 z"
         transform="matrix(0.46383647,0,0,0.52304963,49.603773,10.085107)"
         inkscape:connector-curvature="0" />
      <path
         id="path330"
         style="fill:#ffaaaa;fill-opacity:1;fill-rule:nonzero;stroke:none"
         transform="matrix(0.46383647,0,0,0.52304963,51.603773,16.085107)"
         d="m -35.797,18 c 0,2.64 -2.413,4.78 -5.39,4.78 -2.977,0 -5.39,-2.14 -5.39,-4.78 0,-2.64 2.413,-4.78 5.39,-4.78 2.977,0 5.39,2.14 5.39,4.78 z"
         inkscape:connector-curvature="0" />
      <path
         id="path332"
         style="fill:#f9f9f9;fill-opacity:1;fill-rule:nonzero;stroke:none"
         d="m -35.797,18 c 0,2.64 -2.413,4.78 -5.39,4.78 -2.977,0 -5.39,-2.14 -5.39,-4.78 0,-2.64 2.413,-4.78 5.39,-4.78 2.977,0 5.39,2.14 5.39,4.78 z"
         transform="matrix(0.46383647,0,0,0.52304963,53.603773,22.085107)"
         inkscape:connector-curvature="0" />
      <path
         id="path334"
         style="fill:#ffaaaa;fill-opacity:1;fill-rule:nonzero;stroke:none"
         d="m -35.797,18 c 0,2.64 -2.413,4.78 -5.39,4.78 -2.977,0 -5.39,-2.14 -5.39,-4.78 0,-2.64 2.413,-4.78 5.39,-4.78 2.977,0 5.39,2.14 5.39,4.78 z"
         transform="matrix(0.46383647,0,0,0.52304963,44.603773,22.085107)"
         inkscape:connector-curvature="0" />
      <path
         id="path336"
         style="fill:#d40000;fill-opacity:1;fill-rule:nonzero;stroke:none"
         transform="matrix(0.46383647,0,0,0.52304963,36.603773,22.085107)"
         d="m -35.797,18 c 0,2.64 -2.413,4.78 -5.39,4.78 -2.977,0 -5.39,-2.14 -5.39,-4.78 0,-2.64 2.413,-4.78 5.39,-4.78 2.977,0 5.39,2.14 5.39,4.78 z"
         inkscape:connector-curvature="0" />
    </g>
  </g>
  <g
     id="g483"
     transform="matrix(7.8048449,0,0,7.4052935,744.67251,822.54592)">
    <g
       id="g435">
      <path
         id="path429"
         style="opacity:0.05"
         d="m 36.31,5 c 5.859,4.062 9.688,10.831 9.688,18.5 0,12.426 -10.07,22.5 -22.5,22.5 -7.669,0 -14.438,-3.828 -18.5,-9.688 1.037,1.822 2.306,3.499 3.781,4.969 4.085,3.712 9.514,5.969 15.469,5.969 12.703,0 23,-10.298 23,-23 0,-5.954 -2.256,-11.384 -5.969,-15.469 C 39.81,7.306 38.132,6.037 36.31,5 Z m 4.969,3.781 c 3.854,4.113 6.219,9.637 6.219,15.719 0,12.703 -10.297,23 -23,23 -6.081,0 -11.606,-2.364 -15.719,-6.219 4.16,4.144 9.883,6.719 16.219,6.719 12.703,0 23,-10.298 23,-23 0,-6.335 -2.575,-12.06 -6.719,-16.219 z"
         inkscape:connector-curvature="0" />
      <path
         id="path431"
         style="opacity:0.1"
         d="m 41.28,8.781 c 3.712,4.085 5.969,9.514 5.969,15.469 0,12.703 -10.297,23 -23,23 -5.954,0 -11.384,-2.256 -15.469,-5.969 4.113,3.854 9.637,6.219 15.719,6.219 12.703,0 23,-10.298 23,-23 0,-6.081 -2.364,-11.606 -6.219,-15.719 z"
         inkscape:connector-curvature="0" />
      <path
         id="path433"
         style="opacity:0.2"
         d="M 31.25,2.375 C 39.865,5.529 46,13.792 46,23.505 c 0,12.426 -10.07,22.5 -22.5,22.5 -9.708,0 -17.971,-6.135 -21.12,-14.75 a 23,23 0 0 0 44.875,-7 23,23 0 0 0 -16,-21.875 z"
         inkscape:connector-curvature="0" />
    </g>
    <path
       id="path437"
       style="fill:url(#linearGradient4325);fill-opacity:1"
       d="M 47,24 C 47,36.703 36.703,47 24,47 11.297,47 1,36.703 1,24 1,11.297 11.297,1 24,1 36.703,1 47,11.297 47,24 Z"
       inkscape:connector-curvature="0" />
    <g
       id="g449">
      <g
         id="g447">
        <g
           id="g445"
           transform="translate(1,1)">
          <g
             id="g443"
             style="opacity:0.1">
            <!-- color: #d8466e -->
            <g
               id="g441">
              <path
                 id="path439"
                 style="fill:#000000;fill-opacity:1;fill-rule:nonzero;stroke:none"
                 d="m 29.23,12.06 c -0.426,0.34 -1.68,2.719 -2.934,5.555 -0.508,1.156 -1.227,2.668 -1.59,3.363 -1.078,2.059 -3.711,5.805 -4.93,7 l -1.137,1.125 0.848,0.926 c 0.52,0.57 1.207,1.754 1.777,3.078 1.082,2.523 1.27,2.887 1.477,2.887 0.098,0 0.652,-0.313 1.27,-0.707 1.379,-0.895 2.668,-2.098 4.422,-4.145 2.738,-3.191 4.793,-3.867 7.324,-2.402 0.684,0.398 1.246,0.648 1.246,0.555 0,-0.098 -0.348,-1.059 -0.766,-2.141 -0.418,-1.082 -1.559,-4.137 -2.527,-6.789 -0.691,-1.164 -2.949,-9.117 -4.48,-8.297 m -5.457,6.527 c -0.012,0 -0.027,0 -0.043,0.008 -2.316,1.039 -3.152,1.512 -3.836,2.172 -0.449,0.441 -0.816,0.91 -0.816,1.047 0,0.426 1.824,1.563 2.125,1.324 0.145,-0.117 0.715,-0.953 1.266,-1.863 0.973,-1.621 1.477,-2.664 1.305,-2.688 m -6.484,4.59 c -0.395,0 -5.992,2.168 -6.258,2.426 -0.078,0.074 0.004,0.211 0.184,0.313 0.18,0.105 1.203,0.805 2.289,1.559 1.082,0.754 2.023,1.367 2.09,1.371 0.066,0 0.563,-0.266 1.094,-0.594 1.117,-0.688 3.273,-2.816 3.262,-3.223 -0.008,-0.363 -2.156,-1.855 -2.664,-1.855 m 0.004,0.004"
                 inkscape:connector-curvature="0" />
            </g>
          </g>
        </g>
      </g>
    </g>
    <path
       id="path451"
       style="fill:#f67e17;fill-opacity:1;fill-rule:nonzero;stroke:none"
       d="m 29.525,12.01 c -0.101,-0.013 -0.199,0.003 -0.295,0.055 v -0.008 c -0.426,0.34 -1.68,2.719 -2.934,5.555 -0.508,1.156 -1.229,2.668 -1.592,3.363 -1.078,2.059 -3.711,5.805 -4.93,7 l -1.137,1.125 0.848,0.926 c 0.52,0.57 1.207,1.754 1.777,3.078 1.082,2.523 1.27,2.887 1.477,2.887 0.098,0 0.653,-0.313 1.271,-0.707 1.379,-0.895 2.668,-2.098 4.422,-4.145 2.738,-3.191 4.793,-3.867 7.324,-2.402 0.684,0.398 1.246,0.648 1.246,0.555 0,-0.098 -0.35,-1.059 -0.768,-2.141 -0.418,-1.082 -1.557,-4.137 -2.525,-6.789 -0.648,-1.091 -2.673,-8.149 -4.186,-8.352 z"
       inkscape:connector-curvature="0" />
    <path
       id="path453"
       style="fill:#62cbcb;fill-opacity:1;fill-rule:nonzero;stroke:none"
       d="m 23.773,18.596 c -0.012,0 -0.027,0 -0.043,0.008 -2.316,1.039 -3.152,1.512 -3.836,2.172 -0.449,0.441 -0.816,0.91 -0.816,1.047 0,0.426 1.824,1.563 2.125,1.324 0.145,-0.117 0.715,-0.953 1.266,-1.863 0.973,-1.621 1.477,-2.663 1.305,-2.688 z m -6.486,4.586 0.002,0.004 c -0.395,0 -5.992,2.168 -6.258,2.426 -0.078,0.074 0.006,0.21 0.186,0.313 0.18,0.105 1.203,0.805 2.289,1.559 1.082,0.754 2.023,1.367 2.09,1.371 0.066,0 0.563,-0.266 1.094,-0.594 1.117,-0.688 3.273,-2.816 3.262,-3.223 -0.008,-0.363 -2.156,-1.855 -2.664,-1.855 z"
       inkscape:connector-curvature="0" />
    <g
       id="g457">
      <path
         id="path455"
         style="opacity:0.1"
         d="m 40.03,7.531 c 3.712,4.084 5.969,9.514 5.969,15.469 0,12.703 -10.297,23 -23,23 C 17.045,46 11.615,43.744 7.53,40.031 11.708,44.322 17.54,47 23.999,47 c 12.703,0 23,-10.298 23,-23 0,-6.462 -2.677,-12.291 -6.969,-16.469 z"
         inkscape:connector-curvature="0" />
    </g>
  </g>
  <g
     id="g619"
     transform="matrix(7.5000002,0,0,7.5000002,82.905844,316.9865)">
    <g
       id="g553">
      <path
         id="path547"
         style="opacity:0.05"
         d="m 36.31,5 c 5.859,4.062 9.688,10.831 9.688,18.5 0,12.426 -10.07,22.5 -22.5,22.5 -7.669,0 -14.438,-3.828 -18.5,-9.688 1.037,1.822 2.306,3.499 3.781,4.969 4.085,3.712 9.514,5.969 15.469,5.969 12.703,0 23,-10.298 23,-23 0,-5.954 -2.256,-11.384 -5.969,-15.469 C 39.81,7.306 38.132,6.037 36.31,5 Z m 4.969,3.781 c 3.854,4.113 6.219,9.637 6.219,15.719 0,12.703 -10.297,23 -23,23 -6.081,0 -11.606,-2.364 -15.719,-6.219 4.16,4.144 9.883,6.719 16.219,6.719 12.703,0 23,-10.298 23,-23 0,-6.335 -2.575,-12.06 -6.719,-16.219 z"
         inkscape:connector-curvature="0" />
      <path
         id="path549"
         style="opacity:0.1"
         d="m 41.28,8.781 c 3.712,4.085 5.969,9.514 5.969,15.469 0,12.703 -10.297,23 -23,23 -5.954,0 -11.384,-2.256 -15.469,-5.969 4.113,3.854 9.637,6.219 15.719,6.219 12.703,0 23,-10.298 23,-23 0,-6.081 -2.364,-11.606 -6.219,-15.719 z"
         inkscape:connector-curvature="0" />
      <path
         id="path551"
         style="opacity:0.2"
         d="M 31.25,2.375 C 39.865,5.529 46,13.792 46,23.505 c 0,12.426 -10.07,22.5 -22.5,22.5 -9.708,0 -17.971,-6.135 -21.12,-14.75 a 23,23 0 0 0 44.875,-7 23,23 0 0 0 -16,-21.875 z"
         inkscape:connector-curvature="0" />
    </g>
    <g
       id="g557">
      <path
         id="path555"
         style="fill:url(#linearGradient3764-9);fill-opacity:1"
         d="M 24,1 C 36.703,1 47,11.297 47,24 47,36.703 36.703,47 24,47 11.297,47 1,36.703 1,24 1,11.297 11.297,1 24,1 Z"
         inkscape:connector-curvature="0" />
    </g>
    <g
       id="g571">
      <g
         id="g569">
        <g
           id="g567"
           transform="translate(1,1)">
          <g
             id="g565"
             style="opacity:0.1">
            <!-- color: #eeeeee -->
            <g
               id="g563">
              <path
                 id="path559"
                 style="fill:#000000;fill-opacity:1;fill-rule:evenodd;stroke:none"
                 d="M 25.996,12 H 26 c 6.648,0 12,5.352 12,12 v 0.004 C 38,30.649 32.648,36 26,36 H 25.996 C 19.351,36 14,30.648 14,24.004 V 24 c 0,-6.648 5.352,-12 11.996,-12 m 0,0"
                 inkscape:connector-curvature="0" />
              <path
                 id="path561"
                 style="fill:#000000;fill-opacity:1;fill-rule:evenodd;stroke:none"
                 d="m 21,12 c -6.648,0 -12,5.352 -12,12 0,6.648 5.352,12 12,12 0.34,0 0.664,-0.035 1,-0.063 C 15.828,35.425 11,30.304 11,23.999 11,17.69 15.828,12.569 22,12.061 21.664,12.03 21.34,11.995 21,11.995 m 0,0.004"
                 inkscape:connector-curvature="0" />
            </g>
          </g>
        </g>
      </g>
    </g>
    <g
       id="g583">
      <g
         id="g581">
        <!-- color: #eeeeee -->
        <g
           id="g579">
          <path
             id="path573"
             style="fill:#2c2053;fill-opacity:1;fill-rule:evenodd;stroke:none"
             d="M 25.996,12 H 26 c 6.648,0 12,5.352 12,12 v 0.004 C 38,30.649 32.648,36 26,36 H 25.996 C 19.351,36 14,30.648 14,24.004 V 24 c 0,-6.648 5.352,-12 11.996,-12 m 0,0"
             inkscape:connector-curvature="0" />
          <path
             id="path575"
             style="fill:#f4941e;fill-opacity:1;fill-rule:evenodd;stroke:none"
             d="m 21,12 c -6.648,0 -12,5.352 -12,12 0,6.648 5.352,12 12,12 0.34,0 0.664,-0.035 1,-0.063 C 15.828,35.425 11,30.304 11,23.999 11,17.69 15.828,12.569 22,12.061 21.664,12.03 21.34,11.995 21,11.995 m 0,0.004"
             inkscape:connector-curvature="0" />
          <path
             id="path577"
             style="fill:#f9f9f9;fill-opacity:1;fill-rule:nonzero;stroke:none"
             d="m 15.09,19 c -0.293,0.641 -0.539,1.305 -0.719,2 h 23.25 c -0.18,-0.695 -0.426,-1.359 -0.719,-2 m -22.844,4 c -0.027,0.336 -0.063,0.66 -0.063,1 0,0.34 0.035,0.664 0.063,1 h 23.875 c 0.027,-0.336 0.063,-0.66 0.063,-1 0,-0.34 -0.035,-0.664 -0.063,-1 M 14.37,27 c 0.18,0.695 0.43,1.359 0.719,2 h 21.813 c 0.293,-0.641 0.543,-1.305 0.719,-2 m -23.25,0"
             inkscape:connector-curvature="0" />
        </g>
      </g>
    </g>
    <g
       id="g587">
      <path
         id="path585"
         style="opacity:0.1"
         d="m 40.03,7.531 c 3.712,4.084 5.969,9.514 5.969,15.469 0,12.703 -10.297,23 -23,23 C 17.045,46 11.615,43.744 7.53,40.031 11.708,44.322 17.54,47 23.999,47 c 12.703,0 23,-10.298 23,-23 0,-6.462 -2.677,-12.291 -6.969,-16.469 z"
         inkscape:connector-curvature="0" />
    </g>
  </g>
  <g
     id="g201"
     transform="matrix(7.5000002,0,0,7.5000002,411.88626,576.63865)">
    <g
       id="g15">
      <path
         id="path9"
         style="opacity:0.05"
         d="m 36.31,5 c 5.859,4.062 9.688,10.831 9.688,18.5 0,12.426 -10.07,22.5 -22.5,22.5 -7.669,0 -14.438,-3.828 -18.5,-9.688 1.037,1.822 2.306,3.499 3.781,4.969 4.085,3.712 9.514,5.969 15.469,5.969 12.703,0 23,-10.298 23,-23 0,-5.954 -2.256,-11.384 -5.969,-15.469 C 39.81,7.306 38.132,6.037 36.31,5 Z m 4.969,3.781 c 3.854,4.113 6.219,9.637 6.219,15.719 0,12.703 -10.297,23 -23,23 -6.081,0 -11.606,-2.364 -15.719,-6.219 4.16,4.144 9.883,6.719 16.219,6.719 12.703,0 23,-10.298 23,-23 0,-6.335 -2.575,-12.06 -6.719,-16.219 z"
         inkscape:connector-curvature="0" />
      <path
         id="path11"
         style="opacity:0.1"
         d="m 41.28,8.781 c 3.712,4.085 5.969,9.514 5.969,15.469 0,12.703 -10.297,23 -23,23 -5.954,0 -11.384,-2.256 -15.469,-5.969 4.113,3.854 9.637,6.219 15.719,6.219 12.703,0 23,-10.298 23,-23 0,-6.081 -2.364,-11.606 -6.219,-15.719 z"
         inkscape:connector-curvature="0" />
      <path
         id="path13"
         style="opacity:0.2"
         d="M 31.25,2.375 C 39.865,5.529 46,13.792 46,23.505 c 0,12.426 -10.07,22.5 -22.5,22.5 -9.708,0 -17.971,-6.135 -21.12,-14.75 a 23,23 0 0 0 44.875,-7 23,23 0 0 0 -16,-21.875 z"
         inkscape:connector-curvature="0" />
    </g>
    <g
       id="g19">
      <path
         id="path17"
         style="fill:url(#linearGradient3764-51);fill-opacity:1"
         d="M 24,1 C 36.703,1 47,11.297 47,24 47,36.703 36.703,47 24,47 11.297,47 1,36.703 1,24 1,11.297 11.297,1 24,1 Z"
         inkscape:connector-curvature="0" />
    </g>
    <g
       id="g27">
      <g
         id="g25">
        <g
           id="g23"
           transform="translate(1,1)">
          <g
             id="g21"
             style="opacity:0.1">
            <!-- color: #87b23e -->
          </g>
        </g>
      </g>
    </g>
    <g
       id="g31">
      <g
         id="g29">
        <!-- color: #87b23e -->
      </g>
    </g>
    <g
       id="g35">
      <path
         id="path33"
         style="opacity:0.1"
         d="m 40.03,7.531 c 3.712,4.084 5.969,9.514 5.969,15.469 0,12.703 -10.297,23 -23,23 C 17.045,46 11.615,43.744 7.53,40.031 11.708,44.322 17.54,47 23.999,47 c 12.703,0 23,-10.298 23,-23 0,-6.462 -2.677,-12.291 -6.969,-16.469 z"
         inkscape:connector-curvature="0" />
    </g>
    <rect
       y="0.81355852"
       x="18.61017"
       height="22.372881"
       width="10.576271"
       id="rect49"
       style="fill:#ffffff;stroke:#376400;stroke-opacity:1" />
    <rect
       transform="rotate(-59.631175)"
       y="33.156143"
       x="-13.385621"
       height="22.372881"
       width="10.576271"
       id="rect49-1"
       style="fill:#ffffff;stroke:#376400;stroke-opacity:1" />
    <rect
       transform="rotate(58.973485)"
       y="-7.7720933"
       x="27.06461"
       height="22.372881"
       width="10.576271"
       id="rect49-1-6"
       style="fill:#ffffff;stroke:#376400;stroke-opacity:1" />
    <ellipse
       ry="8.5423727"
       rx="8.3389826"
       cy="24.033897"
       cx="23.796614"
       id="path100"
       style="fill:#ffffff;stroke:#376400;stroke-opacity:1" />
    <path
       id="path17-7"
       style="fill:url(#linearGradient3764-7-7);fill-opacity:1;stroke:none;stroke-width:0.2;stroke-opacity:1"
       d="m 23.796611,19.433898 c 2.5406,0 4.6,2.0594 4.6,4.6 0,2.5406 -2.0594,4.6 -4.6,4.6 -2.5406,0 -4.6,-2.0594 -4.6,-4.6 0,-2.5406 2.0594,-4.6 4.6,-4.6 z"
       inkscape:connector-curvature="0" />
  </g>
  <rect
     style="fill:#ff2a2a;stroke:#376400;stroke-width:0.69479233;stroke-opacity:1"
     id="rect205"
     width="1197.5764"
     height="343.92175"
     x="-2.4322634"
     y="1339.8854" />
  <text
     xml:space="preserve"
     style="font-style:normal;font-weight:normal;font-size:72px;line-height:125%;font-family:sans-serif;letter-spacing:0px;word-spacing:0px;fill:#000000;fill-opacity:1;stroke:none;stroke-width:0.75px;stroke-linecap:butt;stroke-linejoin:miter;stroke-opacity:1"
     x="76.949158"
     y="1424.0762"
     id="text209"><tspan
       sodipodi:role="line"
       id="tspan207"
       x="76.949158"
       y="1424.0762"
       style="stroke-width:0.75px;fill:#ffffff">Pythonで手軽に使える!!!</tspan><tspan
       sodipodi:role="line"
       x="76.949158"
       y="1519.2634"
       style="stroke-width:0.75px;fill:#ffffff"
       id="tspan211">AI時代の物理シュミレーション</tspan><tspan
       sodipodi:role="line"
       x="76.949158"
       y="1614.4506"
       style="stroke-width:0.75px;fill:#ffffff"
       id="tspan213">ライブラリ</tspan></text>
</svg>
