<?xml version="1.0" encoding="UTF-8" standalone="no"?>
<svg
   xmlns:dc="http://purl.org/dc/elements/1.1/"
   xmlns:cc="http://creativecommons.org/ns#"
   xmlns:rdf="http://www.w3.org/1999/02/22-rdf-syntax-ns#"
   xmlns:svg="http://www.w3.org/2000/svg"
   xmlns="http://www.w3.org/2000/svg"
   xmlns:sodipodi="http://sodipodi.sourceforge.net/DTD/sodipodi-0.dtd"
   xmlns:inkscape="http://www.inkscape.org/namespaces/inkscape"
   version="1.0"
   width="420mm"
   height="594mm"
   viewBox="0 0 1190.5512 1683.7796"
   preserveAspectRatio="xMidYMid meet"
   id="svg30"
   sodipodi:docname="getfem-tutorial-face.svg"
   inkscape:version="0.92.3 (2405546, 2018-03-11)">
  <metadata
     id="metadata36">
    <rdf:RDF>
      <cc:Work
         rdf:about="">
        <dc:format>image/svg+xml</dc:format>
        <dc:type
           rdf:resource="http://purl.org/dc/dcmitype/StillImage" />
        <dc:title />
      </cc:Work>
    </rdf:RDF>
  </metadata>
  <defs
     id="defs34" />
  <sodipodi:namedview
     pagecolor="#ffffff"
     bordercolor="#666666"
     borderopacity="1"
     objecttolerance="10"
     gridtolerance="10"
     guidetolerance="10"
     inkscape:pageopacity="0"
     inkscape:pageshadow="2"
     inkscape:window-width="1920"
     inkscape:window-height="1052"
     id="namedview32"
     showgrid="false"
     units="mm"
     inkscape:zoom="0.31189427"
     inkscape:cx="1494.425"
     inkscape:cy="1076.8916"
     inkscape:window-x="0"
     inkscape:window-y="-1"
     inkscape:window-maximized="1"
     inkscape:current-layer="svg30" />
  <path
     style="fill:#4caf50;stroke:none;stroke-width:0.09205379"
     inkscape:connector-curvature="0"
     id="path2"
     d="m 481.91532,418.77478 c -4.51064,0.46026 -15.37299,1.47286 -24.02604,2.20929 -119.66993,10.77029 -217.06284,62.68863 -278.27861,148.48276 -22.09291,30.93007 -39.12286,68.02775 -48.42029,105.40159 -8.83717,35.62482 -9.20538,57.62567 -1.1967,78.24572 l 2.76161,7.08814 -2.11724,3.49805 c -6.81198,11.04645 -19.97567,28.35256 -54.679948,71.52579 -53.022983,66.00257 -66.6469438,85.88619 -73.6430319,107.33472 -2.94572125,9.11333 -2.85366746,10.58619 0.2761614,17.67433 4.2344743,9.20538 11.8749385,15.28093 32.1267725,25.40684 6.259658,3.12983 9.573594,4.05037 19.147189,5.61529 12.243154,1.93312 16.477628,3.31393 20.527995,6.44376 6.719926,5.33914 7.180195,10.67824 2.485452,25.77504 -1.749022,5.6153 -3.221883,11.1385 -3.221883,12.2432 0,3.3139 -4.050366,11.0464 -9.573594,18.3187 -5.983496,8.0087 -7.916626,12.1511 -7.916626,17.3061 0,7.5484 4.050367,13.2557 15.833252,22.185 3.958313,3.0377 7.548411,6.2596 8.100734,7.2722 1.656968,3.1298 0,6.2597 -7.548411,14.5445 -7.640465,8.2848 -10.862347,13.3478 -10.862347,16.9379 0,2.8537 2.301344,6.3517 9.665648,14.5445 13.992176,15.6491 19.975672,27.9844 18.502811,38.4785 -0.276161,2.3934 -4.050366,14.9127 -8.376894,27.8002 -9.481541,28.997 -10.954401,35.7169 -10.402079,48.6965 0.552323,11.3226 1.841076,15.0048 9.113325,25.4989 12.243155,17.7664 29.917484,29.8254 53.299144,36.5453 l 7.82457,2.3014 76.40465,0.5523 76.40464,0.6444 4.23448,4.5106 c 12.33521,12.9796 24.11809,51.6422 33.59963,110.0043 2.3934,14.7286 2.66956,15.9253 3.68215,14.9127 2.48546,-2.3934 20.25184,-102.8241 27.43203,-155.2947 7.1802,-51.366 10.12592,-84.2293 10.12592,-113.2262 0.092,-23.1975 -0.64438,-28.5367 -6.44377,-45.2905 -4.41858,-12.9795 -17.02995,-38.1102 -26.8797,-53.7594 -4.51064,-7.1802 -15.7412,-23.8419 -24.94658,-37.0976 -29.91748,-42.8971 -37.28178,-56.15286 -48.42029,-86.07034 -17.49022,-47.13154 -28.35257,-95.73594 -31.85061,-141.57873 -1.1967,-16.20147 -0.64438,-61.49193 1.01259,-74.37946 6.35171,-51.73423 20.62005,-96.38032 43.54144,-136.23961 49.43289,-86.25441 135.13496,-147.00991 246.88827,-175.17837 21.17237,-5.33912 44.09376,-9.7577 62.96479,-12.1511 3.12983,-0.46027 4.51063,-0.92053 3.68215,-1.3808 -1.65697,-0.92054 -22.46113,-3.31394 -39.49108,-4.60269 -7.3643,-0.55233 -18.13459,-1.38081 -24.11809,-1.84108 -12.51932,-1.10464 -35.44071,-1.01259 -47.22359,0.0921 z" />
  <path
     style="fill:#ff0000;stroke:none;stroke-width:0.09205379"
     inkscape:connector-curvature="0"
     id="path4"
     d="m 641.62864,423.28541 c -18.77897,1.01259 -28.90489,2.02518 -27.52408,2.76161 0.73643,0.36822 6.07555,1.56492 11.87494,2.66956 26.14327,5.06296 62.32041,15.64915 86.99083,25.40685 113.87054,45.19841 191.93215,130.16406 219.82445,239.33985 8.46895,32.95526 11.69083,59.65086 11.69083,96.19622 0,60.47934 -11.59878,117.9209 -37.00562,183.83141 -7.1802,18.68692 -17.12201,35.80889 -38.47849,66.55489 -16.66173,23.8419 -28.44462,41.6083 -34.98044,52.4707 -14.91271,24.6704 -26.51149,53.7594 -28.44462,71.0655 -3.49804,31.1142 3.77421,104.5731 19.79157,200.0329 6.25965,37.1897 17.21406,93.9869 18.3187,95.0915 0.46027,0.5524 0.92054,-1.749 3.31394,-16.3855 8.46895,-53.8515 21.26442,-94.5393 33.50758,-107.4268 l 3.86626,-3.9583 42.71295,-0.092 c 23.47372,-0.092 58.63827,-0.3682 78.15366,-0.7364 l 35.4407,-0.6444 8.7451,-2.9457 c 20.8962,-6.9961 36.6374,-18.2267 48.2362,-34.5202 7.3643,-10.4021 9.2054,-15.373 9.5736,-26.6035 0.4603,-13.1637 -1.0126,-19.9757 -10.5862,-48.6044 -4.2344,-12.8875 -8.0087,-25.591 -8.2848,-28.1685 -0.6444,-6.2596 2.2093,-15.6491 6.904,-23.0134 2.0252,-3.0378 7.4564,-9.9418 12.0591,-15.373 4.7868,-5.5232 8.653,-10.8624 8.9292,-12.3352 0.8285,-4.1424 -1.5649,-8.561 -9.0213,-17.03 -12.5193,-14.0842 -12.5193,-14.5445 -1.3808,-23.0134 9.3895,-7.1802 13.0716,-11.1385 15.0048,-16.1094 2.3934,-6.2597 1.3808,-12.2432 -3.2219,-18.779 -2.0252,-2.9457 -5.4312,-7.8246 -7.4564,-10.7703 -2.0252,-2.8537 -4.1424,-7.3643 -4.6947,-9.8498 -0.5523,-2.5775 -2.4855,-9.3894 -4.2345,-15.1888 -4.1424,-13.4399 -3.9583,-18.6869 0.6444,-23.4737 4.1424,-4.32657 10.31,-6.71997 21.3565,-8.37694 13.1637,-1.93313 12.7034,-1.74902 26.4194,-9.02127 15.1889,-8.10073 22.277,-14.17628 26.0512,-22.36907 3.1299,-7.08814 3.2219,-8.19279 0.1841,-17.30611 -7.1802,-21.9088 -19.5154,-40.0434 -70.8814,-104.11284 -44.8302,-55.87665 -59.927,-76.22054 -59.0065,-79.35037 0.2762,-0.92053 1.565,-4.32652 2.8537,-7.73251 6.2597,-16.56969 6.812,-36.63741 1.5649,-61.95221 C 1025.1247,569.09861 930.12522,473.27062 797.19955,438.10607 749.69979,425.58676 696.12449,420.43174 641.62864,423.28541 Z" />
  <path
     style="fill:#4caf50;stroke:none;stroke-width:0.09205379"
     inkscape:connector-curvature="0"
     id="path6"
     d="m 538.98867,501.25497 c -71.06553,6.35171 -127.40245,26.60355 -170.29952,61.30783 -10.03386,8.10073 -27.15586,25.86711 -35.07249,36.54535 -36.82152,49.06467 -52.65477,113.41027 -48.32824,196.53484 4.69474,90.21272 24.76247,144.80061 70.14499,190.09108 4.41858,4.41858 17.67433,16.56973 29.54927,26.87973 11.78288,10.4021 24.67041,22.277 28.53667,26.4194 28.07641,29.8254 40.13545,60.0191 43.44939,108.7155 l 1.01259,15.1889 60.57139,0.2762 60.47934,0.1841 -0.1841,-331.1175 -0.27616,-331.20954 -17.95049,-0.092 c -9.84976,0 -19.60746,0.092 -21.63264,0.27616 z" />
  <path
     style="fill:#4caf50;stroke:none;stroke-width:0.09205379"
     inkscape:connector-curvature="0"
     id="path8"
     d="m 623.21788,507.79079 c -18.3187,9.38949 -21.63264,14.45245 -21.54058,33.32347 0,9.29743 0.36821,11.32262 2.48545,16.66174 1.38081,3.31393 2.48545,7.18019 2.48545,8.561 0,1.47286 -2.3934,6.35171 -5.70733,11.87494 -9.48154,15.46504 -10.9544,22.18496 -6.53582,31.11418 1.3808,2.66956 4.69474,7.1802 7.3643,9.84976 2.66956,2.66956 4.87885,5.24706 4.87885,5.61528 0,0.36821 -1.28875,1.84107 -2.85367,3.40599 -3.68215,3.40599 -5.06295,6.25966 -5.89144,11.50672 -0.64438,4.05037 -0.46027,4.41858 2.66956,7.54841 1.84108,1.84108 3.31394,3.77421 3.31394,4.32653 0,0.55232 -1.28876,6.07555 -2.94572,12.24315 -2.76162,10.67824 -2.94572,12.05905 -2.94572,29.18106 -0.0921,14.82066 0.1841,18.87102 1.65696,23.47371 3.22189,10.67824 8.3769,18.41076 14.91272,22.18497 1.65697,0.92053 1.56491,1.3808 -2.11724,9.20537 -13.16369,28.07641 -13.90012,31.4824 -14.26834,69.86883 -0.27616,29.91748 -0.27616,30.46981 1.84108,34.88839 1.10464,2.48545 3.40599,6.25966 5.06296,8.28484 1.74902,2.11724 3.40599,4.23447 3.7742,4.87885 0.36822,0.64438 -1.10464,3.49804 -3.49804,6.71993 -6.25966,8.561 -8.3769,14.45244 -8.3769,24.39425 0,7.82457 0.18411,8.561 3.03778,12.97958 1.56491,2.57751 2.94572,5.43118 2.94572,6.35172 0,0.92053 -1.28875,5.61528 -2.85367,10.49413 -4.69474,14.63655 -6.35171,23.65782 -7.18019,38.8467 -1.10465,19.60746 -0.36822,25.4989 4.51063,35.71691 4.7868,10.0338 4.7868,13.9001 -0.092,20.8962 -4.32653,6.3517 -5.33912,9.8497 -5.43117,19.3313 0,6.8119 0.64437,11.0464 3.59009,22.5531 1.93313,7.8246 4.14242,17.3062 4.7868,21.1724 1.10465,6.812 1.10465,7.0882 -1.10465,10.5862 -2.02518,3.3139 -2.20929,4.5106 -2.20929,16.0174 0,11.7828 0.0921,12.7034 2.57751,17.6743 1.47286,2.9457 4.41858,6.904 6.81198,9.0213 5.33912,4.6947 13.3478,8.653 15.83325,7.8245 1.38081,-0.3682 2.94572,0.3682 5.89144,3.1299 6.25966,5.7073 10.12592,6.904 24.1181,6.904 14.17628,0 20.15978,-1.4729 35.44071,-8.9292 7.64046,-3.6822 10.58618,-5.7074 14.26833,-9.7577 2.57751,-2.7616 8.3769,-8.8372 12.97959,-13.624 8.28484,-8.561 8.28484,-8.561 12.88753,-8.561 2.48545,0 7.82457,0.8285 11.87494,1.749 18.41076,4.4186 29.82543,3.2219 46.211,-4.8788 7.64047,-3.8663 10.9544,-6.0756 13.16369,-8.8372 4.51064,-5.7073 10.7703,-20.62 12.05905,-28.5367 1.28875,-8.3769 2.85367,-12.4272 5.33912,-13.716 1.01259,-0.6443 4.87885,-2.1172 8.561,-3.3139 12.33521,-4.1424 18.68692,-9.9418 28.99695,-26.2353 10.03386,-15.9253 13.16369,-24.1181 13.16369,-34.98048 -0.0921,-5.06296 -2.30135,-17.67433 -4.69475,-25.95917 -1.01259,-3.7742 -1.01259,-5.06295 0.0921,-8.28484 0.82848,-2.5775 1.1967,-7.18019 1.01259,-12.97958 l -0.18411,-8.92922 11.50673,-11.32262 c 9.57359,-9.29743 11.96699,-12.24315 14.36039,-17.39816 7.45635,-16.01736 5.33912,-32.77115 -6.44377,-50.16932 l -4.60269,-6.71992 2.02519,-1.65697 c 10.9544,-8.74511 13.25574,-13.07164 12.42726,-23.01345 -0.64438,-7.45636 -4.97091,-20.7121 -9.11333,-27.61614 -1.65697,-2.76161 -4.9709,-7.08814 -7.3643,-9.57359 l -4.41858,-4.51064 v -11.04645 c 0,-10.40208 -0.18411,-11.50673 -2.94572,-18.1346 -2.30135,-5.61528 -4.14243,-8.28484 -8.83717,-12.79547 -4.05037,-4.05037 -5.70733,-6.25966 -5.33912,-7.36431 3.12983,-10.21797 4.51064,-20.15978 4.60269,-32.03472 0,-15.09682 -1.10464,-21.17237 -5.79939,-31.29829 -3.86626,-8.28484 -9.48154,-14.82066 -20.34389,-23.93398 -8.83716,-7.3643 -11.50672,-12.24316 -12.88753,-23.01345 -0.46026,-4.05037 -1.28875,-10.9544 -1.84107,-15.46504 -1.38081,-10.9544 -3.31394,-16.56968 -7.54841,-21.35647 -4.05037,-4.60269 -9.84976,-6.90404 -17.30611,-6.90404 -5.79939,0 -9.20538,-2.5775 -9.20538,-6.90403 0,-1.65697 0.64437,-5.61528 1.47286,-8.74511 4.69474,-18.31871 -11.59878,-42.4368 -33.04731,-48.97262 -11.23057,-3.40599 -25.4989,-1.38081 -36.08509,4.97091 -2.48545,1.56491 -5.9835,3.03777 -7.82457,3.22188 -2.94572,0.46027 -3.86626,0 -8.3769,-4.14242 -7.54841,-6.90404 -16.93789,-11.04646 -29.18105,-12.97959 -3.86626,-0.64437 -6.99609,-1.84107 -9.66565,-3.68215 -4.23447,-3.03777 -9.20537,-4.32653 -20.43594,-5.15501 l -7.3643,-0.55232 z m 30.19365,0.73643 c 8.92921,4.41858 14.82066,13.99218 17.58227,28.35257 1.01259,5.52323 2.30135,9.48154 3.5901,11.13851 2.85367,3.59009 2.5775,7.18019 -0.73643,10.9544 -3.77421,4.23447 -7.73252,5.43117 -15.28093,4.60269 -4.97091,-0.46027 -6.07555,-0.36822 -5.70734,0.64437 0.55233,1.74903 15.37299,3.49805 20.89621,2.48546 2.2093,-0.36822 4.87886,-1.47286 5.89145,-2.30135 6.07555,-5.52323 6.53582,-18.04254 0.82848,-22.27702 -1.38081,-1.10464 -2.94572,-2.30134 -3.49804,-2.76161 -0.64438,-0.46027 -1.47286,-3.40599 -2.02519,-6.53582 -0.55232,-3.12983 -2.11723,-8.00868 -3.40599,-10.86235 -1.47286,-3.22188 -2.02518,-5.43117 -1.47286,-5.98349 1.1967,-1.1967 12.88753,2.3934 19.79157,6.07555 6.25966,3.31393 12.70342,9.48154 15.28093,14.5445 3.40599,6.53582 3.86626,11.41467 2.30134,22.36907 -1.84107,13.43985 -1.84107,18.3187 0.27616,20.15978 3.31394,3.03777 4.05037,0.73643 4.23448,-12.97959 0.1841,-10.49413 0.55232,-13.3478 1.84107,-15.37298 1.38081,-2.11724 2.02519,-2.3934 4.97091,-1.93313 4.14242,0.64438 9.57359,-0.46027 10.12591,-2.02518 0.18411,-0.73643 -1.10464,-1.10465 -4.69474,-1.10465 -7.08814,0 -10.21797,-1.28875 -11.96699,-5.15501 -0.92054,-1.74902 -1.56492,-3.77421 -1.56492,-4.51064 0,-2.85366 12.1511,-9.20538 22.64524,-11.96699 15.09682,-3.86626 28.35256,1.10465 38.66259,14.63655 10.40208,13.62396 12.70342,23.28961 8.74511,36.36125 -1.10465,3.5901 -2.30135,6.62787 -2.66956,6.90403 -0.36822,0.18411 -5.33912,-1.84107 -10.86235,-4.51063 -11.41467,-5.61528 -20.43594,-8.3769 -22.00085,-6.81198 -1.1967,1.1967 1.84107,3.5901 4.60268,3.5901 1.0126,0 4.87886,1.3808 8.46895,3.12983 l 6.62788,3.22188 1.93313,6.44376 c 2.02518,6.81198 3.7742,8.65306 6.90403,7.36431 1.01259,-0.36822 2.3934,-0.73643 3.03778,-0.73643 1.93312,-0.0921 3.68215,5.33912 4.9709,15.18887 0.92054,6.81198 1.56491,9.11333 2.57751,9.11333 2.11723,0 2.30134,-11.967 0.36821,-19.14719 -0.82848,-3.12983 -1.56491,-6.71993 -1.65697,-8.00868 -0.0921,-2.20929 0.0921,-2.30135 4.97091,-2.11724 12.42726,0.36822 22.09291,7.64047 25.31479,18.87103 1.74902,6.07555 2.94572,24.57836 1.93313,28.72078 -0.27616,1.28875 -1.74902,2.94572 -3.40599,3.77421 -2.66956,1.3808 -6.35171,7.82457 -6.35171,11.1385 0,1.84108 3.40599,1.56492 8.19279,-0.55232 4.51063,-2.11723 7.91662,-2.30134 10.86234,-0.64437 3.95832,2.20929 18.68692,17.21405 22.18497,22.55317 2.02518,3.03778 4.60269,8.56101 5.79938,12.33521 1.93313,5.9835 2.2093,8.3769 2.2093,21.44854 0,12.88753 -0.27617,15.55709 -2.2093,21.63264 -3.22188,10.58618 -6.90403,17.85843 -11.04645,22.36907 -2.11724,2.20929 -3.77421,4.32652 -3.77421,4.69474 0,0.27616 0.92054,0.55232 2.11724,0.55232 1.28875,0 3.68215,-1.65697 6.16761,-4.14242 2.39339,-2.3934 4.87885,-4.14242 6.07555,-4.14242 1.28875,0 3.7742,1.84108 6.71992,5.15501 9.94181,10.7703 11.32262,29.82543 3.22188,42.80502 -2.39339,3.86626 -6.62787,7.45635 -8.10073,6.99608 -0.55232,-0.1841 -2.11724,-3.59009 -3.40599,-7.64046 -4.51063,-13.90012 -12.51931,-26.05122 -17.85843,-27.43203 -4.41859,-1.10465 -4.23448,0.55232 0.82848,5.9835 9.38949,10.12591 15.00477,25.13068 14.08423,37.55794 -0.64438,8.56101 -5.43117,18.96308 -10.49413,22.9214 -7.27225,5.52322 -9.7577,8.19278 -9.20538,9.66564 0.36821,0.92054 1.56491,1.56492 2.66956,1.56492 3.95831,0 8.00868,-3.5901 13.62396,-11.96699 4.60269,-6.81198 5.89144,-9.66565 7.1802,-15.28093 1.3808,-6.53582 1.65696,-7.08814 4.87885,-8.65306 1.84107,-1.01259 5.33912,-4.05037 7.73251,-6.90403 2.3934,-2.76162 5.06296,-5.06296 5.9835,-5.06296 5.9835,0 15.64915,16.01736 17.95049,29.64132 0.73643,4.41858 -0.82848,10.31002 -3.95831,14.82066 -2.94572,4.32653 -11.59878,10.67824 -20.15978,14.72861 -6.07555,2.85366 -6.62788,2.94572 -16.66174,2.76161 -10.31002,-0.27616 -10.40208,-0.27616 -11.23056,2.11724 -0.55232,1.28875 -0.92054,3.31393 -0.92054,4.51063 0,2.48545 -9.48154,17.12201 -14.91271,23.1055 -4.7868,5.15502 -8.19279,6.90404 -19.14719,10.03387 -15.83325,4.41858 -18.1346,7.3643 -5.15501,6.71992 13.5319,-0.73643 20.15978,-5.15501 33.50758,-22.55318 4.60269,-5.98349 10.12591,-12.70342 12.42726,-14.91271 3.86626,-3.7742 4.60269,-4.05037 10.9544,-4.69474 3.68215,-0.46027 8.92922,-1.65697 11.69083,-2.76162 2.76161,-1.10464 6.44376,-1.84107 8.28484,-1.65696 2.94572,0.27616 3.77421,0.92053 7.08814,5.98349 2.11724,3.03778 4.69475,8.28484 5.89145,11.50673 2.48545,7.18019 3.40599,18.87102 1.93312,25.4989 -2.85366,13.34779 -12.61136,25.86711 -24.57836,31.57445 -7.18019,3.40599 -6.81198,2.20929 -5.43117,16.56968 0.92054,9.29743 -0.73643,13.80807 -6.90404,19.42335 -5.15501,4.60269 -9.7577,6.1676 -18.3187,6.1676 -5.9835,0 -7.73252,1.10465 -4.51063,2.85367 2.5775,1.38081 13.90012,0.55232 21.44853,-1.47286 8.37689,-2.3934 8.10073,-2.48545 10.31002,4.14242 2.48545,7.3643 2.76162,18.77897 0.64438,27.06382 -1.74902,6.812 -6.25966,16.4776 -11.50672,24.3022 -10.40208,15.8332 -25.86712,24.1181 -44.92225,24.1181 -15.46504,0 -25.4989,-4.0504 -38.47849,-15.6492 -4.60269,-4.0503 -8.83716,-7.3643 -9.38948,-7.3643 -2.02519,0 -1.0126,3.6822 1.93312,6.9961 1.56492,1.8411 6.16761,5.7994 10.03387,8.7451 3.95831,3.0378 7.82457,6.3517 8.561,7.4564 2.20929,3.1298 1.84108,8.2848 -0.92054,12.3352 -4.87885,7.1802 -9.94181,9.4815 -20.80415,9.5736 -8.46895,0 -12.70343,1.0126 -12.70343,3.0378 0,2.1172 4.32653,3.406 11.41467,3.406 18.50281,0 27.43203,-6.1676 28.81284,-19.9757 0.27616,-2.9457 0.92054,-5.6153 1.47286,-5.8915 0.46027,-0.3682 2.30134,-0.2761 4.23447,0.1842 1.84108,0.4602 7.1802,1.1046 11.87494,1.3808 4.69475,0.3682 8.65306,0.9205 8.92922,1.2887 0.82848,1.3808 -5.43117,23.1055 -8.37689,28.6287 -8.65306,16.3856 -24.02604,24.0261 -48.23619,23.934 -12.97958,0 -22.00086,-1.841 -32.12677,-6.5358 -6.35171,-3.0378 -14.82066,-8.8372 -14.82066,-10.218 0,-0.4602 1.74902,-1.6569 3.95831,-2.5775 3.68215,-1.5649 10.40208,-7.9166 12.42726,-11.7829 0.55232,-1.0125 1.74902,-4.8788 2.57751,-8.653 0.82848,-3.6822 2.30134,-8.469 3.12983,-10.5862 l 1.65696,-3.8663 7.73252,0.4603 c 7.36431,0.4603 7.82458,0.3682 10.67824,-2.0252 4.14242,-3.498 3.95832,-5.3391 -0.46027,-4.4186 -8.561,1.7491 -19.60745,-1.3808 -26.78765,-7.5484 -4.87885,-4.1424 -9.38949,-5.5232 -9.38949,-2.8536 0,0.7364 2.11724,5.3391 4.69475,10.31 4.60269,8.8372 4.69474,9.1133 4.32653,16.0174 -0.18411,5.7993 -0.73643,7.7325 -2.85367,10.8623 -2.57751,3.9583 -13.71602,12.1511 -16.38558,12.1511 -1.74902,0 -9.11332,-7.6405 -9.11332,-9.4815 0,-0.6444 0.64437,-3.4981 1.47286,-6.2597 1.74902,-5.7994 2.02518,-13.3478 0.64438,-14.7286 -1.56492,-1.5649 -3.03778,1.9331 -4.51064,10.7703 -1.38081,8.8372 -4.60269,15.6491 -9.38949,19.7916 -1.65697,1.4728 -7.18019,4.7868 -12.24315,7.2722 -4.97091,2.5775 -9.11333,4.9709 -9.11333,5.4312 0,2.6695 9.02128,1.6569 15.92531,-1.8411 2.02518,-1.1046 5.89144,-3.9583 8.46895,-6.4438 2.66956,-2.4854 5.06296,-4.5106 5.43117,-4.5106 0.27616,0 2.94572,1.5649 5.89144,3.498 2.85367,1.9332 9.20538,6.0756 13.99218,9.2054 13.43985,8.6531 12.97958,8.1008 9.7577,10.5862 -1.47286,1.1047 -7.27225,6.1676 -12.70342,11.2306 -5.52323,5.0629 -12.33521,10.7703 -15.09682,12.6113 -7.64047,5.1551 -20.89621,9.2054 -32.03472,9.7577 -16.10941,0.7365 -25.95917,-3.498 -30.74597,-13.2557 -2.20929,-4.5106 -2.5775,-4.8789 -3.59009,-3.498 -0.64438,0.9205 -1.1967,3.0377 -1.1967,4.6947 0,4.0504 -1.47286,3.8663 -7.08815,-0.5523 -13.5319,-10.5862 -16.20146,-19.7916 -12.24315,-41.056 1.10465,-6.0756 2.3934,-11.4147 2.85367,-11.875 0.46027,-0.4602 3.86626,1.1967 8.00868,3.9584 8.561,5.5232 16.56968,8.9292 17.95049,7.5484 1.47286,-1.4729 -0.36822,-3.0378 -10.03387,-8.469 -11.13851,-6.3517 -19.14719,-13.716 -20.62005,-19.1472 -1.47286,-5.6152 -0.55232,-6.0755 6.99609,-3.9583 3.49805,1.0126 8.561,2.3014 11.23056,2.8537 6.16761,1.2887 22.27702,1.2887 28.81284,0.092 13.80807,-2.5775 25.03863,-13.1637 29.27311,-27.432 l 1.56491,-5.2471 6.99609,0.2762 c 8.00868,0.3682 11.23056,-0.8285 15.00477,-5.7073 4.23447,-5.5233 5.98349,-11.6909 5.98349,-20.8042 0,-6.0755 0.36822,-8.4689 1.1967,-8.83715 0.64438,-0.18411 3.68215,1.01255 6.62787,2.85365 12.05905,7.2723 23.10551,9.2054 43.08118,7.8246 33.32347,-2.3934 43.44939,-9.7577 57.1654,-41.51627 6.44377,-14.82066 8.3769,-22.82934 7.54841,-30.93007 -1.1967,-12.79548 -1.74902,-11.32262 4.87885,-13.16369 11.59878,-3.22189 22.00086,-13.07164 24.21015,-22.9214 1.56491,-7.08814 3.12983,-8.37689 10.21797,-8.46895 7.45636,-0.092 9.7577,-0.82848 11.96699,-3.7742 1.28876,-1.74902 1.56492,-3.12983 1.10465,-5.24707 -0.73643,-3.40599 -2.30135,-3.5901 -7.91663,-1.01259 -7.45635,3.31394 -11.96699,1.84108 -15.9253,-5.52323 -2.85367,-5.24706 -6.53582,-7.73251 -8.00868,-5.43117 -1.56492,2.20929 -0.27616,8.74511 2.76161,14.5445 3.49805,6.71993 3.5901,9.38949 0.55232,15.46504 -4.41858,8.74511 -11.32261,14.17628 -23.01344,17.76638 -8.92922,2.85366 -9.48154,3.49804 -7.64047,8.92921 2.3934,6.81198 2.76162,11.50673 1.65697,17.85844 -3.5901,20.7121 -16.01736,43.54144 -27.15587,50.07726 -9.48154,5.61531 -26.78765,9.66561 -40.87188,9.66561 -18.1346,-0.092 -31.20624,-5.0629 -44.00171,-16.93786 -7.27225,-6.81198 -10.40208,-8.46895 -10.40208,-5.52323 0,0.73644 1.28875,3.22189 2.85367,5.52323 3.86626,5.70734 5.89144,15.55706 4.60269,22.73726 -1.93313,11.2306 -5.79939,14.2684 -18.59487,15.0968 -9.7577,0.6444 -11.87494,1.9332 -11.87494,7.1802 0,4.6027 -3.03777,11.875 -6.90403,16.5697 -5.79939,7.0882 -14.36039,11.0465 -26.6956,12.3352 -15.18888,1.4729 -26.60355,-1.4728 -34.98044,-9.2053 -5.70734,-5.2471 -7.1802,-8.3769 -7.27225,-15.1889 -0.0921,-4.6948 0.36821,-6.2597 2.66956,-10.1259 3.7742,-5.9835 5.33912,-6.1676 7.73252,-0.8285 1.93313,4.3265 4.14242,5.9835 5.79939,4.3265 1.10464,-1.1046 -1.0126,-8.1007 -7.27225,-23.5658 -10.86235,-27.15583 -11.78289,-48.69642 -3.31394,-74.65559 4.23447,-13.07163 8.92922,-22.18496 14.45245,-27.89229 2.85366,-3.03778 4.87885,-5.70734 4.51063,-5.9835 -0.27616,-0.36822 -1.93313,-0.64438 -3.5901,-0.64438 -2.3934,0 -3.68215,0.82849 -6.71992,4.32653 -2.3934,2.85367 -4.05037,4.05037 -4.60269,3.49805 -1.28876,-1.38081 -3.77421,-10.49414 -3.77421,-13.90013 0,-7.54841 7.08814,-20.52799 11.96699,-21.81675 0.92054,-0.1841 5.70734,1.65697 10.67824,4.23448 5.06296,2.57751 12.51932,5.79939 16.66174,7.18019 4.14242,1.47287 9.29743,3.49805 11.41467,4.51064 2.85367,1.47286 4.05037,1.74902 4.87885,0.92054 1.56492,-1.56492 -3.22188,-4.97091 -11.87494,-8.3769 -25.40684,-10.03386 -37.55794,-20.34388 -42.34474,-35.80892 -2.11724,-6.71993 -3.03778,-39.85929 -1.38081,-53.48325 1.65697,-15.00477 9.66565,-36.08509 19.3313,-51.08986 8.00868,-12.42726 8.46895,-16.75379 1.01259,-10.03386 -1.93313,1.74902 -3.95831,3.22188 -4.41858,3.22188 -1.84108,0 -8.28484,-6.44376 -10.58619,-10.67824 -4.14242,-7.73251 -5.43117,-14.63655 -5.43117,-29.82542 0.0921,-15.18888 0.0921,-15.18888 3.86626,-27.43203 3.03777,-9.75771 3.40599,-16.84585 1.1967,-24.94658 -1.38081,-4.97091 -1.38081,-5.52323 0.092,-8.65306 1.93313,-4.05036 8.65306,-8.74511 18.04254,-12.42726 17.49022,-6.90403 29.18105,-7.3643 45.75074,-1.65697 10.9544,3.68215 17.122,4.87885 18.13459,3.40599 0.82849,-1.47286 -3.59009,-3.12983 -18.22665,-6.90403 -21.81675,-5.70734 -29.64132,-5.33912 -46.02689,1.84107 -9.66565,4.23448 -13.3478,4.14243 -17.58228,-0.27616 -4.78679,-4.78679 -8.83716,-13.43985 -8.83716,-18.59486 0,-5.15501 3.40599,-12.61137 10.21797,-22.82934 6.25966,-9.20538 11.96699,-14.63655 20.15978,-19.14719 6.90404,-3.77421 11.32262,-8.83716 9.38949,-10.77029 -1.1967,-1.1967 -2.3934,-0.36822 -16.75379,10.58618 -10.7703,8.28484 -10.9544,8.28484 -13.3478,-0.73643 -2.76162,-10.58618 -1.1967,-24.02604 3.7742,-32.40293 2.94572,-5.15501 8.83717,-9.02127 19.14719,-12.79548 10.58619,-3.86626 15.92531,-4.05037 22.46113,-0.73643 z" />
  <path
     style="fill:#4caf50;stroke:none;stroke-width:0.09205379"
     inkscape:connector-curvature="0"
     id="path10"
     d="m 708.82791,590.45509 c 0,0.36822 2.30134,3.40599 5.24706,6.71993 5.70734,6.81198 7.27225,9.84976 8.65306,17.30611 2.02518,10.86235 -1.74902,17.58228 -13.07164,23.19756 -9.84975,4.9709 -12.79547,4.9709 -18.68692,0.0921 -2.3934,-2.02518 -4.78679,-3.68215 -5.24706,-3.68215 -1.93313,0 -0.55233,3.68215 3.22188,8.83716 2.20929,2.94573 4.69474,7.64047 5.61528,10.40208 0.92054,2.66956 2.48545,5.79939 3.5901,6.90404 l 1.93313,1.93313 0.27616,-2.2093 c 0.18411,-1.28875 -0.18411,-4.69474 -0.73643,-7.54841 -0.64438,-2.85366 -0.92054,-5.61528 -0.55232,-6.1676 0.27616,-0.46027 3.31393,-1.10465 6.71992,-1.47286 7.45636,-0.73643 12.61137,-2.94572 17.39817,-7.27225 3.49804,-3.12983 3.77421,-3.22188 12.61137,-3.49804 8.65306,-0.36822 9.20538,-0.46027 11.32262,-2.94573 2.48545,-2.85366 3.03777,-6.71992 0.92053,-5.89144 -5.89144,2.30135 -17.67432,3.86626 -18.50281,2.48545 -0.36821,-0.55232 -0.73643,-4.9709 -0.82848,-9.9418 -0.0921,-5.79939 -0.73643,-10.12592 -1.74902,-12.33521 -1.74903,-4.05037 -9.20538,-12.33521 -12.79548,-14.17629 -2.57751,-1.3808 -5.33912,-1.74902 -5.33912,-0.73643 z" />
  <path
     style="fill:#4caf50;stroke:none;stroke-width:0.09205379"
     inkscape:connector-curvature="0"
     id="path12"
     d="m 642.54918,634.45681 c 0,0.64437 1.01259,3.03777 2.20929,5.24706 1.28875,2.20929 2.57751,5.79939 2.94572,8.00868 l 0.64438,3.86626 h -6.16761 c -6.07555,0 -9.7577,1.01259 -9.7577,2.76161 0,0.55233 4.69475,0.92054 11.32262,0.92054 19.88362,0 31.02213,4.32653 39.67518,15.28093 2.20929,2.85367 6.81198,10.49413 10.21797,17.02995 4.87885,9.29743 7.73252,13.53191 13.62396,19.88362 8.3769,9.20538 10.58619,13.43985 11.32262,21.63264 0.73643,7.27225 -0.46027,11.59878 -5.15501,19.3313 -2.02519,3.40599 -3.68215,6.99609 -3.68215,7.91662 0,1.01259 1.47286,4.51064 3.22188,7.91663 3.49804,6.81198 3.68215,7.64046 2.20929,12.79548 -2.57751,9.20537 -15.09682,16.29352 -28.90489,16.29352 -3.40599,0 -4.32653,-0.46027 -6.1676,-2.76162 -6.99609,-9.29743 -10.31003,-11.96699 -14.5445,-11.96699 -3.03778,0 -2.20929,1.74902 3.95831,8.28484 6.81198,7.1802 8.28484,10.9544 7.82457,21.08032 l -0.27616,6.81198 -5.9835,1.28875 c -7.08814,1.38081 -9.66564,3.12983 -13.3478,8.83717 -3.12982,4.87885 -2.85366,4.87885 -15.18887,2.02518 -16.20147,-3.68215 -27.61614,1.56491 -29.18105,13.25575 -0.73643,5.61528 1.74902,4.9709 8.46895,-2.11724 9.7577,-10.40208 15.46503,-11.32262 26.14327,-4.41858 3.22189,2.11723 6.25966,3.86626 6.71993,3.86626 0.92054,0 3.49804,-2.66956 9.94181,-10.12592 2.20929,-2.66956 5.43117,-5.43117 7.08814,-6.07555 9.5736,-4.05037 23.38166,2.30134 31.4824,14.45244 9.11332,13.62396 9.7577,30.56186 1.74902,45.01431 -3.22188,5.89144 -3.03778,8.83716 0.36821,7.82457 1.1967,-0.36822 2.76162,-1.28875 3.68216,-2.02518 1.84107,-1.56492 4.41858,-12.61137 4.41858,-18.77898 0,-9.20538 2.94572,-11.13851 17.02995,-11.32261 8.92922,0 17.30611,2.5775 25.22274,7.82457 8.10073,5.43117 9.57359,5.06296 12.88753,-3.68215 4.05036,-10.67824 9.84975,-15.83325 19.97567,-17.58228 8.83716,-1.56491 9.66565,-1.84107 9.02127,-2.94572 -0.82848,-1.3808 -12.51931,-0.36821 -18.04254,1.56492 -5.9835,2.11723 -12.88753,8.46895 -15.37298,14.17628 -1.0126,2.48545 -2.30135,4.87885 -2.85367,5.15501 -0.46027,0.27616 -3.22188,-0.46027 -6.16761,-1.74902 -14.17628,-5.89144 -25.31479,-7.64046 -34.24401,-5.15501 -2.11723,0.55232 -4.51063,0.82848 -5.15501,0.64437 -0.64437,-0.27616 -1.3808,-2.48545 -1.74902,-4.9709 -1.74902,-13.53191 -14.08423,-27.61614 -27.98435,-32.03472 l -4.87885,-1.65697 0.64437,-8.83716 c 0.36822,-4.87885 0.82849,-9.20538 1.10465,-9.66565 0.18411,-0.36821 1.93313,-0.55232 3.68215,-0.18411 4.60269,0.73643 15.09682,-0.92053 20.528,-3.22188 5.61528,-2.3934 12.88753,-10.21797 14.45244,-15.28093 2.30135,-7.64046 0.92054,-14.7286 -3.95831,-20.52799 -3.49805,-4.23448 -3.5901,-3.86626 1.38081,-10.58619 1.56491,-2.02518 3.59009,-6.53582 4.69474,-9.94181 1.65697,-5.33912 1.84107,-6.81198 0.92054,-10.40208 -0.55233,-2.30134 -0.82849,-4.51063 -0.64438,-4.87885 0.27616,-0.36821 4.23447,-1.01259 8.83716,-1.28875 18.77898,-1.38081 31.29829,-6.35171 31.29829,-12.33521 0,-1.84107 -1.1967,-5.24706 -2.3934,-6.62787 -0.1841,-0.18411 -2.48545,1.65697 -5.15501,4.05037 -7.54841,6.90403 -13.3478,9.20537 -22.82934,9.20537 -6.99609,0 -8.37689,-0.27616 -12.79548,-2.76161 -2.76161,-1.47286 -7.27224,-5.06296 -10.12591,-7.91663 -4.87885,-4.78679 -7.1802,-8.28484 -18.1346,-27.52408 -8.19279,-14.45244 -17.58227,-21.54059 -31.75856,-24.21015 l -6.81198,-1.19669 0.27616,-3.03778 c 0.36822,-3.49804 -3.03777,-9.84976 -7.27224,-13.3478 -3.12983,-2.66956 -4.51064,-3.03777 -4.51064,-1.10464 z" />
  <path
     style="fill:#4caf50;stroke:none;stroke-width:0.09205379"
     inkscape:connector-curvature="0"
     id="path14"
     d="m 761.66678,638.13896 c -0.27616,1.28875 0.36822,5.98349 1.38081,10.49413 2.76161,11.69083 2.57751,15.55709 -1.28875,24.21015 -1.74902,4.05036 -3.22189,8.10073 -3.22189,9.02127 0,2.20929 3.12983,4.87885 8.92922,7.82457 10.21797,5.06296 23.1055,20.25183 29.73338,34.88839 7.27225,16.01736 9.84975,33.87579 6.99608,47.03948 -0.92053,3.86626 -3.49804,10.86235 -5.79938,15.46504 -3.31394,6.71993 -5.70734,9.94181 -12.1511,16.29352 -6.81198,6.90403 -9.38949,8.74511 -18.31871,13.3478 -10.67824,5.43117 -12.42726,7.54841 -6.25966,7.3643 7.73252,-0.27616 23.84194,-11.13851 30.37775,-20.43594 1.38081,-2.02518 3.22189,-3.95831 4.05037,-4.32653 0.82849,-0.27616 4.05037,0.73643 7.27225,2.30135 4.7868,2.3934 6.44377,3.86626 9.66565,8.561 4.69474,7.08814 7.18019,9.84976 8.74511,9.84976 3.5901,0 -0.64438,-11.04646 -6.25966,-16.01736 -3.68215,-3.40599 -9.94181,-6.99609 -12.1511,-6.99609 -3.12983,0 -3.31394,-2.02519 -0.55232,-6.90404 5.15501,-9.11332 5.70733,-12.3352 5.89144,-30.74596 l 0.092,-16.9379 5.43118,-4.9709 c 7.08814,-6.35172 11.41467,-8.56101 17.85843,-9.20538 10.58619,-1.10465 10.67824,-3.95832 0.0921,-3.95832 -7.36431,0 -13.16369,2.48546 -19.88362,8.65306 -2.66956,2.30135 -4.97091,4.23447 -5.24707,4.23447 -0.27616,0 -1.1967,-2.20929 -2.11723,-4.87885 -2.57751,-7.82457 -6.53582,-15.28093 -10.86235,-20.06772 -5.06296,-5.61528 -5.89144,-8.65306 -3.40599,-11.78289 3.03777,-3.86626 8.46895,-13.62396 9.38948,-17.02995 1.0126,-3.5901 2.48546,-4.23447 10.21797,-4.23447 4.14243,0 6.35172,0.64437 11.23057,3.22188 7.64046,4.05037 10.03386,4.23447 9.57359,0.73643 -0.18411,-1.93313 -1.10464,-2.94572 -3.49804,-4.05037 -4.05037,-1.93313 -16.47763,-4.51063 -21.54059,-4.51063 -2.11724,0 -4.32653,-0.46027 -4.9709,-1.10465 -0.64438,-0.64437 -1.10465,-3.7742 -1.10465,-7.73252 0,-3.68215 -0.36821,-7.73251 -0.92054,-9.11332 -2.02518,-5.43118 -13.43985,-15.00477 -15.37298,-12.97959 -0.36822,0.27617 1.10465,2.3934 3.22188,4.51064 7.08814,7.27225 10.12592,20.528 7.1802,31.85061 -1.74902,6.71993 -6.71993,16.56968 -8.74511,17.39817 -1.74902,0.64437 -12.79548,-11.13851 -15.83325,-16.75379 -2.02519,-3.86626 -2.02519,-4.32653 -0.82849,-10.49413 1.74902,-9.38949 0.0921,-24.76247 -3.40599,-31.75856 -1.56491,-3.12983 -2.85367,-3.22188 -3.5901,-0.27616 z" />
  <path
     style="fill:#4caf50;stroke:none;stroke-width:0.09205379"
     inkscape:connector-curvature="0"
     id="path16"
     d="m 642.54918,687.75595 c 0,0.64438 1.56491,2.11724 3.49804,3.22188 4.51064,2.48545 14.91272,14.17629 14.91272,16.66174 0,1.01259 -1.65697,4.41858 -3.5901,7.45636 -6.1676,9.48154 -7.27225,20.89621 -3.31394,32.8632 1.28876,3.86626 2.11724,7.18019 1.84108,7.54841 -0.36822,0.27616 -3.95831,0.73643 -8.10073,1.10464 -8.92922,0.64438 -13.53191,2.76162 -20.06773,8.83717 -4.41858,4.14242 -5.89144,7.64046 -3.22188,7.64046 0.73643,0 3.7742,-2.11723 6.62787,-4.60269 2.94572,-2.5775 7.45636,-5.70733 10.21797,-6.99608 5.15501,-2.57751 7.73252,-2.66956 24.94658,-0.73643 5.79939,0.73643 6.53582,-0.92054 1.10464,-2.3934 -1.93313,-0.55233 -4.14242,-1.56492 -4.87885,-2.30135 -0.73643,-0.73643 -2.30134,-5.06296 -3.40599,-9.66565 -3.22188,-12.97958 -1.38081,-26.14327 4.60269,-33.23141 2.20929,-2.76162 3.12983,-3.12983 9.11333,-3.68216 7.45635,-0.64437 10.21797,-2.39339 10.21797,-6.53582 0,-2.30134 -0.27616,-2.5775 -2.02519,-2.11723 -6.90403,2.20929 -14.36039,-0.0921 -23.74987,-7.36431 -8.19279,-6.25965 -14.72861,-8.83716 -14.72861,-5.70733 z" />
  <path
     style="fill:#4caf50;stroke:none;stroke-width:0.09205379"
     inkscape:connector-curvature="0"
     id="path18"
     d="m 677.52962,892.39152 c 0,0.27617 0.92054,3.40599 1.93313,6.99609 1.74902,5.70734 1.84108,7.08814 0.92054,11.32262 -0.73643,3.12983 -2.02519,5.70733 -3.68215,7.27225 -2.57751,2.48545 -2.85367,2.48545 -9.84976,1.93313 -8.37689,-0.73643 -10.77029,-0.0921 -15.7412,4.51063 -2.48545,2.11724 -5.43117,3.68216 -9.48154,4.69475 -7.18019,1.84107 -9.48154,3.03777 -8.65305,4.32653 1.19669,1.84107 10.21797,0 18.96308,-3.77421 9.7577,-4.32653 13.80806,-4.69474 19.42335,-1.84108 3.59009,1.84108 4.78679,1.93313 17.21405,1.47286 15.09683,-0.55232 22.09291,-2.11723 29.36516,-6.44376 7.82458,-4.60269 12.05905,-9.02127 12.05905,-12.42726 0,-3.86626 -1.28875,-3.68215 -5.24707,0.73643 -4.51063,5.06296 -10.58618,8.65305 -18.22665,10.9544 -11.69083,3.5901 -23.47371,4.41858 -23.47371,1.56491 0,-0.64437 0.82848,-2.66956 1.84107,-4.69474 1.38081,-2.76161 1.84108,-5.43117 1.84108,-11.69083 0,-4.41858 -0.46027,-9.02127 -1.01259,-10.21797 -1.38081,-2.94572 -8.19279,-6.90404 -8.19279,-4.69475 z" />
  <path
     style="fill:#4caf50;stroke:none;stroke-width:0.09205379"
     inkscape:connector-curvature="0"
     id="path20"
     d="m 766.8218,905.73932 c 0,1.47286 1.47286,7.1802 3.31393,12.61137 3.95832,11.967 4.69475,17.21406 3.12983,22.82934 -3.49804,12.33521 -19.79156,16.84585 -34.61222,9.5736 -3.12983,-1.47286 -5.89145,-2.76162 -6.16761,-2.76162 -0.36821,0 -2.66956,1.84108 -5.24706,4.14242 -14.72861,13.07164 -40.96394,17.30612 -62.50453,10.12592 -8.92921,-2.94572 -15.09682,-6.53582 -21.44853,-12.33521 -5.43117,-4.9709 -8.10073,-5.89144 -8.10073,-2.94572 0,2.30135 6.35171,7.91663 14.17628,12.42726 3.40599,2.02519 6.62787,4.41859 7.08814,5.33912 0.55232,1.0126 1.01259,4.51064 1.01259,7.73252 0.18411,7.45636 -1.10464,9.29743 -9.84975,14.63655 -9.7577,5.89145 -8.28484,9.48155 2.85367,6.99609 4.69474,-1.10464 8.19278,-3.7742 10.40207,-8.10073 0.55233,-1.10465 1.0126,-5.52323 1.0126,-9.84976 0,-4.32652 0.36821,-8.00868 0.82848,-8.28484 0.36821,-0.27616 3.95831,0.0921 7.91663,0.82849 8.92921,1.74902 25.86711,1.74902 34.70427,0.092 8.92922,-1.74902 18.41076,-5.33912 24.57837,-9.38949 l 4.9709,-3.31393 3.77421,2.11723 c 3.31393,1.93313 4.9709,2.2093 13.43985,2.2093 10.31002,0 16.10941,-1.74903 21.08032,-6.25966 3.22188,-2.94572 5.61528,-8.74511 5.61528,-13.71602 0,-6.07555 -5.33912,-29.91748 -7.64047,-34.15195 -2.30134,-4.14242 -4.32652,-4.51064 -4.32652,-0.55233 z" />
  <path
     style="fill:#4caf50;stroke:none;stroke-width:0.09205379"
     inkscape:connector-curvature="0"
     id="path22"
     d="m 458.16544,1179.6914 c -0.36822,0.2762 -0.64438,9.8498 -0.64438,21.1724 v 20.528 h 125.65343 125.65342 l -0.18411,-20.9883 -0.27616,-20.8962 -124.82494,-0.2762 c -68.58007,-0.092 -125.1011,0.092 -125.37726,0.4603 z" />
  <path
     style="fill:#4caf50;stroke:none;stroke-width:0.09205379"
     inkscape:connector-curvature="0"
     id="path24"
     d="m 467.09466,1239.1582 c -0.18411,0.6443 -0.27617,10.0338 -0.18411,20.8962 l 0.27616,19.7915 h 112.30562 112.30563 v -20.7121 -20.7121 l -112.12152,-0.2761 c -90.30477,-0.1841 -112.21357,0 -112.58178,1.0126 z" />
  <path
     style="fill:#4caf50;stroke:none;stroke-width:0.09205379"
     inkscape:connector-curvature="0"
     id="path26"
     d="m 481.63915,1319.6132 0.27617,20.9882 h 97.11674 97.11675 l 0.27616,-20.9882 0.18411,-20.8962 h -97.57702 -97.57701 z" />
  <text
     xml:space="preserve"
     style="font-style:normal;font-variant:normal;font-weight:normal;font-stretch:normal;font-size:72px;line-height:1.25;font-family:'Migu 1P';-inkscape-font-specification:'Migu 1P';text-align:center;letter-spacing:0px;word-spacing:0px;text-anchor:middle;fill:#008000;fill-opacity:1;stroke:none;stroke-width:0.75"
     x="559.57422"
     y="108.85954"
     id="text32"><tspan
       sodipodi:role="line"
       x="559.57422"
       y="108.85954"
       style="font-style:normal;font-variant:normal;font-weight:normal;font-stretch:normal;font-size:80px;font-family:'Migu 1P';-inkscape-font-specification:'Migu 1P';text-align:center;text-anchor:middle;fill:#008000;stroke-width:0.75"
       id="tspan29">GetFEM++チュートリアル</tspan><tspan
       sodipodi:role="line"
       x="559.57422"
       y="200.97954"
       style="font-style:normal;font-variant:normal;font-weight:normal;font-stretch:normal;font-size:50px;font-family:'Migu 1P';-inkscape-font-specification:'Migu 1P';text-align:center;text-anchor:middle;fill:#008000;stroke-width:0.75"
       id="tspan44">C++/Python/Scilab/Matlab</tspan><tspan
       sodipodi:role="line"
       x="559.57422"
       y="290.97955"
       style="font-style:normal;font-variant:normal;font-weight:normal;font-stretch:normal;font-size:50px;font-family:'Migu 1P';-inkscape-font-specification:'Migu 1P';text-align:center;text-anchor:middle;fill:#008000;stroke-width:0.75"
       id="tspan46">で学ぶ物理シュミレーション</tspan><tspan
       sodipodi:role="line"
       x="559.57422"
       y="380.97955"
       style="font-style:normal;font-variant:normal;font-weight:normal;font-stretch:normal;font-size:50px;font-family:'Migu 1P';-inkscape-font-specification:'Migu 1P';text-align:center;text-anchor:middle;fill:#008000;stroke-width:0.75"
       id="tspan36">リリース5.3</tspan></text>
  <text
     xml:space="preserve"
     style="font-style:normal;font-variant:normal;font-weight:normal;font-stretch:normal;font-size:72px;line-height:1.25;font-family:'Migu 1P';-inkscape-font-specification:'Migu 1P';text-align:end;letter-spacing:0px;word-spacing:0px;text-anchor:end;fill:#008000;fill-opacity:1;stroke:none;stroke-width:0.75"
     x="1171.038"
     y="1565.4009"
     id="text45"><tspan
       sodipodi:role="line"
       id="tspan43"
       x="1171.038"
       y="1565.4009"
       style="font-style:normal;font-variant:normal;font-weight:bold;font-stretch:normal;font-size:40px;line-height:0;font-family:'Migu 1P';-inkscape-font-specification:'Migu 1P Bold';text-align:end;text-anchor:end;fill:#008000;stroke-width:0.75">Yves Renard, Julien Pommier, Konstantinos Poulios 著</tspan><tspan
       sodipodi:role="line"
       x="1171.038"
       y="1655.4009"
       style="font-style:normal;font-variant:normal;font-weight:bold;font-stretch:normal;font-size:40px;line-height:0;font-family:'Migu 1P';-inkscape-font-specification:'Migu 1P Bold';text-align:end;text-anchor:end;fill:#008000;stroke-width:0.75"
       id="tspan47">Tetsuo Koyama 訳</tspan></text>
  <flowRoot
     xml:space="preserve"
     id="flowRoot33"
     style="fill:black;fill-opacity:1;stroke:none;font-family:'Migu 1P';font-style:normal;font-weight:normal;font-size:133.33333333px;line-height:1.25;letter-spacing:0px;word-spacing:0px;-inkscape-font-specification:'Migu 1P';font-stretch:normal;font-variant:normal"><flowRegion
       id="flowRegion35"><rect
         id="rect37"
         width="711.88074"
         height="156.43239"
         x="392.21457"
         y="91.26001" /></flowRegion><flowPara
       id="flowPara39" /></flowRoot></svg>
