<?xml version="1.0" encoding="UTF-8" standalone="no"?>
<svg
   xmlns:dc="http://purl.org/dc/elements/1.1/"
   xmlns:cc="http://creativecommons.org/ns#"
   xmlns:rdf="http://www.w3.org/1999/02/22-rdf-syntax-ns#"
   xmlns:svg="http://www.w3.org/2000/svg"
   xmlns="http://www.w3.org/2000/svg"
   xmlns:sodipodi="http://sodipodi.sourceforge.net/DTD/sodipodi-0.dtd"
   xmlns:inkscape="http://www.inkscape.org/namespaces/inkscape"
   version="1.0"
   width="420mm"
   height="594mm"
   viewBox="0 0 1190.5512 1683.7796"
   preserveAspectRatio="xMidYMid meet"
   id="svg30"
   sodipodi:docname="getfem-tutorial-face.svg"
   inkscape:version="0.92.3 (2405546, 2018-03-11)">
  <metadata
     id="metadata36">
    <rdf:RDF>
      <cc:Work
         rdf:about="">
        <dc:format>image/svg+xml</dc:format>
        <dc:type
           rdf:resource="http://purl.org/dc/dcmitype/StillImage" />
        <dc:title />
      </cc:Work>
    </rdf:RDF>
  </metadata>
  <defs
     id="defs34">
    <linearGradient
       gradientTransform="rotate(-90,23.999999,24.000001)"
       x1="1"
       gradientUnits="userSpaceOnUse"
       x2="47"
       id="linearGradient3764">
      <stop
         id="stop157"
         offset="0"
         style="stop-color:#acacac" />
      <stop
         id="stop159"
         offset="1"
         style="stop-color:#b6b6b6" />
    </linearGradient>
    <linearGradient
       gradientTransform="rotate(-90,23.999998,24)"
       gradientUnits="userSpaceOnUse"
       x2="47"
       x1="1"
       id="linearGradient3764-5">
      <stop
         id="stop277"
         style="stop-color:#3d3d3d;stop-opacity:1" />
      <stop
         id="stop279"
         style="stop-color:#474747;stop-opacity:1"
         offset="1" />
    </linearGradient>
    <linearGradient
       gradientTransform="rotate(-90,24,24)"
       gradientUnits="userSpaceOnUse"
       x2="47"
       x1="1"
       id="linearGradient4325">
      <stop
         id="stop422"
         style="stop-color:#3b4c50;stop-opacity:1" />
      <stop
         id="stop424"
         style="stop-color:#44575c;stop-opacity:1"
         offset="1" />
    </linearGradient>
    <linearGradient
       gradientTransform="rotate(-90,23.999998,24)"
       gradientUnits="userSpaceOnUse"
       x2="47"
       x1="1"
       id="linearGradient3764-9">
      <stop
         id="stop540"
         style="stop-color:#e4e4e4;stop-opacity:1" />
      <stop
         id="stop542"
         style="stop-color:#eee;stop-opacity:1"
         offset="1" />
    </linearGradient>
    <linearGradient
       gradientTransform="rotate(-90,23.999998,24)"
       gradientUnits="userSpaceOnUse"
       x2="47"
       x1="1"
       id="linearGradient3764-51">
      <stop
         id="stop2"
         style="stop-color:#7ca339;stop-opacity:1" />
      <stop
         id="stop4"
         style="stop-color:#87b23e;stop-opacity:1"
         offset="1" />
    </linearGradient>
    <linearGradient
       gradientTransform="matrix(0,-0.2,0.2,0,36.901694,24.738983)"
       gradientUnits="userSpaceOnUse"
       x2="47"
       x1="1"
       id="linearGradient3764-7">
      <stop
         id="stop2-1"
         style="stop-color:#7ca339;stop-opacity:1" />
      <stop
         id="stop4-6"
         style="stop-color:#87b23e;stop-opacity:1"
         offset="1" />
    </linearGradient>
    <linearGradient
       gradientTransform="matrix(0,-0.2,0.2,0,18.99661,28.833898)"
       gradientUnits="userSpaceOnUse"
       x2="47"
       x1="1"
       id="linearGradient3764-7-7">
      <stop
         id="stop2-1-0"
         style="stop-color:#7ca339;stop-opacity:1" />
      <stop
         id="stop4-6-3"
         style="stop-color:#87b23e;stop-opacity:1"
         offset="1" />
    </linearGradient>
    <style
       id="style153"
       type="text/css"><![CDATA[
    .str0 {stroke:#555555;stroke-width:29.9961}
    .fil1 {fill:none}
    .fil0 {fill:#FF0033;fill-rule:nonzero}
   ]]></style>
  </defs>
  <sodipodi:namedview
     pagecolor="#ffffff"
     bordercolor="#666666"
     borderopacity="1"
     objecttolerance="10"
     gridtolerance="10"
     guidetolerance="10"
     inkscape:pageopacity="0"
     inkscape:pageshadow="2"
     inkscape:window-width="1920"
     inkscape:window-height="1052"
     id="namedview32"
     showgrid="false"
     units="mm"
     inkscape:zoom="0.31189427"
     inkscape:cx="1494.425"
     inkscape:cy="1205.1402"
     inkscape:window-x="0"
     inkscape:window-y="-1"
     inkscape:window-maximized="1"
     inkscape:current-layer="svg30" />
  <text
     xml:space="preserve"
     style="font-style:normal;font-variant:normal;font-weight:normal;font-stretch:normal;font-size:72px;line-height:1.25;font-family:'Migu 1P';-inkscape-font-specification:'Migu 1P';text-align:center;letter-spacing:0px;word-spacing:0px;text-anchor:middle;fill:#008000;fill-opacity:1;stroke:none;stroke-width:0.75"
     x="559.57422"
     y="108.85954"
     id="text32"><tspan
       sodipodi:role="line"
       x="559.57422"
       y="108.85954"
       style="font-style:normal;font-variant:normal;font-weight:normal;font-stretch:normal;font-size:50px;line-height:0;font-family:'Migu 1P';-inkscape-font-specification:'Migu 1P';text-align:center;text-anchor:middle;fill:#000000;stroke-width:0.75"
       id="tspan44"><tspan
         id="tspan203"
         style="font-style:normal;font-variant:normal;font-weight:normal;font-stretch:normal;font-size:80px;line-height:1.25;font-family:'Migu 1P';-inkscape-font-specification:'Migu 1P';text-align:center;text-anchor:middle;fill:#000000;stroke-width:0.75">GetFEM++チュートリアル</tspan></tspan><tspan
       sodipodi:role="line"
       x="559.57422"
       y="200.97954"
       style="font-style:normal;font-variant:normal;font-weight:normal;font-stretch:normal;font-size:50px;font-family:'Migu 1P';-inkscape-font-specification:'Migu 1P';text-align:center;text-anchor:middle;fill:#000000;stroke-width:0.75"
       id="tspan625">C++/Python/Scilab/Matlab</tspan><tspan
       sodipodi:role="line"
       x="559.57422"
       y="290.97955"
       style="font-style:normal;font-variant:normal;font-weight:normal;font-stretch:normal;font-size:50px;font-family:'Migu 1P';-inkscape-font-specification:'Migu 1P';text-align:center;text-anchor:middle;fill:#000000;stroke-width:0.75"
       id="tspan36">で学ぶ物理シュミレーション</tspan></text>
  <text
     xml:space="preserve"
     style="font-style:normal;font-variant:normal;font-weight:normal;font-stretch:normal;font-size:72px;line-height:1.25;font-family:'Migu 1P';-inkscape-font-specification:'Migu 1P';text-align:end;letter-spacing:0px;word-spacing:0px;text-anchor:end;fill:#008000;fill-opacity:1;stroke:none;stroke-width:0.75"
     x="1125.3494"
     y="1231.153"
     id="text45"><tspan
       sodipodi:role="line"
       id="tspan43"
       x="1125.3494"
       y="1231.153"
       style="font-style:normal;font-variant:normal;font-weight:bold;font-stretch:normal;font-size:32.00000103px;line-height:0;font-family:'Migu 1P';-inkscape-font-specification:'Migu 1P Bold';text-align:end;text-anchor:end;fill:#000000;stroke-width:0.75">Yves Renard, Julien Pommier, Konstantinos Poulios 著</tspan><tspan
       sodipodi:role="line"
       x="1125.3494"
       y="1321.153"
       style="font-style:normal;font-variant:normal;font-weight:bold;font-stretch:normal;font-size:32.00000103px;line-height:0;font-family:'Migu 1P';-inkscape-font-specification:'Migu 1P Bold';text-align:end;text-anchor:end;fill:#000000;stroke-width:0.75"
       id="tspan47">Tetsuo Koyama 訳</tspan></text>
  <flowRoot
     xml:space="preserve"
     id="flowRoot33"
     style="fill:black;fill-opacity:1;stroke:none;font-family:'Migu 1P';font-style:normal;font-weight:normal;font-size:133.33333333px;line-height:1.25;letter-spacing:0px;word-spacing:0px;-inkscape-font-specification:'Migu 1P';font-stretch:normal;font-variant:normal"><flowRegion
       id="flowRegion35"><rect
         id="rect37"
         width="711.88074"
         height="156.43239"
         x="392.21457"
         y="91.26001" /></flowRegion><flowPara
       id="flowPara39" /></flowRoot>  <g
     id="g206"
     transform="matrix(7.5000002,0,0,7.5000002,362.75667,407.9622)">
    <path
       id="path164"
       d="m 36.31,5 c 5.859,4.062 9.688,10.831 9.688,18.5 0,12.426 -10.07,22.5 -22.5,22.5 -7.669,0 -14.438,-3.828 -18.5,-9.688 1.037,1.822 2.306,3.499 3.781,4.969 4.085,3.712 9.514,5.969 15.469,5.969 12.703,0 23,-10.298 23,-23 0,-5.954 -2.256,-11.384 -5.969,-15.469 C 39.81,7.306 38.132,6.037 36.31,5 Z m 4.969,3.781 c 3.854,4.113 6.219,9.637 6.219,15.719 0,12.703 -10.297,23 -23,23 -6.081,0 -11.606,-2.364 -15.719,-6.219 4.16,4.144 9.883,6.719 16.219,6.719 12.703,0 23,-10.298 23,-23 0,-6.335 -2.575,-12.06 -6.719,-16.219 z"
       style="opacity:0.05"
       inkscape:connector-curvature="0" />
    <path
       id="path166"
       d="m 41.28,8.781 c 3.712,4.085 5.969,9.514 5.969,15.469 0,12.703 -10.297,23 -23,23 -5.954,0 -11.384,-2.256 -15.469,-5.969 4.113,3.854 9.637,6.219 15.719,6.219 12.703,0 23,-10.298 23,-23 0,-6.081 -2.364,-11.606 -6.219,-15.719 z"
       style="opacity:0.1"
       inkscape:connector-curvature="0" />
    <path
       id="path168"
       d="M 31.25,2.375 C 39.865,5.529 46,13.792 46,23.505 c 0,12.426 -10.07,22.5 -22.5,22.5 -9.708,0 -17.971,-6.135 -21.12,-14.75 a 23,23 0 0 0 44.875,-7 23,23 0 0 0 -16,-21.875 z"
       style="opacity:0.2"
       inkscape:connector-curvature="0" />
    <path
       id="path170"
       d="M 24,1 C 36.703,1 47,11.297 47,24 47,36.703 36.703,47 24,47 11.297,47 1,36.703 1,24 1,11.297 11.297,1 24,1 Z"
       style="fill:url(#linearGradient3764)"
       inkscape:connector-curvature="0" />
    <g
       id="g172"
       transform="translate(1,1)" />
    <path
       id="path174"
       d="m 40.03,7.531 c 3.712,4.084 5.969,9.514 5.969,15.469 0,12.703 -10.297,23 -23,23 C 17.045,46 11.615,43.744 7.53,40.031 11.708,44.322 17.54,47 23.999,47 c 12.703,0 23,-10.298 23,-23 0,-6.462 -2.677,-12.291 -6.969,-16.469 z"
       style="opacity:0.1"
       inkscape:connector-curvature="0" />
    <path
       id="path176"
       d="m 25,12 c -4,0 -6,1 -6,2.75 V 18 h 6 v 1 H 15.75 C 13.811,19 12,21 12,25 c 0,4 1.811,6 3.75,6 H 18 v -3.5 c 0,-1.662 1.338,-3 3,-3 h 7 c 1.662,0 3,-1.338 3,-3 V 14.75 C 31,13 29,12 25,12 Z m 6.9961,7 v 3.5 c 0,1.662 -1.338,3 -3,3 h -7 c -1.662,0 -3,1.338 -3,3 v 6.75 c 0,1.75 2,2.75 6,2.75 4,0 6,-1 6,-2.75 V 32 h -6 v -1 h 9.25 c 1.939,0 3.754,-2 3.754,-6 0,-4 -1.815,-6 -3.754,-6 z"
       style="opacity:0.1"
       inkscape:connector-curvature="0" />
    <path
       id="path178"
       d="m 24,11 c -4,0 -6,1 -6,2.75 V 17 h 6 v 1 H 14.75 C 12.811,18 11,20 11,24 c 0,4 1.811,6 3.75,6 H 17 v -3.5 c 0,-1.662 1.338,-3 3,-3 h 7 c 1.662,0 3,-1.338 3,-3 V 13.75 C 30,12 28,11 24,11 Z"
       style="fill:#4085b0"
       inkscape:connector-curvature="0" />
    <path
       id="path180"
       d="m 23.997,37 c 4,0 6,-1 6,-2.75 V 31 h -6 v -1 h 9.2495 c 1.939,0 3.753,-2 3.753,-6 0,-4 -1.814,-6 -3.753,-6 h -2.249 v 3.5 c 0,1.662 -1.338,3 -3,3 h -7 c -1.662,0 -3,1.338 -3,3 v 6.75 c 0,1.75 2,2.75 6,2.75 z"
       style="fill:#f9f747"
       inkscape:connector-curvature="0" />
    <circle
       id="circle182"
       style="fill:#f9f9f9"
       r="1"
       cx="21"
       cy="14" />
    <circle
       id="circle184"
       style="fill:#f9f9f9"
       r="1"
       cx="27"
       cy="34" />
  </g>
  <g
     id="g377"
     transform="matrix(7.5000002,0,0,7.5000002,81.518295,841.37682)">
    <g
       id="g290">
      <path
         id="path284"
         style="opacity:0.05"
         d="m 36.31,5 c 5.859,4.062 9.688,10.831 9.688,18.5 0,12.426 -10.07,22.5 -22.5,22.5 -7.669,0 -14.438,-3.828 -18.5,-9.688 1.037,1.822 2.306,3.499 3.781,4.969 4.085,3.712 9.514,5.969 15.469,5.969 12.703,0 23,-10.298 23,-23 0,-5.954 -2.256,-11.384 -5.969,-15.469 C 39.81,7.306 38.132,6.037 36.31,5 Z m 4.969,3.781 c 3.854,4.113 6.219,9.637 6.219,15.719 0,12.703 -10.297,23 -23,23 -6.081,0 -11.606,-2.364 -15.719,-6.219 4.16,4.144 9.883,6.719 16.219,6.719 12.703,0 23,-10.298 23,-23 0,-6.335 -2.575,-12.06 -6.719,-16.219 z"
         inkscape:connector-curvature="0" />
      <path
         id="path286"
         style="opacity:0.1"
         d="m 41.28,8.781 c 3.712,4.085 5.969,9.514 5.969,15.469 0,12.703 -10.297,23 -23,23 -5.954,0 -11.384,-2.256 -15.469,-5.969 4.113,3.854 9.637,6.219 15.719,6.219 12.703,0 23,-10.298 23,-23 0,-6.081 -2.364,-11.606 -6.219,-15.719 z"
         inkscape:connector-curvature="0" />
      <path
         id="path288"
         style="opacity:0.2"
         d="M 31.25,2.375 C 39.865,5.529 46,13.792 46,23.505 c 0,12.426 -10.07,22.5 -22.5,22.5 -9.708,0 -17.971,-6.135 -21.12,-14.75 a 23,23 0 0 0 44.875,-7 23,23 0 0 0 -16,-21.875 z"
         inkscape:connector-curvature="0" />
    </g>
    <g
       id="g294">
      <path
         id="path292"
         style="fill:url(#linearGradient3764-5);fill-opacity:1"
         d="M 24,1 C 36.703,1 47,11.297 47,24 47,36.703 36.703,47 24,47 11.297,47 1,36.703 1,24 1,11.297 11.297,1 24,1 Z"
         inkscape:connector-curvature="0" />
    </g>
    <g
       id="g298">
      <path
         id="path296"
         style="opacity:0.1"
         d="m 40.03,7.531 c 3.712,4.084 5.969,9.514 5.969,15.469 0,12.703 -10.297,23 -23,23 C 17.045,46 11.615,43.744 7.53,40.031 11.708,44.322 17.54,47 23.999,47 c 12.703,0 23,-10.298 23,-23 0,-6.462 -2.677,-12.291 -6.969,-16.469 z"
         inkscape:connector-curvature="0" />
    </g>
    <g
       id="g318"
       style="opacity:0.1;fill:#000000"
       transform="translate(-5.7944709e-7,0.99999965)">
      <path
         id="path300"
         style="fill-opacity:1;fill-rule:nonzero;stroke:none"
         transform="matrix(0.46383647,0,0,0.52304963,46.603773,4.0851067)"
         d="m -35.797,18 c 0,2.64 -2.413,4.78 -5.39,4.78 -2.977,0 -5.39,-2.14 -5.39,-4.78 0,-2.64 2.413,-4.78 5.39,-4.78 2.977,0 5.39,2.14 5.39,4.78 z"
         inkscape:connector-curvature="0" />
      <path
         id="path302"
         style="fill-opacity:1;fill-rule:nonzero;stroke:none"
         d="m -35.797,18 c 0,2.64 -2.413,4.78 -5.39,4.78 -2.977,0 -5.39,-2.14 -5.39,-4.78 0,-2.64 2.413,-4.78 5.39,-4.78 2.977,0 5.39,2.14 5.39,4.78 z"
         transform="matrix(0.46383647,0,0,0.52304963,39.603773,10.085107)"
         inkscape:connector-curvature="0" />
      <path
         id="path304"
         style="fill-opacity:1;fill-rule:nonzero;stroke:none"
         transform="matrix(0.46383647,0,0,0.52304963,33.603773,16.085107)"
         d="m -35.797,18 c 0,2.64 -2.413,4.78 -5.39,4.78 -2.977,0 -5.39,-2.14 -5.39,-4.78 0,-2.64 2.413,-4.78 5.39,-4.78 2.977,0 5.39,2.14 5.39,4.78 z"
         inkscape:connector-curvature="0" />
      <path
         id="path306"
         style="fill-opacity:1;fill-rule:nonzero;stroke:none"
         d="m -35.797,18 c 0,2.64 -2.413,4.78 -5.39,4.78 -2.977,0 -5.39,-2.14 -5.39,-4.78 0,-2.64 2.413,-4.78 5.39,-4.78 2.977,0 5.39,2.14 5.39,4.78 z"
         transform="matrix(0.46383647,0,0,0.52304963,42.603773,16.085107)"
         inkscape:connector-curvature="0" />
      <path
         id="path308"
         style="fill-opacity:1;fill-rule:nonzero;stroke:none"
         transform="matrix(0.46383647,0,0,0.52304963,49.603773,10.085107)"
         d="m -35.797,18 c 0,2.64 -2.413,4.78 -5.39,4.78 -2.977,0 -5.39,-2.14 -5.39,-4.78 0,-2.64 2.413,-4.78 5.39,-4.78 2.977,0 5.39,2.14 5.39,4.78 z"
         inkscape:connector-curvature="0" />
      <path
         id="path310"
         style="fill-opacity:1;fill-rule:nonzero;stroke:none"
         d="m -35.797,18 c 0,2.64 -2.413,4.78 -5.39,4.78 -2.977,0 -5.39,-2.14 -5.39,-4.78 0,-2.64 2.413,-4.78 5.39,-4.78 2.977,0 5.39,2.14 5.39,4.78 z"
         transform="matrix(0.46383647,0,0,0.52304963,51.603773,16.085107)"
         inkscape:connector-curvature="0" />
      <path
         id="path312"
         style="fill-opacity:1;fill-rule:nonzero;stroke:none"
         transform="matrix(0.46383647,0,0,0.52304963,53.603773,22.085107)"
         d="m -35.797,18 c 0,2.64 -2.413,4.78 -5.39,4.78 -2.977,0 -5.39,-2.14 -5.39,-4.78 0,-2.64 2.413,-4.78 5.39,-4.78 2.977,0 5.39,2.14 5.39,4.78 z"
         inkscape:connector-curvature="0" />
      <path
         id="path314"
         style="fill-opacity:1;fill-rule:nonzero;stroke:none"
         transform="matrix(0.46383647,0,0,0.52304963,44.603773,22.085107)"
         d="m -35.797,18 c 0,2.64 -2.413,4.78 -5.39,4.78 -2.977,0 -5.39,-2.14 -5.39,-4.78 0,-2.64 2.413,-4.78 5.39,-4.78 2.977,0 5.39,2.14 5.39,4.78 z"
         inkscape:connector-curvature="0" />
      <path
         id="path316"
         style="fill-opacity:1;fill-rule:nonzero;stroke:none"
         d="m -35.797,18 c 0,2.64 -2.413,4.78 -5.39,4.78 -2.977,0 -5.39,-2.14 -5.39,-4.78 0,-2.64 2.413,-4.78 5.39,-4.78 2.977,0 5.39,2.14 5.39,4.78 z"
         transform="matrix(0.46383647,0,0,0.52304963,36.603773,22.085107)"
         inkscape:connector-curvature="0" />
    </g>
    <g
       id="g338"
       transform="translate(-1.0000003)">
      <path
         id="path320"
         style="fill:#ff2a2a;fill-opacity:1;fill-rule:nonzero;stroke:none"
         d="m -35.797,18 c 0,2.64 -2.413,4.78 -5.39,4.78 -2.977,0 -5.39,-2.14 -5.39,-4.78 0,-2.64 2.413,-4.78 5.39,-4.78 2.977,0 5.39,2.14 5.39,4.78 z"
         transform="matrix(0.46383647,0,0,0.52304963,46.603773,4.0851067)"
         inkscape:connector-curvature="0" />
      <path
         id="path322"
         style="fill:#ff2a2a;fill-opacity:1;fill-rule:nonzero;stroke:none"
         transform="matrix(0.46383647,0,0,0.52304963,39.603773,10.085107)"
         d="m -35.797,18 c 0,2.64 -2.413,4.78 -5.39,4.78 -2.977,0 -5.39,-2.14 -5.39,-4.78 0,-2.64 2.413,-4.78 5.39,-4.78 2.977,0 5.39,2.14 5.39,4.78 z"
         inkscape:connector-curvature="0" />
      <path
         id="path324"
         style="fill:#d40000;fill-opacity:1;fill-rule:nonzero;stroke:none"
         d="m -35.797,18 c 0,2.64 -2.413,4.78 -5.39,4.78 -2.977,0 -5.39,-2.14 -5.39,-4.78 0,-2.64 2.413,-4.78 5.39,-4.78 2.977,0 5.39,2.14 5.39,4.78 z"
         transform="matrix(0.46383647,0,0,0.52304963,33.603773,16.085107)"
         inkscape:connector-curvature="0" />
      <path
         id="path326"
         style="fill:#ff5555;fill-opacity:1;fill-rule:nonzero;stroke:none"
         transform="matrix(0.46383647,0,0,0.52304963,42.603773,16.085107)"
         d="m -35.797,18 c 0,2.64 -2.413,4.78 -5.39,4.78 -2.977,0 -5.39,-2.14 -5.39,-4.78 0,-2.64 2.413,-4.78 5.39,-4.78 2.977,0 5.39,2.14 5.39,4.78 z"
         inkscape:connector-curvature="0" />
      <path
         id="path328"
         style="fill:#ff5555;fill-opacity:1;fill-rule:nonzero;stroke:none"
         d="m -35.797,18 c 0,2.64 -2.413,4.78 -5.39,4.78 -2.977,0 -5.39,-2.14 -5.39,-4.78 0,-2.64 2.413,-4.78 5.39,-4.78 2.977,0 5.39,2.14 5.39,4.78 z"
         transform="matrix(0.46383647,0,0,0.52304963,49.603773,10.085107)"
         inkscape:connector-curvature="0" />
      <path
         id="path330"
         style="fill:#ffaaaa;fill-opacity:1;fill-rule:nonzero;stroke:none"
         transform="matrix(0.46383647,0,0,0.52304963,51.603773,16.085107)"
         d="m -35.797,18 c 0,2.64 -2.413,4.78 -5.39,4.78 -2.977,0 -5.39,-2.14 -5.39,-4.78 0,-2.64 2.413,-4.78 5.39,-4.78 2.977,0 5.39,2.14 5.39,4.78 z"
         inkscape:connector-curvature="0" />
      <path
         id="path332"
         style="fill:#f9f9f9;fill-opacity:1;fill-rule:nonzero;stroke:none"
         d="m -35.797,18 c 0,2.64 -2.413,4.78 -5.39,4.78 -2.977,0 -5.39,-2.14 -5.39,-4.78 0,-2.64 2.413,-4.78 5.39,-4.78 2.977,0 5.39,2.14 5.39,4.78 z"
         transform="matrix(0.46383647,0,0,0.52304963,53.603773,22.085107)"
         inkscape:connector-curvature="0" />
      <path
         id="path334"
         style="fill:#ffaaaa;fill-opacity:1;fill-rule:nonzero;stroke:none"
         d="m -35.797,18 c 0,2.64 -2.413,4.78 -5.39,4.78 -2.977,0 -5.39,-2.14 -5.39,-4.78 0,-2.64 2.413,-4.78 5.39,-4.78 2.977,0 5.39,2.14 5.39,4.78 z"
         transform="matrix(0.46383647,0,0,0.52304963,44.603773,22.085107)"
         inkscape:connector-curvature="0" />
      <path
         id="path336"
         style="fill:#d40000;fill-opacity:1;fill-rule:nonzero;stroke:none"
         transform="matrix(0.46383647,0,0,0.52304963,36.603773,22.085107)"
         d="m -35.797,18 c 0,2.64 -2.413,4.78 -5.39,4.78 -2.977,0 -5.39,-2.14 -5.39,-4.78 0,-2.64 2.413,-4.78 5.39,-4.78 2.977,0 5.39,2.14 5.39,4.78 z"
         inkscape:connector-curvature="0" />
    </g>
  </g>
  <g
     id="g483"
     transform="matrix(7.8048449,0,0,7.4052935,810.58743,807.44086)">
    <g
       id="g435">
      <path
         id="path429"
         style="opacity:0.05"
         d="m 36.31,5 c 5.859,4.062 9.688,10.831 9.688,18.5 0,12.426 -10.07,22.5 -22.5,22.5 -7.669,0 -14.438,-3.828 -18.5,-9.688 1.037,1.822 2.306,3.499 3.781,4.969 4.085,3.712 9.514,5.969 15.469,5.969 12.703,0 23,-10.298 23,-23 0,-5.954 -2.256,-11.384 -5.969,-15.469 C 39.81,7.306 38.132,6.037 36.31,5 Z m 4.969,3.781 c 3.854,4.113 6.219,9.637 6.219,15.719 0,12.703 -10.297,23 -23,23 -6.081,0 -11.606,-2.364 -15.719,-6.219 4.16,4.144 9.883,6.719 16.219,6.719 12.703,0 23,-10.298 23,-23 0,-6.335 -2.575,-12.06 -6.719,-16.219 z"
         inkscape:connector-curvature="0" />
      <path
         id="path431"
         style="opacity:0.1"
         d="m 41.28,8.781 c 3.712,4.085 5.969,9.514 5.969,15.469 0,12.703 -10.297,23 -23,23 -5.954,0 -11.384,-2.256 -15.469,-5.969 4.113,3.854 9.637,6.219 15.719,6.219 12.703,0 23,-10.298 23,-23 0,-6.081 -2.364,-11.606 -6.219,-15.719 z"
         inkscape:connector-curvature="0" />
      <path
         id="path433"
         style="opacity:0.2"
         d="M 31.25,2.375 C 39.865,5.529 46,13.792 46,23.505 c 0,12.426 -10.07,22.5 -22.5,22.5 -9.708,0 -17.971,-6.135 -21.12,-14.75 a 23,23 0 0 0 44.875,-7 23,23 0 0 0 -16,-21.875 z"
         inkscape:connector-curvature="0" />
    </g>
    <path
       id="path437"
       style="fill:url(#linearGradient4325);fill-opacity:1"
       d="M 47,24 C 47,36.703 36.703,47 24,47 11.297,47 1,36.703 1,24 1,11.297 11.297,1 24,1 36.703,1 47,11.297 47,24 Z"
       inkscape:connector-curvature="0" />
    <g
       id="g449">
      <g
         id="g447">
        <g
           id="g445"
           transform="translate(1,1)">
          <g
             id="g443"
             style="opacity:0.1">
            <!-- color: #d8466e -->
            <g
               id="g441">
              <path
                 id="path439"
                 style="fill:#000000;fill-opacity:1;fill-rule:nonzero;stroke:none"
                 d="m 29.23,12.06 c -0.426,0.34 -1.68,2.719 -2.934,5.555 -0.508,1.156 -1.227,2.668 -1.59,3.363 -1.078,2.059 -3.711,5.805 -4.93,7 l -1.137,1.125 0.848,0.926 c 0.52,0.57 1.207,1.754 1.777,3.078 1.082,2.523 1.27,2.887 1.477,2.887 0.098,0 0.652,-0.313 1.27,-0.707 1.379,-0.895 2.668,-2.098 4.422,-4.145 2.738,-3.191 4.793,-3.867 7.324,-2.402 0.684,0.398 1.246,0.648 1.246,0.555 0,-0.098 -0.348,-1.059 -0.766,-2.141 -0.418,-1.082 -1.559,-4.137 -2.527,-6.789 -0.691,-1.164 -2.949,-9.117 -4.48,-8.297 m -5.457,6.527 c -0.012,0 -0.027,0 -0.043,0.008 -2.316,1.039 -3.152,1.512 -3.836,2.172 -0.449,0.441 -0.816,0.91 -0.816,1.047 0,0.426 1.824,1.563 2.125,1.324 0.145,-0.117 0.715,-0.953 1.266,-1.863 0.973,-1.621 1.477,-2.664 1.305,-2.688 m -6.484,4.59 c -0.395,0 -5.992,2.168 -6.258,2.426 -0.078,0.074 0.004,0.211 0.184,0.313 0.18,0.105 1.203,0.805 2.289,1.559 1.082,0.754 2.023,1.367 2.09,1.371 0.066,0 0.563,-0.266 1.094,-0.594 1.117,-0.688 3.273,-2.816 3.262,-3.223 -0.008,-0.363 -2.156,-1.855 -2.664,-1.855 m 0.004,0.004"
                 inkscape:connector-curvature="0" />
            </g>
          </g>
        </g>
      </g>
    </g>
    <path
       id="path451"
       style="fill:#f67e17;fill-opacity:1;fill-rule:nonzero;stroke:none"
       d="m 29.525,12.01 c -0.101,-0.013 -0.199,0.003 -0.295,0.055 v -0.008 c -0.426,0.34 -1.68,2.719 -2.934,5.555 -0.508,1.156 -1.229,2.668 -1.592,3.363 -1.078,2.059 -3.711,5.805 -4.93,7 l -1.137,1.125 0.848,0.926 c 0.52,0.57 1.207,1.754 1.777,3.078 1.082,2.523 1.27,2.887 1.477,2.887 0.098,0 0.653,-0.313 1.271,-0.707 1.379,-0.895 2.668,-2.098 4.422,-4.145 2.738,-3.191 4.793,-3.867 7.324,-2.402 0.684,0.398 1.246,0.648 1.246,0.555 0,-0.098 -0.35,-1.059 -0.768,-2.141 -0.418,-1.082 -1.557,-4.137 -2.525,-6.789 -0.648,-1.091 -2.673,-8.149 -4.186,-8.352 z"
       inkscape:connector-curvature="0" />
    <path
       id="path453"
       style="fill:#62cbcb;fill-opacity:1;fill-rule:nonzero;stroke:none"
       d="m 23.773,18.596 c -0.012,0 -0.027,0 -0.043,0.008 -2.316,1.039 -3.152,1.512 -3.836,2.172 -0.449,0.441 -0.816,0.91 -0.816,1.047 0,0.426 1.824,1.563 2.125,1.324 0.145,-0.117 0.715,-0.953 1.266,-1.863 0.973,-1.621 1.477,-2.663 1.305,-2.688 z m -6.486,4.586 0.002,0.004 c -0.395,0 -5.992,2.168 -6.258,2.426 -0.078,0.074 0.006,0.21 0.186,0.313 0.18,0.105 1.203,0.805 2.289,1.559 1.082,0.754 2.023,1.367 2.09,1.371 0.066,0 0.563,-0.266 1.094,-0.594 1.117,-0.688 3.273,-2.816 3.262,-3.223 -0.008,-0.363 -2.156,-1.855 -2.664,-1.855 z"
       inkscape:connector-curvature="0" />
    <g
       id="g457">
      <path
         id="path455"
         style="opacity:0.1"
         d="m 40.03,7.531 c 3.712,4.084 5.969,9.514 5.969,15.469 0,12.703 -10.297,23 -23,23 C 17.045,46 11.615,43.744 7.53,40.031 11.708,44.322 17.54,47 23.999,47 c 12.703,0 23,-10.298 23,-23 0,-6.462 -2.677,-12.291 -6.969,-16.469 z"
         inkscape:connector-curvature="0" />
    </g>
  </g>
  <g
     id="g619"
     transform="matrix(7.5000002,0,0,7.5000002,830.75545,256.86997)">
    <g
       id="g553">
      <path
         id="path547"
         style="opacity:0.05"
         d="m 36.31,5 c 5.859,4.062 9.688,10.831 9.688,18.5 0,12.426 -10.07,22.5 -22.5,22.5 -7.669,0 -14.438,-3.828 -18.5,-9.688 1.037,1.822 2.306,3.499 3.781,4.969 4.085,3.712 9.514,5.969 15.469,5.969 12.703,0 23,-10.298 23,-23 0,-5.954 -2.256,-11.384 -5.969,-15.469 C 39.81,7.306 38.132,6.037 36.31,5 Z m 4.969,3.781 c 3.854,4.113 6.219,9.637 6.219,15.719 0,12.703 -10.297,23 -23,23 -6.081,0 -11.606,-2.364 -15.719,-6.219 4.16,4.144 9.883,6.719 16.219,6.719 12.703,0 23,-10.298 23,-23 0,-6.335 -2.575,-12.06 -6.719,-16.219 z"
         inkscape:connector-curvature="0" />
      <path
         id="path549"
         style="opacity:0.1"
         d="m 41.28,8.781 c 3.712,4.085 5.969,9.514 5.969,15.469 0,12.703 -10.297,23 -23,23 -5.954,0 -11.384,-2.256 -15.469,-5.969 4.113,3.854 9.637,6.219 15.719,6.219 12.703,0 23,-10.298 23,-23 0,-6.081 -2.364,-11.606 -6.219,-15.719 z"
         inkscape:connector-curvature="0" />
      <path
         id="path551"
         style="opacity:0.2"
         d="M 31.25,2.375 C 39.865,5.529 46,13.792 46,23.505 c 0,12.426 -10.07,22.5 -22.5,22.5 -9.708,0 -17.971,-6.135 -21.12,-14.75 a 23,23 0 0 0 44.875,-7 23,23 0 0 0 -16,-21.875 z"
         inkscape:connector-curvature="0" />
    </g>
    <g
       id="g557">
      <path
         id="path555"
         style="fill:url(#linearGradient3764-9);fill-opacity:1"
         d="M 24,1 C 36.703,1 47,11.297 47,24 47,36.703 36.703,47 24,47 11.297,47 1,36.703 1,24 1,11.297 11.297,1 24,1 Z"
         inkscape:connector-curvature="0" />
    </g>
    <g
       id="g587">
      <path
         id="path585"
         style="opacity:0.1"
         d="m 40.03,7.531 c 3.712,4.084 5.969,9.514 5.969,15.469 0,12.703 -10.297,23 -23,23 C 17.045,46 11.615,43.744 7.53,40.031 11.708,44.322 17.54,47 23.999,47 c 12.703,0 23,-10.298 23,-23 0,-6.462 -2.677,-12.291 -6.969,-16.469 z"
         inkscape:connector-curvature="0" />
    </g>
    <g
       style="clip-rule:evenodd;fill-rule:evenodd;image-rendering:optimizeQuality;shape-rendering:geometricPrecision;text-rendering:geometricPrecision"
       id="g179"
       transform="matrix(0.1,0,0,0.1,-219.76174,-52.438896)">
      <g
         id="Layer_x0020_1">
        <metadata
           id="CorelCorpID_0Corel-Layer" />
        <g
           id="g193"
           transform="matrix(0.5,0,0,0.5,2167.7458,523.63843)">
          <path
             style="fill:#ff0033;fill-rule:nonzero"
             inkscape:connector-curvature="0"
             class="fil0"
             d="M 732,813 C 673,848 602,865 521,865 411,865 322,830 254,761 186,693 153,603 153,493 153,371 189,273 262,198 334,124 432,87 554,87 c 67,0 127,12 179,36 v 156 c -52,-38 -107,-58 -166,-58 -71,0 -129,24 -174,72 -46,49 -69,112 -69,189 0,77 22,138 65,183 43,44 100,66 172,66 60,0 117,-21 171,-64 z"
             id="path158" />
          <path
             style="fill:#ff0033;fill-rule:nonzero"
             inkscape:connector-curvature="0"
             class="fil0"
             d="m 489,573 v -75 h -74 v -31 h 74 v -74 h 32 v 74 h 74 v 31 h -74 v 75 z"
             id="path160" />
          <path
             style="fill:#ff0033;fill-rule:nonzero"
             inkscape:connector-curvature="0"
             id="1"
             class="fil0"
             d="m 711,573 v -75 h -74 v -31 h 74 v -74 h 31 v 74 h 75 v 31 h -75 v 75 z" />
        </g>
      </g>
    </g>
  </g>
  <rect
     style="fill:#ff2a2a;stroke:#376400;stroke-width:0.69479233;stroke-opacity:1"
     id="rect205"
     width="1197.5764"
     height="343.92175"
     x="-2.4322634"
     y="1339.8854" />
  <text
     xml:space="preserve"
     style="font-style:normal;font-weight:normal;font-size:72px;line-height:125%;font-family:sans-serif;letter-spacing:0px;word-spacing:0px;fill:#000000;fill-opacity:1;stroke:none;stroke-width:0.75px;stroke-linecap:butt;stroke-linejoin:miter;stroke-opacity:1"
     x="76.949158"
     y="1424.0762"
     id="text209"><tspan
       sodipodi:role="line"
       id="tspan207"
       x="76.949158"
       y="1424.0762"
       style="stroke-width:0.75px;fill:#ffffff">Pythonで手軽に使える!!!</tspan><tspan
       sodipodi:role="line"
       x="76.949158"
       y="1519.2634"
       style="stroke-width:0.75px;fill:#ffffff"
       id="tspan211">AI時代の物理シュミレーション</tspan><tspan
       sodipodi:role="line"
       x="76.949158"
       y="1614.4506"
       style="stroke-width:0.75px;fill:#ffffff"
       id="tspan213">ライブラリ</tspan></text>
  <g
     id="g169"
     transform="matrix(0.04589163,0,0,-0.04577026,431.99454,1143.2052)"
     style="fill:#009688;stroke:none">
    <path
       id="path161"
       d="m 8500,12793 c -203,-19 -252,-24 -264,-29 -21,-8 -67,-401 -84,-718 l -7,-129 -110,-27 c -60,-15 -144,-41 -185,-58 -105,-43 -337,-154 -397,-191 -28,-17 -53,-31 -55,-31 -3,0 -151,120 -329,266 -178,146 -330,268 -336,271 -24,10 -229,-164 -382,-323 -147,-152 -315,-362 -303,-377 43,-57 207,-259 347,-427 94,-113 175,-211 179,-218 4,-8 -9,-38 -34,-78 -67,-106 -145,-271 -180,-379 -18,-55 -43,-132 -56,-172 -13,-39 -24,-78 -24,-86 0,-11 -19,-16 -72,-21 -390,-36 -765,-79 -775,-90 -31,-30 -51,-432 -34,-649 12,-151 35,-315 46,-325 4,-5 299,-34 757,-77 l 77,-7 6,-41 c 4,-23 15,-62 25,-87 10,-25 34,-97 54,-161 39,-121 120,-293 187,-393 22,-33 38,-65 35,-73 -3,-7 -83,-106 -179,-220 -264,-316 -348,-423 -340,-436 34,-60 195,-249 308,-363 149,-150 382,-344 393,-328 4,6 99,86 212,179 113,93 250,207 305,254 55,48 107,92 117,99 14,11 33,4 130,-51 134,-76 299,-144 459,-187 63,-17 121,-35 127,-39 8,-5 23,-109 42,-302 30,-293 57,-524 64,-545 8,-21 310,-37 569,-31 206,5 407,24 423,39 2,3 20,180 39,394 20,214 38,404 41,422 6,38 4,37 177,88 145,43 338,128 455,201 47,30 90,52 96,49 6,-2 67,-52 136,-111 232,-200 522,-426 537,-421 27,11 138,96 200,153 129,120 483,521 483,547 0,3 -114,141 -252,307 -139,165 -263,313 -275,328 l -22,27 59,114 c 79,151 156,344 189,471 l 26,104 185,17 c 102,9 294,27 427,39 l 242,23 6,26 c 13,63 26,219 31,380 9,237 -17,582 -44,599 -7,4 -197,24 -424,45 -227,21 -416,40 -420,42 -4,2 -12,30 -18,62 -27,137 -115,364 -206,533 l -65,121 38,46 c 21,26 139,171 264,323 124,152 229,281 233,288 8,12 -71,113 -203,260 -146,162 -481,451 -504,434 -83,-63 -382,-305 -487,-394 -75,-62 -142,-119 -151,-126 -12,-10 -54,7 -229,96 -153,76 -247,116 -325,139 -60,18 -120,32 -132,32 -25,0 -25,-3 -49,255 -17,191 -64,608 -68,612 -8,8 -126,23 -252,32 -130,10 -372,12 -454,4 z m 455,-2094 c 217,-36 427,-151 610,-333 179,-178 289,-374 335,-601 104,-501 -99,-998 -520,-1276 -192,-127 -378,-186 -616,-196 -222,-10 -388,24 -579,117 -239,117 -419,293 -546,534 -96,183 -134,343 -133,571 1,281 77,507 244,723 212,275 500,446 795,471 111,9 329,4 410,-10 z"
       inkscape:connector-curvature="0" />
    <path
       id="path163"
       d="m 8500,10521 c -365,-80 -663,-359 -777,-727 -25,-83 -27,-101 -27,-279 -1,-207 4,-238 65,-396 65,-169 235,-378 398,-488 90,-61 214,-117 317,-143 128,-32 372,-32 490,0 140,38 241,86 354,170 320,238 473,583 430,970 -27,250 -124,448 -301,617 -134,128 -274,210 -448,262 -119,35 -371,43 -501,14 z m 382,-256 c 228,-48 440,-209 537,-407 17,-35 41,-101 52,-147 18,-73 21,-105 17,-235 -4,-132 -8,-161 -34,-236 -76,-227 -298,-429 -546,-496 -76,-21 -290,-24 -358,-5 -147,40 -267,110 -374,217 -45,44 -96,106 -115,137 -222,373 -105,862 259,1078 74,43 186,87 260,99 75,13 231,10 302,-5 z"
       inkscape:connector-curvature="0" />
    <path
       id="path165"
       d="m 4716,8448 c -75,-191 -162,-428 -251,-680 l -98,-278 h -122 c -231,0 -583,-47 -788,-106 -70,-20 -129,-35 -131,-33 -1,2 -36,51 -77,109 -140,200 -570,790 -575,790 -10,0 -181,-68 -219,-88 -22,-11 -74,-36 -115,-56 -41,-19 -120,-61 -175,-94 -55,-32 -148,-87 -207,-122 -105,-62 -250,-166 -342,-245 l -46,-41 120,-259 c 67,-143 171,-367 232,-498 l 111,-238 -76,-77 c -196,-200 -433,-511 -513,-675 -16,-32 -32,-57 -37,-57 -4,0 -146,24 -315,54 -329,58 -773,129 -777,124 -8,-8 -103,-248 -140,-353 C 124,5479 40,5067 5,4785 l -6,-50 508,-195 508,-195 2,-95 c 4,-171 23,-381 44,-489 11,-58 27,-141 35,-183 8,-43 26,-116 39,-163 14,-47 25,-92 25,-100 0,-7 -93,-80 -207,-161 C 838,3073 640,2930 512,2836 304,2684 280,2663 285,2643 c 22,-88 216,-464 346,-672 74,-116 223,-330 264,-378 l 30,-34 175,81 c 172,81 736,339 796,365 l 30,14 135,-125 c 169,-158 253,-221 482,-361 138,-84 182,-116 180,-130 -1,-10 -22,-142 -47,-293 -44,-266 -116,-748 -116,-773 0,-7 15,-18 33,-26 225,-90 426,-152 715,-220 193,-46 473,-94 483,-83 18,20 261,659 355,929 l 38,113 h 152 c 262,0 447,26 712,102 122,34 146,38 157,27 7,-8 153,-212 325,-454 172,-242 314,-442 316,-443 3,-4 91,37 361,170 112,55 243,130 345,197 145,96 331,233 381,281 18,16 15,25 -81,241 -55,123 -159,350 -230,504 l -130,279 117,126 c 160,170 305,368 405,552 25,48 50,89 54,91 4,2 95,-11 202,-29 559,-94 883,-145 894,-141 22,9 178,453 221,627 8,36 20,75 25,87 9,21 73,382 84,475 l 6,47 -48,21 c -62,28 -480,186 -764,290 l -228,83 v 156 c 0,179 -10,281 -41,448 -18,99 -67,314 -85,375 -4,12 44,51 188,154 217,155 695,511 703,525 7,11 -61,171 -143,334 -116,233 -266,468 -424,667 l -77,97 -133,-58 c -184,-81 -480,-217 -687,-317 l -173,-84 -134,127 c -142,134 -314,268 -429,336 -60,35 -183,116 -208,137 -4,4 11,123 33,266 112,714 131,836 128,839 -2,1 -73,29 -158,62 -180,70 -399,143 -431,143 -12,0 -47,9 -78,19 -80,28 -488,110 -546,111 -16,0 -26,-16 -49,-72 z M 4535,5825 c 276,-49 564,-184 772,-363 246,-212 460,-599 518,-936 22,-127 20,-347 -4,-488 -44,-255 -154,-525 -285,-698 -231,-307 -631,-548 -1020,-615 -114,-19 -334,-19 -454,0 -228,37 -486,130 -646,233 -356,230 -620,625 -702,1052 -24,127 -24,358 0,495 90,509 329,862 761,1126 114,70 293,142 430,175 193,46 439,53 630,19 z"
       inkscape:connector-curvature="0" />
    <path
       id="path167"
       d="m 4175,5623 c -215,-25 -337,-62 -515,-154 -350,-181 -559,-444 -665,-838 -50,-184 -58,-241 -59,-391 0,-142 16,-252 55,-371 24,-74 109,-259 119,-259 3,0 34,-42 67,-92 148,-223 355,-389 609,-488 506,-198 1037,-94 1437,280 180,168 328,436 378,682 69,343 12,664 -173,974 -199,335 -459,524 -858,623 -134,33 -292,47 -395,34 z m 345,-374 c 312,-78 532,-261 681,-565 68,-141 83,-214 83,-409 0,-199 -15,-270 -90,-424 -55,-115 -112,-196 -195,-279 -290,-285 -627,-368 -1024,-252 -258,75 -462,253 -595,519 -127,254 -139,573 -33,816 105,236 289,424 525,535 217,102 408,119 648,59 z"
       inkscape:connector-curvature="0" />
  </g>
  <g
     id="g270"
     transform="translate(-1320.1589,137.06568)">
    <path
       id="path161-0"
       d="m 1545.5756,405.35868 c -9.316,0.86964 -11.5647,1.09849 -12.1154,1.32734 -0.9638,0.36616 -3.0748,18.35388 -3.8549,32.86305 l -0.3213,5.90436 -5.0481,1.2358 c -2.7535,0.68655 -6.6083,1.87658 -8.4899,2.65467 -4.8186,1.96812 -15.4655,7.04862 -18.219,8.74212 -1.2849,0.7781 -2.4322,1.41888 -2.524,1.41888 -0.1377,0 -6.9297,-5.49243 -15.0984,-12.17489 -8.1687,-6.68246 -15.1442,-12.26643 -15.4196,-12.40374 -1.1014,-0.4577 -10.5091,7.50632 -17.5306,14.7838 -6.746,6.95708 -14.4558,16.56883 -13.9051,17.25538 1.9733,2.60891 9.4995,11.8545 15.9244,19.5439 4.3138,5.17204 8.031,9.65753 8.2146,9.97792 0.1835,0.36616 -0.413,1.73927 -1.5603,3.57008 -3.0748,4.85165 -6.6543,12.40374 -8.2605,17.34693 -0.8261,2.51736 -1.9734,6.04167 -2.57,7.87249 -0.5966,1.78504 -1.1014,3.57008 -1.1014,3.93624 0,0.50347 -0.8719,0.73232 -3.3042,0.96117 -17.8977,1.64773 -35.1071,3.61585 -35.566,4.11933 -1.4226,1.3731 -2.3404,19.77275 -1.5603,29.70489 0.5507,6.91131 1.6062,14.41764 2.111,14.87534 0.1836,0.22885 13.7216,1.55619 34.74,3.52431 l 3.5336,0.32039 0.2754,1.87658 c 0.1836,1.05272 0.6884,2.83776 1.1473,3.98201 0.4589,1.14426 1.5603,4.43972 2.4781,7.36902 1.7898,5.5382 5.507,13.41068 8.5818,17.98771 1.0096,1.51042 1.7439,2.97507 1.6062,3.34123 -0.1377,0.32039 -3.809,4.85165 -8.2146,10.06945 -12.1154,14.46341 -15.9703,19.36082 -15.6032,19.95584 1.5603,2.74621 8.9489,11.39679 14.1346,16.6146 6.8379,6.86554 17.5306,15.74497 18.0355,15.01265 0.1835,-0.27462 4.5432,-3.93624 9.729,-8.19288 5.1857,-4.25663 11.4729,-9.47444 13.9969,-11.62564 2.5241,-2.19698 4.9104,-4.21087 5.3693,-4.53126 0.6425,-0.50347 1.5145,-0.18308 5.966,2.33428 6.1494,3.47854 13.7216,6.59092 21.0642,8.55904 2.8912,0.7781 5.5529,1.60196 5.8283,1.78504 0.3671,0.22885 1.0555,4.98896 1.9274,13.82262 1.3767,13.41069 2.6158,23.98362 2.9371,24.94479 0.3671,0.96118 14.2264,1.6935 26.1123,1.41888 9.4537,-0.22885 18.6779,-1.09849 19.4122,-1.78504 0.092,-0.13731 0.9178,-8.23865 1.7897,-18.03348 0.9179,-9.79484 1.7439,-18.49119 1.8816,-19.31505 0.2753,-1.73927 0.1836,-1.6935 8.1228,-4.02779 6.6543,-1.96812 15.5114,-5.85859 20.8807,-9.19982 2.1569,-1.37311 4.1302,-2.38005 4.4056,-2.24274 0.2753,0.0915 3.0747,2.38005 6.2413,5.0805 10.6468,9.15405 23.9554,19.49813 24.6438,19.26928 1.239,-0.50347 6.333,-4.39395 9.1783,-7.00285 5.92,-5.49243 22.1656,-23.84631 22.1656,-25.03633 0,-0.13731 -5.2316,-6.45361 -11.5646,-14.05147 -6.379,-7.5521 -12.0695,-14.3261 -12.6202,-15.01265 l -1.0097,-1.2358 2.7077,-5.21781 c 3.6254,-6.91131 7.159,-15.74497 8.6735,-21.55779 l 1.1932,-4.76011 8.4899,-0.77809 c 4.6809,-0.41193 13.4921,-1.2358 19.5957,-1.78504 l 11.1058,-1.05272 0.2754,-1.19002 c 0.5965,-2.88353 1.1931,-10.02369 1.4226,-17.3927 0.413,-10.84755 -0.7802,-26.63829 -2.0192,-27.41639 -0.3213,-0.18308 -9.0407,-1.09848 -19.4581,-2.05966 -10.4174,-0.96117 -19.0909,-1.83081 -19.2745,-1.92235 -0.1835,-0.0915 -0.5507,-1.37311 -0.826,-2.83776 -1.2391,-6.27052 -5.2776,-16.66037 -9.4537,-24.39554 l -2.983,-5.53821 1.7439,-2.10543 c 0.9638,-1.19002 6.379,-7.82671 12.1154,-14.78379 5.6906,-6.95708 10.5092,-12.86144 10.6928,-13.18184 0.3671,-0.54924 -3.2583,-5.17204 -9.316,-11.90026 -6.7002,-7.41479 -22.0739,-20.64239 -23.1294,-19.8643 -3.809,2.88353 -17.5306,13.95993 -22.3492,18.03349 -3.4419,2.83775 -6.5167,5.44666 -6.9297,5.76705 -0.5507,0.4577 -2.4781,-0.32039 -10.5092,-4.39395 -7.0214,-3.47854 -11.3352,-5.30935 -14.9147,-6.36206 -2.7535,-0.82387 -5.507,-1.46465 -6.0577,-1.46465 -1.1473,0 -1.1473,0.13731 -2.2487,-11.67142 -0.7802,-8.74212 -2.9371,-27.82832 -3.1207,-28.0114 -0.3671,-0.36616 -5.7823,-1.05271 -11.5646,-1.46465 -5.966,-0.4577 -17.0717,-0.54924 -20.8348,-0.18308 z m 20.8806,95.84293 c 9.9585,1.64773 19.5958,6.91131 27.9939,15.24149 8.2146,8.14711 13.2627,17.11808 15.3737,27.50793 4.7728,22.9309 -4.5432,45.67872 -23.8636,58.40285 -8.8112,5.81283 -17.347,8.51327 -28.2693,8.97097 -10.1879,0.45771 -17.8059,-1.09848 -26.5712,-5.35512 -10.9681,-5.35512 -19.2286,-13.41068 -25.0568,-24.44132 -4.4056,-8.37595 -6.1495,-15.69919 -6.1036,-26.13481 0.046,-12.86145 3.5336,-23.20553 11.1975,-33.0919 9.7291,-12.58682 22.9458,-20.41354 36.4839,-21.55779 5.0939,-0.41194 15.0983,-0.18309 18.8155,0.4577 z"
       inkscape:connector-curvature="0"
       style="fill:#009688;stroke:none;stroke-width:0.04583091" />
    <path
       id="path163-0"
       d="m 1545.5756,509.34871 c -16.7505,3.66163 -30.4262,16.43153 -35.6578,33.27498 -1.1473,3.79894 -1.2391,4.6228 -1.2391,12.76991 -0.046,9.47444 0.1836,10.89332 2.9829,18.12502 2.983,7.73517 10.7846,17.30116 18.2649,22.33589 4.1303,2.79198 9.8208,5.35512 14.5477,6.54514 5.8741,1.46465 17.0716,1.46465 22.4869,0 6.4248,-1.73927 11.0598,-3.93624 16.2456,-7.78094 14.6853,-10.89332 21.7067,-26.68406 19.7334,-44.39715 -1.2391,-11.44257 -5.6906,-20.50508 -13.8134,-28.24025 -6.1495,-5.8586 -12.5743,-9.61176 -20.5594,-11.99181 -5.4611,-1.60196 -17.0258,-1.96812 -22.9917,-0.64079 z m 17.5306,11.71719 c 10.4632,2.19697 20.1923,9.56599 24.6438,18.6285 0.7801,1.60196 1.8815,4.62279 2.3863,6.72823 0.8261,3.34122 0.9638,4.80587 0.7802,10.75601 -0.1836,6.04167 -0.3671,7.36901 -1.5603,10.80178 -3.4878,10.38985 -13.6757,19.63544 -25.0569,22.70205 -3.4877,0.96117 -13.3085,1.09848 -16.4292,0.22885 -6.746,-1.83081 -12.253,-5.03473 -17.1634,-9.93215 -2.0652,-2.01389 -4.4056,-4.85165 -5.2776,-6.27052 -10.1879,-17.07231 -4.8186,-39.45397 11.886,-49.34034 3.3959,-1.96813 8.5358,-3.98202 11.9318,-4.53126 3.4419,-0.59501 10.601,-0.4577 13.8593,0.22885 z"
       inkscape:connector-curvature="0"
       style="fill:#009688;stroke:none;stroke-width:0.04583091" />
  </g>
  <g
     id="g305"
     transform="translate(-1354.8809,-337.15313)">
    <path
       id="path161-3"
       d="m 1531.1476,619.37356 c -9.316,0.86964 -11.5647,1.09849 -12.1154,1.32734 -0.9638,0.36616 -3.0748,18.35388 -3.8549,32.86305 l -0.3213,5.90436 -5.0481,1.2358 c -2.7535,0.68655 -6.6083,1.87658 -8.4899,2.65467 -4.8186,1.96812 -15.4655,7.04862 -18.219,8.74212 -1.2849,0.7781 -2.4322,1.41888 -2.524,1.41888 -0.1377,0 -6.9297,-5.49243 -15.0984,-12.17489 -8.1687,-6.68246 -15.1442,-12.26643 -15.4196,-12.40374 -1.1014,-0.4577 -10.5091,7.50632 -17.5306,14.7838 -6.746,6.95708 -14.4558,16.56883 -13.9051,17.25538 1.9733,2.60891 9.4995,11.8545 15.9244,19.5439 4.3138,5.17204 8.031,9.65753 8.2146,9.97792 0.1835,0.36616 -0.413,1.73927 -1.5603,3.57008 -3.0748,4.85165 -6.6543,12.40374 -8.2605,17.34693 -0.8261,2.51736 -1.9734,6.04167 -2.57,7.87249 -0.5966,1.78504 -1.1014,3.57008 -1.1014,3.93624 0,0.50347 -0.8719,0.73232 -3.3042,0.96117 -17.8977,1.64773 -35.1071,3.61585 -35.566,4.11933 -1.4226,1.3731 -2.3404,19.77275 -1.5603,29.70489 0.5507,6.91131 1.6062,14.41764 2.111,14.87534 0.1836,0.22885 13.7216,1.55619 34.74,3.52431 l 3.5336,0.32039 0.2754,1.87658 c 0.1836,1.05272 0.6884,2.83776 1.1473,3.98201 0.4589,1.14426 1.5603,4.43972 2.4781,7.36902 1.7898,5.5382 5.507,13.41068 8.5818,17.98771 1.0096,1.51042 1.7439,2.97507 1.6062,3.34123 -0.1377,0.32039 -3.809,4.85165 -8.2146,10.06945 -12.1154,14.46341 -15.9703,19.36082 -15.6032,19.95584 1.5603,2.74621 8.9489,11.39679 14.1346,16.6146 6.8379,6.86554 17.5306,15.74497 18.0355,15.01265 0.1835,-0.27462 4.5432,-3.93624 9.729,-8.19288 5.1857,-4.25663 11.4729,-9.47444 13.9969,-11.62564 2.5241,-2.19698 4.9104,-4.21087 5.3693,-4.53126 0.6425,-0.50347 1.5145,-0.18308 5.966,2.33428 6.1494,3.47854 13.7216,6.59092 21.0642,8.55904 2.8912,0.7781 5.5529,1.60196 5.8283,1.78504 0.3671,0.22885 1.0555,4.98896 1.9274,13.82262 1.3767,13.41069 2.6158,23.98362 2.9371,24.94479 0.3671,0.96118 14.2264,1.6935 26.1123,1.41888 9.4537,-0.22885 18.6779,-1.09849 19.4122,-1.78504 0.092,-0.13731 0.9178,-8.23865 1.7897,-18.03348 0.9179,-9.79484 1.7439,-18.49119 1.8816,-19.31505 0.2753,-1.73927 0.1836,-1.6935 8.1228,-4.02779 6.6543,-1.96812 15.5114,-5.85859 20.8807,-9.19982 2.1569,-1.37311 4.1302,-2.38005 4.4056,-2.24274 0.2753,0.0915 3.0747,2.38005 6.2413,5.0805 10.6468,9.15405 23.9554,19.49813 24.6438,19.26928 1.239,-0.50347 6.333,-4.39395 9.1783,-7.00285 5.92,-5.49243 22.1656,-23.84631 22.1656,-25.03633 0,-0.13731 -5.2316,-6.45361 -11.5646,-14.05147 -6.379,-7.5521 -12.0695,-14.3261 -12.6202,-15.01265 l -1.0097,-1.2358 2.7077,-5.21781 c 3.6254,-6.91131 7.159,-15.74497 8.6735,-21.55779 l 1.1932,-4.76011 8.4899,-0.77809 c 4.6809,-0.41193 13.4921,-1.2358 19.5957,-1.78504 l 11.1058,-1.05272 0.2754,-1.19002 c 0.5965,-2.88353 1.1931,-10.02369 1.4226,-17.3927 0.413,-10.84755 -0.7802,-26.63829 -2.0192,-27.41639 -0.3213,-0.18308 -9.0407,-1.09848 -19.4581,-2.05966 -10.4174,-0.96117 -19.0909,-1.83081 -19.2745,-1.92235 -0.1835,-0.0915 -0.5507,-1.37311 -0.826,-2.83776 -1.2391,-6.27052 -5.2776,-16.66037 -9.4537,-24.39554 l -2.983,-5.53821 1.7439,-2.10543 c 0.9638,-1.19002 6.379,-7.82671 12.1154,-14.78379 5.6906,-6.95708 10.5092,-12.86144 10.6928,-13.18184 0.3671,-0.54924 -3.2583,-5.17204 -9.316,-11.90026 -6.7002,-7.41479 -22.0739,-20.64239 -23.1294,-19.8643 -3.809,2.88353 -17.5306,13.95993 -22.3492,18.03349 -3.4419,2.83775 -6.5167,5.44666 -6.9297,5.76705 -0.5507,0.4577 -2.4781,-0.32039 -10.5092,-4.39395 -7.0214,-3.47854 -11.3352,-5.30935 -14.9147,-6.36206 -2.7535,-0.82387 -5.507,-1.46465 -6.0577,-1.46465 -1.1473,0 -1.1473,0.13731 -2.2487,-11.67142 -0.7802,-8.74212 -2.9371,-27.82832 -3.1207,-28.0114 -0.3671,-0.36616 -5.7823,-1.05271 -11.5646,-1.46465 -5.966,-0.4577 -17.0717,-0.54924 -20.8348,-0.18308 z m 20.8806,95.84293 c 9.9585,1.64773 19.5958,6.91131 27.9939,15.24149 8.2146,8.14711 13.2627,17.11808 15.3737,27.50793 4.7728,22.9309 -4.5432,45.67872 -23.8636,58.40285 -8.8112,5.81283 -17.347,8.51327 -28.2693,8.97097 -10.1879,0.45771 -17.8059,-1.09848 -26.5712,-5.35512 -10.9681,-5.35512 -19.2286,-13.41068 -25.0568,-24.44132 -4.4056,-8.37595 -6.1495,-15.69919 -6.1036,-26.13481 0.046,-12.86145 3.5336,-23.20553 11.1975,-33.0919 9.7291,-12.58682 22.9458,-20.41354 36.4839,-21.55779 5.0939,-0.41194 15.0983,-0.18309 18.8155,0.4577 z"
       inkscape:connector-curvature="0"
       style="fill:#009688;stroke:none;stroke-width:0.04583091" />
    <path
       id="path163-6"
       d="m 1531.1476,723.36359 c -16.7505,3.66163 -30.4262,16.43153 -35.6578,33.27498 -1.1473,3.79894 -1.2391,4.6228 -1.2391,12.76991 -0.046,9.47444 0.1836,10.89332 2.9829,18.12502 2.983,7.73517 10.7846,17.30116 18.2649,22.33589 4.1303,2.79198 9.8208,5.35512 14.5477,6.54514 5.8741,1.46465 17.0716,1.46465 22.4869,0 6.4248,-1.73927 11.0598,-3.93624 16.2456,-7.78094 14.6853,-10.89332 21.7067,-26.68406 19.7334,-44.39715 -1.2391,-11.44257 -5.6906,-20.50508 -13.8134,-28.24025 -6.1495,-5.8586 -12.5743,-9.61176 -20.5594,-11.99181 -5.4611,-1.60196 -17.0258,-1.96812 -22.9917,-0.64079 z m 17.5306,11.71719 c 10.4632,2.19697 20.1923,9.56599 24.6438,18.6285 0.7801,1.60196 1.8815,4.62279 2.3863,6.72823 0.8261,3.34122 0.9638,4.80587 0.7802,10.75601 -0.1836,6.04167 -0.3671,7.36901 -1.5603,10.80178 -3.4878,10.38985 -13.6757,19.63544 -25.0569,22.70205 -3.4877,0.96117 -13.3085,1.09848 -16.4292,0.22885 -6.746,-1.83081 -12.253,-5.03473 -17.1634,-9.93215 -2.0652,-2.01389 -4.4056,-4.85165 -5.2776,-6.27052 -10.1879,-17.07231 -4.8186,-39.45397 11.886,-49.34034 3.3959,-1.96813 8.5358,-3.98202 11.9318,-4.53126 3.4419,-0.59501 10.601,-0.4577 13.8593,0.22885 z"
       inkscape:connector-curvature="0"
       style="fill:#009688;stroke:none;stroke-width:0.04583091" />
  </g>
</svg>
